SplineFontDB: 3.0
FontName: Chivo-Black
FullName: Chivo Black
FamilyName: Chivo
Weight: Black
Copyright: Copyright (c) 2011-2014 by Omnibus-Type (www.omnibus-type.com omnibus.type@gmail.com), with Reserved Font Name 'Chivo'
UComments: "Disclaimer+AAoA +AAoA-Omnibus-Type give no warranty in relation to this font, and you use this+AAoA-at your own risk.+AAoA +AAoA-Omnibus-Type shall not be liable for any direct, indirect, consequential, or incidental damages (including damages from loss of business profits, business interruption, loss of business information, and the like) arising out of the use of or inability to use the fonts.+AAoA +AAoA +AAoA-If you have further questions, please contact us:+AAoA-omnibus.type@gmail.com" 

StartChar: .notdef
Encoding: 65536 -1 0
Width: 500
Flags: MW
HStem: 0 50<80 420 80 500> 650 50<80 80 80 420>
VStem: 0 50<95 95 95 605> 450 50<95 605 605 605>
LayerCount: 2
Fore
SplineSet
500 0 m 1,0,-1
 0 0 l 1,1,-1
 0 700 l 1,2,-1
 500 700 l 1,3,-1
 500 0 l 1,0,-1
80 650 m 1,4,-1
 250 395 l 1,5,-1
 420 650 l 1,6,-1
 80 650 l 1,4,-1
50 95 m 1,7,-1
 220 350 l 1,8,-1
 50 605 l 1,9,-1
 50 95 l 1,7,-1
280 350 m 1,10,-1
 450 95 l 1,11,-1
 450 605 l 1,12,-1
 280 350 l 1,10,-1
80 50 m 1,13,-1
 420 50 l 1,14,-1
 250 305 l 1,15,-1
 80 50 l 1,13,-1
EndSplineSet
EndChar

StartChar: A
Encoding: 65 65 1
Width: 709
GlyphClass: 2
Flags: MW
HStem: 122 145<285 407 285 455 237 407> 122 564<237 455 237 237> 475 211<344 344 344 349>
VStem: -5 719<0 0>
LayerCount: 2
Fore
SplineSet
714 0 m 1,0,-1
 496 0 l 1,1,-1
 455 122 l 1,2,-1
 237 122 l 1,3,-1
 197 0 l 1,4,-1
 -5 0 l 1,5,-1
 224 686 l 1,6,-1
 485 686 l 1,7,-1
 714 0 l 1,0,-1
344 475 m 1,8,-1
 285 267 l 1,9,-1
 407 267 l 1,10,-1
 349 475 l 1,11,-1
 344 475 l 1,8,-1
EndSplineSet
Substitution2: "Single Substitution lookup 5 subtable" ordfeminine
Substitution2: "'aalt' Access All Alternates lookup 0 subtable" ordfeminine
Position2: "'cpsp' Capital Spacing lookup 0 subtable" dx=5 dy=0 dh=10 dv=0
EndChar

StartChar: Aacute
Encoding: 193 193 2
Width: 709
GlyphClass: 2
Flags: MW
HStem: 122 145<285 407 285 455 237 407> 122 564<237 455 237 237> 475 211<344 344 344 349> 751 145<392 419 301 543>
VStem: -5 719<0 0>
LayerCount: 2
Fore
SplineSet
545 893 m 1,0,-1
 419 751 l 1,1,-1
 301 751 l 1,2,-1
 392 896 l 1,3,-1
 543 896 l 1,4,-1
 545 893 l 1,0,-1
714 0 m 1,5,-1
 496 0 l 1,6,-1
 455 122 l 1,7,-1
 237 122 l 1,8,-1
 197 0 l 1,9,-1
 -5 0 l 1,10,-1
 224 686 l 1,11,-1
 485 686 l 1,12,-1
 714 0 l 1,5,-1
344 475 m 1,13,-1
 285 267 l 1,14,-1
 407 267 l 1,15,-1
 349 475 l 1,16,-1
 344 475 l 1,13,-1
EndSplineSet
Position2: "'cpsp' Capital Spacing lookup 0 subtable" dx=5 dy=0 dh=10 dv=0
EndChar

StartChar: Abreve
Encoding: 258 258 3
Width: 709
GlyphClass: 2
Flags: MW
HStem: 122 145<285 407 285 455 237 407> 122 564<237 455 237 237> 475 211<344 344 344 349> 788 86<328.5 382 328.5 408.5>
VStem: -5 719<0 0> 163 96<906.5 912 906.5 912> 453 95<906.5 912>
LayerCount: 2
Fore
SplineSet
453 912 m 1,0,-1
 548 912 l 1,1,2
 548 868 548 868 490 828 c 128,-1,3
 432 788 432 788 355 788 c 128,-1,4
 278 788 278 788 220.5 828 c 128,-1,5
 163 868 163 868 163 912 c 1,6,-1
 259 912 l 1,7,8
 259 906 259 906 271.5 897.5 c 128,-1,9
 284 889 284 889 307 881.5 c 128,-1,10
 330 874 330 874 355 874 c 128,-1,11
 380 874 380 874 403.5 881.5 c 128,-1,12
 427 889 427 889 440 897.5 c 128,-1,13
 453 906 453 906 453 912 c 1,0,-1
714 0 m 1,14,-1
 496 0 l 1,15,-1
 455 122 l 1,16,-1
 237 122 l 1,17,-1
 197 0 l 1,18,-1
 -5 0 l 1,19,-1
 224 686 l 1,20,-1
 485 686 l 1,21,-1
 714 0 l 1,14,-1
344 475 m 1,22,-1
 285 267 l 1,23,-1
 407 267 l 1,24,-1
 349 475 l 1,25,-1
 344 475 l 1,22,-1
EndSplineSet
EndChar

StartChar: Acircumflex
Encoding: 194 194 4
Width: 709
GlyphClass: 2
Flags: MW
HStem: 122 145<285 407 285 455 237 407> 122 564<237 455 237 237> 475 211<344 344 344 349> 751 145<146 413 146 413 285 552 285 422>
VStem: -5 719<0 0>
LayerCount: 2
Fore
SplineSet
552 751 m 1,0,-1
 422 751 l 1,1,-1
 348 828 l 1,2,-1
 274 751 l 1,3,-1
 146 751 l 1,4,-1
 285 896 l 1,5,-1
 413 896 l 1,6,-1
 552 751 l 1,0,-1
714 0 m 1,7,-1
 496 0 l 1,8,-1
 455 122 l 1,9,-1
 237 122 l 1,10,-1
 197 0 l 1,11,-1
 -5 0 l 1,12,-1
 224 686 l 1,13,-1
 485 686 l 1,14,-1
 714 0 l 1,7,-1
344 475 m 1,15,-1
 285 267 l 1,16,-1
 407 267 l 1,17,-1
 349 475 l 1,18,-1
 344 475 l 1,15,-1
EndSplineSet
Position2: "'cpsp' Capital Spacing lookup 0 subtable" dx=5 dy=0 dh=10 dv=0
EndChar

StartChar: Adieresis
Encoding: 196 196 5
Width: 709
GlyphClass: 2
Flags: MW
HStem: 122 145<285 407 285 455 237 407> 122 564<237 455 237 237> 475 211<344 344 344 349> 750 147<162 314 162 314 162 382 382 534>
VStem: 162 152<750 897 750 897> 382 152<750 897 750 897>
LayerCount: 2
Fore
SplineSet
314 750 m 1,0,-1
 162 750 l 1,1,-1
 162 897 l 1,2,-1
 314 897 l 1,3,-1
 314 750 l 1,0,-1
534 750 m 1,4,-1
 382 750 l 1,5,-1
 382 897 l 1,6,-1
 534 897 l 1,7,-1
 534 750 l 1,4,-1
714 0 m 1,8,-1
 496 0 l 1,9,-1
 455 122 l 1,10,-1
 237 122 l 1,11,-1
 197 0 l 1,12,-1
 -5 0 l 1,13,-1
 224 686 l 1,14,-1
 485 686 l 1,15,-1
 714 0 l 1,8,-1
344 475 m 1,16,-1
 285 267 l 1,17,-1
 407 267 l 1,18,-1
 349 475 l 1,19,-1
 344 475 l 1,16,-1
EndSplineSet
Position2: "'cpsp' Capital Spacing lookup 0 subtable" dx=5 dy=0 dh=10 dv=0
EndChar

StartChar: Agrave
Encoding: 192 192 6
Width: 709
GlyphClass: 2
Flags: MW
HStem: 122 145<285 407 285 455 237 407> 122 564<237 455 237 237> 475 211<344 344 344 349> 750 145<297 324 173 415 297 297>
VStem: -5 719<0 0>
LayerCount: 2
Fore
SplineSet
415 750 m 1,0,-1
 297 750 l 1,1,-1
 171 892 l 1,2,-1
 173 895 l 1,3,-1
 324 895 l 1,4,-1
 415 750 l 1,0,-1
714 0 m 1,5,-1
 496 0 l 1,6,-1
 455 122 l 1,7,-1
 237 122 l 1,8,-1
 197 0 l 1,9,-1
 -5 0 l 1,10,-1
 224 686 l 1,11,-1
 485 686 l 1,12,-1
 714 0 l 1,5,-1
344 475 m 1,13,-1
 285 267 l 1,14,-1
 407 267 l 1,15,-1
 349 475 l 1,16,-1
 344 475 l 1,13,-1
EndSplineSet
Position2: "'cpsp' Capital Spacing lookup 0 subtable" dx=5 dy=0 dh=10 dv=0
EndChar

StartChar: Amacron
Encoding: 256 256 7
Width: 709
GlyphClass: 2
Flags: MW
HStem: 122 145<285 407 285 455 237 407> 122 564<237 455 237 237> 475 211<344 344 344 349> 837 74<196 514 196 514>
VStem: 196 318<837 911 837 911>
LayerCount: 2
Fore
SplineSet
514 837 m 1,0,-1
 196 837 l 1,1,-1
 196 911 l 1,2,-1
 514 911 l 1,3,-1
 514 837 l 1,0,-1
714 0 m 1,4,-1
 496 0 l 1,5,-1
 455 122 l 1,6,-1
 237 122 l 1,7,-1
 197 0 l 1,8,-1
 -5 0 l 1,9,-1
 224 686 l 1,10,-1
 485 686 l 1,11,-1
 714 0 l 1,4,-1
344 475 m 1,12,-1
 285 267 l 1,13,-1
 407 267 l 1,14,-1
 349 475 l 1,15,-1
 344 475 l 1,12,-1
EndSplineSet
EndChar

StartChar: Aogonek
Encoding: 260 260 8
Width: 709
GlyphClass: 2
Flags: MW
HStem: -143 53<625.5 630.5> 0 686<-5 485 -5 485 224 569 224 496 224 639 224 714> 122 145<285 407 285 455 237 407> 122 564<237 455 237 237> 475 211<344 349 344 344>
VStem: 515 77<-69.5 -55>
LayerCount: 2
Fore
SplineSet
703 -76 m 1,0,-1
 716 -119 l 1,1,2
 668 -143 668 -143 620 -143 c 0,3,4
 515 -143 515 -143 515 -71 c 0,5,6
 515 -36 515 -36 569 0 c 1,7,-1
 496 0 l 1,8,-1
 455 122 l 1,9,-1
 237 122 l 1,10,-1
 197 0 l 1,11,-1
 -5 0 l 1,12,-1
 224 686 l 1,13,-1
 485 686 l 1,14,-1
 714 0 l 1,15,-1
 639 0 l 1,16,17
 625 -9 625 -9 617.5 -14.5 c 128,-1,18
 610 -20 610 -20 601 -32 c 128,-1,19
 592 -44 592 -44 592 -56 c 0,20,21
 592 -90 592 -90 636 -90 c 0,22,23
 666 -90 666 -90 703 -76 c 1,0,-1
407 267 m 1,24,-1
 349 475 l 1,25,-1
 344 475 l 1,26,-1
 285 267 l 1,27,-1
 407 267 l 1,24,-1
EndSplineSet
EndChar

StartChar: Aring
Encoding: 197 197 9
Width: 709
GlyphClass: 2
Flags: MW
HStem: 122 145<285 407 285 455 237 407> 122 564<237 455 237 237> 475 211<344 344 344 349> 736 65<344.5 364 344.5 382> 871 66<344 363.5>
VStem: 253 66<825.5 845 825.5 864> 389 66<827 846.5>
LayerCount: 2
Fore
SplineSet
282.5 907.5 m 128,-1,1
 312 937 312 937 353.5 937 c 128,-1,2
 395 937 395 937 425 907.5 c 128,-1,3
 455 878 455 878 455 836.5 c 128,-1,4
 455 795 455 795 425.5 765.5 c 128,-1,5
 396 736 396 736 354 736 c 128,-1,6
 312 736 312 736 282.5 765 c 128,-1,7
 253 794 253 794 253 836 c 128,-1,0
 253 878 253 878 282.5 907.5 c 128,-1,1
378.5 861 m 128,-1,9
 368 871 368 871 353.5 871 c 128,-1,10
 339 871 339 871 329 860.5 c 128,-1,11
 319 850 319 850 319 835.5 c 128,-1,12
 319 821 319 821 329.5 811 c 128,-1,13
 340 801 340 801 354.5 801 c 128,-1,14
 369 801 369 801 379 811.5 c 128,-1,15
 389 822 389 822 389 836.5 c 128,-1,8
 389 851 389 851 378.5 861 c 128,-1,9
714 0 m 1,16,-1
 496 0 l 1,17,-1
 455 122 l 1,18,-1
 237 122 l 1,19,-1
 197 0 l 1,20,-1
 -5 0 l 1,21,-1
 224 686 l 1,22,-1
 485 686 l 1,23,-1
 714 0 l 1,16,-1
344 475 m 1,24,-1
 285 267 l 1,25,-1
 407 267 l 1,26,-1
 349 475 l 1,27,-1
 344 475 l 1,24,-1
EndSplineSet
Position2: "'cpsp' Capital Spacing lookup 0 subtable" dx=5 dy=0 dh=10 dv=0
EndChar

StartChar: Atilde
Encoding: 195 195 10
Width: 709
GlyphClass: 2
Flags: MW
HStem: 122 145<285 407 285 455 237 407> 122 564<237 455 237 237> 475 211<344 344 344 349> 750 143<126 298 126 298 227.5 468.5>
VStem: -5 719<0 0>
LayerCount: 2
Fore
SplineSet
489 893 m 1,0,-1
 570 893 l 1,1,2
 570 838 570 838 528.5 794 c 128,-1,3
 487 750 487 750 430 750 c 0,4,5
 399 750 399 750 339 770 c 2,6,-1
 297 784 l 2,7,8
 277 790 277 790 257 790 c 0,9,10
 219 790 219 790 207 750 c 1,11,-1
 126 750 l 1,12,13
 126 805 126 805 167.5 849 c 128,-1,14
 209 893 209 893 266 893 c 0,15,16
 299 893 299 893 356.5 873 c 128,-1,17
 414 853 414 853 439 853 c 0,18,19
 477 853 477 853 489 893 c 1,0,-1
714 0 m 1,20,-1
 496 0 l 1,21,-1
 455 122 l 1,22,-1
 237 122 l 1,23,-1
 197 0 l 1,24,-1
 -5 0 l 1,25,-1
 224 686 l 1,26,-1
 485 686 l 1,27,-1
 714 0 l 1,20,-1
344 475 m 1,28,-1
 285 267 l 1,29,-1
 407 267 l 1,30,-1
 349 475 l 1,31,-1
 344 475 l 1,28,-1
EndSplineSet
Position2: "'cpsp' Capital Spacing lookup 0 subtable" dx=5 dy=0 dh=10 dv=0
EndChar

StartChar: AE
Encoding: 198 198 11
Width: 1011
GlyphClass: 2
Flags: MW
HStem: 0 164<674 963 674 983> 122 145<314 436 314 463 245 436> 275 153<652 952 652 652> 528 158<603 963 603 603>
VStem: -13 996<0 0>
LayerCount: 2
Fore
SplineSet
963 528 m 1,0,-1
 603 528 l 1,1,-1
 622 428 l 1,2,-1
 952 428 l 1,3,-1
 952 275 l 1,4,-1
 652 275 l 1,5,-1
 674 164 l 1,6,-1
 963 164 l 1,7,-1
 983 0 l 1,8,-1
 487 0 l 1,9,-1
 463 122 l 1,10,-1
 245 122 l 1,11,-1
 187 0 l 1,12,-1
 -13 0 l 1,13,-1
 312 686 l 1,14,-1
 983 686 l 1,15,-1
 963 528 l 1,0,-1
402 475 m 1,16,-1
 314 267 l 1,17,-1
 436 267 l 1,18,-1
 407 475 l 1,19,-1
 402 475 l 1,16,-1
EndSplineSet
Position2: "'cpsp' Capital Spacing lookup 0 subtable" dx=5 dy=0 dh=10 dv=0
EndChar

StartChar: B
Encoding: 66 66 12
Width: 656
GlyphClass: 2
Flags: MW
HStem: 0 159<250 377 377 391 250 439> 277 146<250 365 250 365 365 377> 540 146<250 250 250 365>
VStem: 57 193<159 277 423 540> 415 198<473 490 490 504> 427 202<209 227 227 237.5 132.5 241>
LayerCount: 2
Fore
SplineSet
57 686 m 1,0,-1
 433 686 l 2,1,2
 508 686 508 686 560.5 637 c 128,-1,3
 613 588 613 588 613 518 c 0,4,5
 613 394 613 394 498 358 c 1,6,-1
 498 354 l 1,7,8
 629 324 629 324 629 183 c 0,9,10
 629 107 629 107 573.5 53.5 c 128,-1,11
 518 0 518 0 439 0 c 2,12,-1
 57 0 l 1,13,-1
 57 686 l 1,0,-1
250 540 m 1,14,-1
 250 423 l 1,15,-1
 365 423 l 2,16,17
 386 423 386 423 400.5 437.5 c 128,-1,18
 415 452 415 452 415 473 c 2,19,-1
 415 490 l 2,20,21
 415 511 415 511 400.5 525.5 c 128,-1,22
 386 540 386 540 365 540 c 2,23,-1
 250 540 l 1,14,-1
250 277 m 1,24,-1
 250 159 l 1,25,-1
 377 159 l 2,26,27
 398 159 398 159 412.5 173.5 c 128,-1,28
 427 188 427 188 427 209 c 2,29,-1
 427 227 l 2,30,31
 427 248 427 248 412.5 262.5 c 128,-1,32
 398 277 398 277 377 277 c 2,33,-1
 250 277 l 1,24,-1
EndSplineSet
Position2: "'cpsp' Capital Spacing lookup 0 subtable" dx=5 dy=0 dh=10 dv=0
EndChar

StartChar: C
Encoding: 67 67 13
Width: 683
GlyphClass: 2
Flags: MW
HStem: -10 157<261 371 357 371 371 377> 405 291<341 659 341 462> 540 156<341 357 357 362>
VStem: 31 226<290 396 396 440 219 486> 462 197<405 440 440 471.5>
AnchorPoint: "Bottom" 342 0 basechar 0
LayerCount: 2
Fore
SplineSet
341 696 m 2,0,-1
 369 696 l 2,1,2
 497 696 497 696 578 621 c 128,-1,3
 659 546 659 546 659 405 c 1,4,-1
 462 405 l 1,5,-1
 462 440 l 2,6,7
 462 486 462 486 433.5 513 c 128,-1,8
 405 540 405 540 362 540 c 2,9,-1
 357 540 l 2,10,11
 315 540 315 540 286 511 c 128,-1,12
 257 482 257 482 257 440 c 2,13,-1
 257 247 l 2,14,15
 257 205 257 205 286 176 c 128,-1,16
 315 147 315 147 357 147 c 2,17,-1
 371 147 l 2,18,19
 414 147 414 147 442.5 173.5 c 128,-1,20
 471 200 471 200 471 247 c 2,21,-1
 471 280 l 1,22,-1
 659 280 l 1,23,24
 659 147 659 147 580 68.5 c 128,-1,25
 501 -10 501 -10 377 -10 c 2,26,-1
 349 -10 l 2,27,28
 212 -10 212 -10 121.5 71 c 128,-1,29
 31 152 31 152 31 290 c 2,30,-1
 31 396 l 2,31,32
 31 528 31 528 122 612 c 128,-1,33
 213 696 213 696 341 696 c 2,0,-1
EndSplineSet
Position2: "'cpsp' Capital Spacing lookup 0 subtable" dx=5 dy=0 dh=10 dv=0
EndChar

StartChar: Cacute
Encoding: 262 262 14
Width: 683
GlyphClass: 2
Flags: MW
HStem: -10 157<261 371 357 371 371 377> 405 291<341 659 341 462> 540 156<341 357 357 362> 750 145<361 388 270 512>
VStem: 31 226<290 396 396 440 219 486> 462 197<405 440 440 471.5>
AnchorPoint: "Bottom" 342 0 basechar 0
LayerCount: 2
Fore
SplineSet
514 892 m 1,0,-1
 388 750 l 1,1,-1
 270 750 l 1,2,-1
 361 895 l 1,3,-1
 512 895 l 1,4,-1
 514 892 l 1,0,-1
341 696 m 2,5,-1
 369 696 l 2,6,7
 497 696 497 696 578 621 c 128,-1,8
 659 546 659 546 659 405 c 1,9,-1
 462 405 l 1,10,-1
 462 440 l 2,11,12
 462 486 462 486 433.5 513 c 128,-1,13
 405 540 405 540 362 540 c 2,14,-1
 357 540 l 2,15,16
 315 540 315 540 286 511 c 128,-1,17
 257 482 257 482 257 440 c 2,18,-1
 257 247 l 2,19,20
 257 205 257 205 286 176 c 128,-1,21
 315 147 315 147 357 147 c 2,22,-1
 371 147 l 2,23,24
 414 147 414 147 442.5 173.5 c 128,-1,25
 471 200 471 200 471 247 c 2,26,-1
 471 280 l 1,27,-1
 659 280 l 1,28,29
 659 147 659 147 580 68.5 c 128,-1,30
 501 -10 501 -10 377 -10 c 2,31,-1
 349 -10 l 2,32,33
 212 -10 212 -10 121.5 71 c 128,-1,34
 31 152 31 152 31 290 c 2,35,-1
 31 396 l 2,36,37
 31 528 31 528 122 612 c 128,-1,38
 213 696 213 696 341 696 c 2,5,-1
EndSplineSet
EndChar

StartChar: Ccaron
Encoding: 268 268 15
Width: 683
GlyphClass: 2
Flags: MW
HStem: -10 157<261 371 357 371 371 377> 405 291<341 659 341 462> 540 156<341 357 357 362> 750 145<139 406 139 278>
VStem: 31 226<290 396 396 440 219 486> 462 197<405 440 440 471.5>
AnchorPoint: "Bottom" 342 0 basechar 0
LayerCount: 2
Fore
SplineSet
406 750 m 1,0,-1
 278 750 l 1,1,-1
 139 895 l 1,2,-1
 269 895 l 1,3,-1
 343 818 l 1,4,-1
 417 895 l 1,5,-1
 545 895 l 1,6,-1
 406 750 l 1,0,-1
341 696 m 2,7,-1
 369 696 l 2,8,9
 497 696 497 696 578 621 c 128,-1,10
 659 546 659 546 659 405 c 1,11,-1
 462 405 l 1,12,-1
 462 440 l 2,13,14
 462 486 462 486 433.5 513 c 128,-1,15
 405 540 405 540 362 540 c 2,16,-1
 357 540 l 2,17,18
 315 540 315 540 286 511 c 128,-1,19
 257 482 257 482 257 440 c 2,20,-1
 257 247 l 2,21,22
 257 205 257 205 286 176 c 128,-1,23
 315 147 315 147 357 147 c 2,24,-1
 371 147 l 2,25,26
 414 147 414 147 442.5 173.5 c 128,-1,27
 471 200 471 200 471 247 c 2,28,-1
 471 280 l 1,29,-1
 659 280 l 1,30,31
 659 147 659 147 580 68.5 c 128,-1,32
 501 -10 501 -10 377 -10 c 2,33,-1
 349 -10 l 2,34,35
 212 -10 212 -10 121.5 71 c 128,-1,36
 31 152 31 152 31 290 c 2,37,-1
 31 396 l 2,38,39
 31 528 31 528 122 612 c 128,-1,40
 213 696 213 696 341 696 c 2,7,-1
EndSplineSet
EndChar

StartChar: Ccedilla
Encoding: 199 199 16
Width: 683
GlyphClass: 2
Flags: MW
HStem: -197 58<329.5 356 322.5 375.5> -76 59<328 346 328 349> -10 157<261 371 357 371 371 377> 405 291<341 659 341 462> 540 156<341 357 357 362>
VStem: 31 226<290 396 396 440 219 486> 384 87<-119.5 -98> 462 197<405 440 440 471.5>
LayerCount: 2
Fore
SplineSet
341 696 m 2,0,-1
 369 696 l 2,1,2
 497 696 497 696 578 621 c 128,-1,3
 659 546 659 546 659 405 c 1,4,-1
 462 405 l 1,5,-1
 462 440 l 2,6,7
 462 486 462 486 433.5 513 c 128,-1,8
 405 540 405 540 362 540 c 2,9,-1
 357 540 l 2,10,11
 315 540 315 540 286 511 c 128,-1,12
 257 482 257 482 257 440 c 2,13,-1
 257 247 l 2,14,15
 257 205 257 205 286 176 c 128,-1,16
 315 147 315 147 357 147 c 2,17,-1
 371 147 l 2,18,19
 414 147 414 147 442.5 173.5 c 128,-1,20
 471 200 471 200 471 247 c 2,21,-1
 471 280 l 1,22,-1
 659 280 l 1,23,24
 659 147 659 147 580 68.5 c 128,-1,25
 501 -10 501 -10 377 -10 c 2,26,-1
 349 -10 l 2,27,28
 212 -10 212 -10 121.5 71 c 128,-1,29
 31 152 31 152 31 290 c 2,30,-1
 31 396 l 2,31,32
 31 528 31 528 122 612 c 128,-1,33
 213 696 213 696 341 696 c 2,0,-1
328 -17 m 1,34,-1
 349 -17 l 2,35,36
 471 -17 471 -17 471 -108 c 0,37,38
 471 -142 471 -142 450 -163 c 0,39,40
 416 -197 416 -197 343 -197 c 128,-1,41
 270 -197 270 -197 227 -161 c 1,42,-1
 259 -107 l 1,43,44
 296 -139 296 -139 340 -139 c 128,-1,45
 384 -139 384 -139 384 -107.5 c 128,-1,46
 384 -76 384 -76 346 -76 c 2,47,-1
 328 -76 l 1,48,-1
 328 -17 l 1,34,-1
EndSplineSet
Position2: "'cpsp' Capital Spacing lookup 0 subtable" dx=5 dy=0 dh=10 dv=0
EndChar

StartChar: D
Encoding: 68 68 17
Width: 696
GlyphClass: 2
Flags: MW
HStem: 0 159<269 346 346 366> 530 156<269 269 269 346>
VStem: 57 212<159 530 159 686 159 686> 446 220<259 300 300 386 217 430 217 458>
LayerCount: 2
Fore
SplineSet
57 686 m 1,0,-1
 366 686 l 2,1,2
 490 686 490 686 578 598 c 128,-1,3
 666 510 666 510 666 386 c 2,4,-1
 666 300 l 2,5,6
 666 176 666 176 578 88 c 128,-1,7
 490 0 490 0 366 0 c 2,8,-1
 57 0 l 1,9,-1
 57 686 l 1,0,-1
269 530 m 1,10,-1
 269 159 l 1,11,-1
 346 159 l 2,12,13
 388 159 388 159 417 188 c 128,-1,14
 446 217 446 217 446 259 c 2,15,-1
 446 430 l 2,16,17
 446 472 446 472 417 501 c 128,-1,18
 388 530 388 530 346 530 c 2,19,-1
 269 530 l 1,10,-1
EndSplineSet
Position2: "'cpsp' Capital Spacing lookup 0 subtable" dx=5 dy=0 dh=10 dv=0
EndChar

StartChar: Eth
Encoding: 208 208 18
Width: 721
GlyphClass: 2
Flags: MW
HStem: 0 159<292 372 372 392> 297 94<7 83 7 83 292 371> 530 156<292 292 292 372>
VStem: 83 209<159 297 159 297 159 297 391 530> 472 218<259 300 300 386 217 430 217 458>
LayerCount: 2
Fore
SplineSet
83 686 m 1,0,-1
 392 686 l 2,1,2
 516 686 516 686 603 598.5 c 128,-1,3
 690 511 690 511 690 386 c 2,4,-1
 690 300 l 2,5,6
 690 175 690 175 603 87.5 c 128,-1,7
 516 0 516 0 392 0 c 2,8,-1
 83 0 l 1,9,-1
 83 297 l 1,10,-1
 7 297 l 1,11,-1
 7 391 l 1,12,-1
 83 391 l 1,13,-1
 83 686 l 1,0,-1
292 530 m 1,14,-1
 292 391 l 1,15,-1
 371 391 l 1,16,-1
 371 297 l 1,17,-1
 292 297 l 1,18,-1
 292 159 l 1,19,-1
 372 159 l 2,20,21
 414 159 414 159 443 188 c 128,-1,22
 472 217 472 217 472 259 c 2,23,-1
 472 430 l 2,24,25
 472 472 472 472 443 501 c 128,-1,26
 414 530 414 530 372 530 c 2,27,-1
 292 530 l 1,14,-1
EndSplineSet
Position2: "'cpsp' Capital Spacing lookup 0 subtable" dx=5 dy=0 dh=10 dv=0
EndChar

StartChar: Dcaron
Encoding: 270 270 19
Width: 696
GlyphClass: 2
Flags: MW
HStem: 0 159<269 346 346 366> 530 156<269 269 269 346> 750 145<145 412 145 284>
VStem: 57 212<159 530 159 686 159 686> 446 220<259 300 300 386 217 430 217 458>
LayerCount: 2
Fore
SplineSet
412 750 m 1,0,-1
 284 750 l 1,1,-1
 145 895 l 1,2,-1
 275 895 l 1,3,-1
 349 818 l 1,4,-1
 423 895 l 1,5,-1
 551 895 l 1,6,-1
 412 750 l 1,0,-1
57 686 m 1,7,-1
 366 686 l 2,8,9
 490 686 490 686 578 598 c 128,-1,10
 666 510 666 510 666 386 c 2,11,-1
 666 300 l 2,12,13
 666 176 666 176 578 88 c 128,-1,14
 490 0 490 0 366 0 c 2,15,-1
 57 0 l 1,16,-1
 57 686 l 1,7,-1
269 530 m 1,17,-1
 269 159 l 1,18,-1
 346 159 l 2,19,20
 388 159 388 159 417 188 c 128,-1,21
 446 217 446 217 446 259 c 2,22,-1
 446 430 l 2,23,24
 446 472 446 472 417 501 c 128,-1,25
 388 530 388 530 346 530 c 2,26,-1
 269 530 l 1,17,-1
EndSplineSet
EndChar

StartChar: Dcroat
Encoding: 272 272 20
Width: 721
GlyphClass: 2
Flags: MW
HStem: 0 159<292 372 372 392> 297 94<7 83 7 83 292 371> 530 156<292 292 292 372>
VStem: 83 209<159 297 159 297 159 297 391 530> 472 218<259 300 300 386 217 430 217 458>
LayerCount: 2
Fore
SplineSet
83 686 m 1,0,-1
 392 686 l 2,1,2
 516 686 516 686 603 598.5 c 128,-1,3
 690 511 690 511 690 386 c 2,4,-1
 690 300 l 2,5,6
 690 175 690 175 603 87.5 c 128,-1,7
 516 0 516 0 392 0 c 2,8,-1
 83 0 l 1,9,-1
 83 297 l 1,10,-1
 7 297 l 1,11,-1
 7 391 l 1,12,-1
 83 391 l 1,13,-1
 83 686 l 1,0,-1
292 530 m 1,14,-1
 292 391 l 1,15,-1
 371 391 l 1,16,-1
 371 297 l 1,17,-1
 292 297 l 1,18,-1
 292 159 l 1,19,-1
 372 159 l 2,20,21
 414 159 414 159 443 188 c 128,-1,22
 472 217 472 217 472 259 c 2,23,-1
 472 430 l 2,24,25
 472 472 472 472 443 501 c 128,-1,26
 414 530 414 530 372 530 c 2,27,-1
 292 530 l 1,14,-1
EndSplineSet
EndChar

StartChar: E
Encoding: 69 69 21
Width: 600
GlyphClass: 2
Flags: MW
HStem: 0 164<263 552 263 572> 275 153<263 541 263 541> 528 158<263 552 263 263>
VStem: 57 206<164 275 428 528>
AnchorPoint: "Bottom" 300 0 basechar 0
LayerCount: 2
Fore
SplineSet
552 528 m 1,0,-1
 263 528 l 1,1,-1
 263 428 l 1,2,-1
 541 428 l 1,3,-1
 541 275 l 1,4,-1
 263 275 l 1,5,-1
 263 164 l 1,6,-1
 552 164 l 1,7,-1
 572 0 l 1,8,-1
 57 0 l 1,9,-1
 57 686 l 1,10,-1
 572 686 l 1,11,-1
 552 528 l 1,0,-1
EndSplineSet
Position2: "'cpsp' Capital Spacing lookup 0 subtable" dx=5 dy=0 dh=10 dv=0
EndChar

StartChar: Eacute
Encoding: 201 201 22
Width: 600
GlyphClass: 2
Flags: MW
HStem: 0 164<263 552 263 572> 275 153<263 541 263 541> 528 158<263 552 263 263> 750 145<341 368 250 492>
VStem: 57 206<164 275 428 528>
LayerCount: 2
Fore
SplineSet
494 892 m 1,0,-1
 368 750 l 1,1,-1
 250 750 l 1,2,-1
 341 895 l 1,3,-1
 492 895 l 1,4,-1
 494 892 l 1,0,-1
552 528 m 1,5,-1
 263 528 l 1,6,-1
 263 428 l 1,7,-1
 541 428 l 1,8,-1
 541 275 l 1,9,-1
 263 275 l 1,10,-1
 263 164 l 1,11,-1
 552 164 l 1,12,-1
 572 0 l 1,13,-1
 57 0 l 1,14,-1
 57 686 l 1,15,-1
 572 686 l 1,16,-1
 552 528 l 1,5,-1
EndSplineSet
Position2: "'cpsp' Capital Spacing lookup 0 subtable" dx=5 dy=0 dh=10 dv=0
EndChar

StartChar: Ecaron
Encoding: 282 282 23
Width: 600
GlyphClass: 2
Flags: MW
HStem: 0 164<263 552 263 572> 275 153<263 541 263 541> 528 158<263 552 263 263> 750 145<97 364 97 236>
VStem: 57 206<164 275 428 528>
AnchorPoint: "Bottom" 300 0 basechar 0
LayerCount: 2
Fore
SplineSet
364 750 m 1,0,-1
 236 750 l 1,1,-1
 97 895 l 1,2,-1
 227 895 l 1,3,-1
 301 818 l 1,4,-1
 375 895 l 1,5,-1
 503 895 l 1,6,-1
 364 750 l 1,0,-1
552 528 m 1,7,-1
 263 528 l 1,8,-1
 263 428 l 1,9,-1
 541 428 l 1,10,-1
 541 275 l 1,11,-1
 263 275 l 1,12,-1
 263 164 l 1,13,-1
 552 164 l 1,14,-1
 572 0 l 1,15,-1
 57 0 l 1,16,-1
 57 686 l 1,17,-1
 572 686 l 1,18,-1
 552 528 l 1,7,-1
EndSplineSet
EndChar

StartChar: Ecircumflex
Encoding: 202 202 24
Width: 600
GlyphClass: 2
Flags: MW
HStem: 0 164<263 552 263 572> 275 153<263 541 263 541> 528 158<263 552 263 263> 751 145<112 379 112 379 251 518 251 388>
VStem: 57 206<164 275 428 528>
LayerCount: 2
Fore
SplineSet
518 751 m 1,0,-1
 388 751 l 1,1,-1
 314 828 l 1,2,-1
 240 751 l 1,3,-1
 112 751 l 1,4,-1
 251 896 l 1,5,-1
 379 896 l 1,6,-1
 518 751 l 1,0,-1
552 528 m 1,7,-1
 263 528 l 1,8,-1
 263 428 l 1,9,-1
 541 428 l 1,10,-1
 541 275 l 1,11,-1
 263 275 l 1,12,-1
 263 164 l 1,13,-1
 552 164 l 1,14,-1
 572 0 l 1,15,-1
 57 0 l 1,16,-1
 57 686 l 1,17,-1
 572 686 l 1,18,-1
 552 528 l 1,7,-1
EndSplineSet
Position2: "'cpsp' Capital Spacing lookup 0 subtable" dx=5 dy=0 dh=10 dv=0
EndChar

StartChar: Edieresis
Encoding: 203 203 25
Width: 600
GlyphClass: 2
Flags: MW
HStem: 0 164<263 552 263 572> 275 153<263 541 263 541> 528 158<263 552 263 263> 751 147<125 277 125 277 125 345 345 497>
VStem: 57 206<164 275 428 528> 125 152<751 898 751 898> 345 152<751 898 751 898>
LayerCount: 2
Fore
SplineSet
277 751 m 1,0,-1
 125 751 l 1,1,-1
 125 898 l 1,2,-1
 277 898 l 1,3,-1
 277 751 l 1,0,-1
497 751 m 1,4,-1
 345 751 l 1,5,-1
 345 898 l 1,6,-1
 497 898 l 1,7,-1
 497 751 l 1,4,-1
552 528 m 1,8,-1
 263 528 l 1,9,-1
 263 428 l 1,10,-1
 541 428 l 1,11,-1
 541 275 l 1,12,-1
 263 275 l 1,13,-1
 263 164 l 1,14,-1
 552 164 l 1,15,-1
 572 0 l 1,16,-1
 57 0 l 1,17,-1
 57 686 l 1,18,-1
 572 686 l 1,19,-1
 552 528 l 1,8,-1
EndSplineSet
Position2: "'cpsp' Capital Spacing lookup 0 subtable" dx=5 dy=0 dh=10 dv=0
EndChar

StartChar: Edotaccent
Encoding: 278 278 26
Width: 600
GlyphClass: 2
Flags: MW
HStem: 0 164<263 552 263 572> 275 153<263 541 263 541> 528 158<263 552 263 263> 779 132<281.5 317.5>
VStem: 57 206<164 275 428 528> 234 132<827 863 825.5 863.5>
AnchorPoint: "Bottom" 300 0 basechar 0
LayerCount: 2
Fore
SplineSet
300 911 m 128,-1,1
 328 911 328 911 347 891.5 c 128,-1,2
 366 872 366 872 366 844 c 0,3,4
 366 816 366 816 346.5 797.5 c 128,-1,5
 327 779 327 779 300 779 c 0,6,7
 273 779 273 779 253.5 798.5 c 128,-1,8
 234 818 234 818 234 845.5 c 0,9,10
 234 873 234 873 253 892 c 128,-1,0
 272 911 272 911 300 911 c 128,-1,1
552 528 m 1,11,-1
 263 528 l 1,12,-1
 263 428 l 1,13,-1
 541 428 l 1,14,-1
 541 275 l 1,15,-1
 263 275 l 1,16,-1
 263 164 l 1,17,-1
 552 164 l 1,18,-1
 572 0 l 1,19,-1
 57 0 l 1,20,-1
 57 686 l 1,21,-1
 572 686 l 1,22,-1
 552 528 l 1,11,-1
EndSplineSet
EndChar

StartChar: Egrave
Encoding: 200 200 27
Width: 600
GlyphClass: 2
Flags: MW
HStem: 0 164<263 552 263 572> 275 153<263 541 263 541> 528 158<263 552 263 263> 751 145<273 300 149 391 273 273>
VStem: 57 206<164 275 428 528>
LayerCount: 2
Fore
SplineSet
391 751 m 1,0,-1
 273 751 l 1,1,-1
 147 893 l 1,2,-1
 149 896 l 1,3,-1
 300 896 l 1,4,-1
 391 751 l 1,0,-1
552 528 m 1,5,-1
 263 528 l 1,6,-1
 263 428 l 1,7,-1
 541 428 l 1,8,-1
 541 275 l 1,9,-1
 263 275 l 1,10,-1
 263 164 l 1,11,-1
 552 164 l 1,12,-1
 572 0 l 1,13,-1
 57 0 l 1,14,-1
 57 686 l 1,15,-1
 572 686 l 1,16,-1
 552 528 l 1,5,-1
EndSplineSet
Position2: "'cpsp' Capital Spacing lookup 0 subtable" dx=5 dy=0 dh=10 dv=0
EndChar

StartChar: Emacron
Encoding: 274 274 28
Width: 600
GlyphClass: 2
Flags: MW
HStem: 0 164<263 552 263 572> 275 153<263 541 263 541> 528 158<263 552 263 263> 837 74<141 459 141 459>
VStem: 57 206<164 275 428 528> 141 318<837 911 837 911>
AnchorPoint: "Bottom" 300 0 basechar 0
LayerCount: 2
Fore
SplineSet
459 837 m 1,0,-1
 141 837 l 1,1,-1
 141 911 l 1,2,-1
 459 911 l 1,3,-1
 459 837 l 1,0,-1
552 528 m 1,4,-1
 263 528 l 1,5,-1
 263 428 l 1,6,-1
 541 428 l 1,7,-1
 541 275 l 1,8,-1
 263 275 l 1,9,-1
 263 164 l 1,10,-1
 552 164 l 1,11,-1
 572 0 l 1,12,-1
 57 0 l 1,13,-1
 57 686 l 1,14,-1
 572 686 l 1,15,-1
 552 528 l 1,4,-1
EndSplineSet
EndChar

StartChar: Eogonek
Encoding: 280 280 29
Width: 600
GlyphClass: 2
Flags: MW
HStem: -143 53<527.5 532.5> 0 164<263 471 541 541 541 552 263 572> 275 153<263 541 263 541> 528 158<263 552 263 263>
VStem: 57 206<164 275 428 528> 417 77<-69.5 -55>
AnchorPoint: "Bottom" 300 0 basechar 0
LayerCount: 2
Fore
SplineSet
605 -76 m 1,0,-1
 618 -119 l 1,1,2
 570 -143 570 -143 522 -143 c 0,3,4
 417 -143 417 -143 417 -71 c 0,5,6
 417 -36 417 -36 471 0 c 1,7,-1
 57 0 l 1,8,-1
 57 686 l 1,9,-1
 572 686 l 1,10,-1
 552 528 l 1,11,-1
 263 528 l 1,12,-1
 263 428 l 1,13,-1
 541 428 l 1,14,-1
 541 275 l 1,15,-1
 263 275 l 1,16,-1
 263 164 l 1,17,-1
 552 164 l 1,18,-1
 572 0 l 1,19,-1
 541 0 l 1,20,21
 527 -9 527 -9 519.5 -14.5 c 128,-1,22
 512 -20 512 -20 503 -32 c 128,-1,23
 494 -44 494 -44 494 -56 c 0,24,25
 494 -90 494 -90 538 -90 c 0,26,27
 568 -90 568 -90 605 -76 c 1,0,-1
EndSplineSet
EndChar

StartChar: F
Encoding: 70 70 30
Width: 562
GlyphClass: 2
Flags: MW
HStem: 257 154<262 514 262 514> 523 163<262 533 262 262>
VStem: 57 205<0 257 411 523>
LayerCount: 2
Fore
SplineSet
533 523 m 1,0,-1
 262 523 l 1,1,-1
 262 411 l 1,2,-1
 514 411 l 1,3,-1
 514 257 l 1,4,-1
 262 257 l 1,5,-1
 262 0 l 1,6,-1
 57 0 l 1,7,-1
 57 686 l 1,8,-1
 553 686 l 1,9,-1
 533 523 l 1,0,-1
EndSplineSet
Position2: "'cpsp' Capital Spacing lookup 0 subtable" dx=5 dy=0 dh=10 dv=0
EndChar

StartChar: G
Encoding: 71 71 31
Width: 699
GlyphClass: 2
Flags: MW
HStem: -10 157<234.5 375 317 375> 248 136<346 462 346 656> 439 257<350 656 350 462> 540 156<350 357 357 362>
VStem: 31 226<290 396 396 440 219 479> 462 194<216.5 248 439 446>
AnchorPoint: "Bottom" 350 0 basechar 0
LayerCount: 2
Fore
SplineSet
350 696 m 2,0,-1
 378 696 l 2,1,2
 492 696 492 696 574 625 c 128,-1,3
 656 554 656 554 656 446 c 2,4,-1
 656 439 l 1,5,-1
 462 439 l 1,6,7
 462 490 462 490 434 515 c 128,-1,8
 406 540 406 540 362 540 c 2,9,-1
 357 540 l 2,10,11
 315 540 315 540 286 511 c 128,-1,12
 257 482 257 482 257 440 c 2,13,-1
 257 247 l 2,14,15
 257 205 257 205 286 176 c 128,-1,16
 315 147 315 147 357 147 c 2,17,-1
 375 147 l 2,18,19
 417 147 417 147 439.5 173.5 c 128,-1,20
 462 200 462 200 462 248 c 1,21,-1
 346 248 l 1,22,-1
 346 384 l 1,23,-1
 656 384 l 1,24,-1
 656 144 l 2,25,26
 656 65 656 65 659 40 c 2,27,-1
 663 0 l 1,28,-1
 551 0 l 1,29,-1
 523 73 l 1,30,31
 491 37 491 37 436.5 13.5 c 128,-1,32
 382 -10 382 -10 327 -10 c 2,33,-1
 317 -10 l 2,34,35
 194 -10 194 -10 112.5 77 c 128,-1,36
 31 164 31 164 31 290 c 2,37,-1
 31 396 l 2,38,39
 31 522 31 522 121 609 c 128,-1,40
 211 696 211 696 350 696 c 2,0,-1
EndSplineSet
Position2: "'cpsp' Capital Spacing lookup 0 subtable" dx=5 dy=0 dh=10 dv=0
EndChar

StartChar: Gbreve
Encoding: 286 286 32
Width: 699
GlyphClass: 2
Flags: MW
HStem: -10 157<234.5 375 317 375> 248 136<346 462 346 656> 439 257<350 656 350 462> 439 473<462 543 158 656 462 462> 540 156<350 357 357 362> 788 86<323.5 377 323.5 403.5>
VStem: 31 226<290 396 396 440 219 479> 158 96<906.5 912 906.5 912> 448 95<906.5 912> 462 194<216.5 248 439 446>
AnchorPoint: "Bottom" 350 0 basechar 0
LayerCount: 2
Fore
SplineSet
448 912 m 1,0,-1
 543 912 l 1,1,2
 543 868 543 868 485 828 c 128,-1,3
 427 788 427 788 350 788 c 128,-1,4
 273 788 273 788 215.5 828 c 128,-1,5
 158 868 158 868 158 912 c 1,6,-1
 254 912 l 1,7,8
 254 906 254 906 266.5 897.5 c 128,-1,9
 279 889 279 889 302 881.5 c 128,-1,10
 325 874 325 874 350 874 c 128,-1,11
 375 874 375 874 398.5 881.5 c 128,-1,12
 422 889 422 889 435 897.5 c 128,-1,13
 448 906 448 906 448 912 c 1,0,-1
350 696 m 2,14,-1
 378 696 l 2,15,16
 492 696 492 696 574 625 c 128,-1,17
 656 554 656 554 656 446 c 2,18,-1
 656 439 l 1,19,-1
 462 439 l 1,20,21
 462 490 462 490 434 515 c 128,-1,22
 406 540 406 540 362 540 c 2,23,-1
 357 540 l 2,24,25
 315 540 315 540 286 511 c 128,-1,26
 257 482 257 482 257 440 c 2,27,-1
 257 247 l 2,28,29
 257 205 257 205 286 176 c 128,-1,30
 315 147 315 147 357 147 c 2,31,-1
 375 147 l 2,32,33
 417 147 417 147 439.5 173.5 c 128,-1,34
 462 200 462 200 462 248 c 1,35,-1
 346 248 l 1,36,-1
 346 384 l 1,37,-1
 656 384 l 1,38,-1
 656 144 l 2,39,40
 656 65 656 65 659 40 c 2,41,-1
 663 0 l 1,42,-1
 551 0 l 1,43,-1
 523 73 l 1,44,45
 491 37 491 37 436.5 13.5 c 128,-1,46
 382 -10 382 -10 327 -10 c 2,47,-1
 317 -10 l 2,48,49
 194 -10 194 -10 112.5 77 c 128,-1,50
 31 164 31 164 31 290 c 2,51,-1
 31 396 l 2,52,53
 31 522 31 522 121 609 c 128,-1,54
 211 696 211 696 350 696 c 2,14,-1
EndSplineSet
EndChar

StartChar: Gcommaaccent
Encoding: 290 290 33
Width: 699
GlyphClass: 2
Flags: MW
HStem: -171 151<254 339 254 445> -10 157<234.5 375 317 375> 248 136<346 462 346 656> 439 257<350 656 350 462> 540 156<350 357 357 362>
VStem: 31 226<290 396 396 440 219 479> 254 191<-139 -139 -139 -20 -139 -20> 462 194<216.5 248 439 446>
AnchorPoint: "Bottom" 350 0 basechar 0
LayerCount: 2
Fore
SplineSet
350 696 m 2,0,-1
 378 696 l 2,1,2
 492 696 492 696 574 625 c 128,-1,3
 656 554 656 554 656 446 c 2,4,-1
 656 439 l 1,5,-1
 462 439 l 1,6,7
 462 490 462 490 434 515 c 128,-1,8
 406 540 406 540 362 540 c 2,9,-1
 357 540 l 2,10,11
 315 540 315 540 286 511 c 128,-1,12
 257 482 257 482 257 440 c 2,13,-1
 257 247 l 2,14,15
 257 205 257 205 286 176 c 128,-1,16
 315 147 315 147 357 147 c 2,17,-1
 375 147 l 2,18,19
 417 147 417 147 439.5 173.5 c 128,-1,20
 462 200 462 200 462 248 c 1,21,-1
 346 248 l 1,22,-1
 346 384 l 1,23,-1
 656 384 l 1,24,-1
 656 144 l 2,25,26
 656 65 656 65 659 40 c 2,27,-1
 663 0 l 1,28,-1
 551 0 l 1,29,-1
 523 73 l 1,30,31
 491 37 491 37 436.5 13.5 c 128,-1,32
 382 -10 382 -10 327 -10 c 2,33,-1
 317 -10 l 2,34,35
 194 -10 194 -10 112.5 77 c 128,-1,36
 31 164 31 164 31 290 c 2,37,-1
 31 396 l 2,38,39
 31 522 31 522 121 609 c 128,-1,40
 211 696 211 696 350 696 c 2,0,-1
445 -139 m 1,41,-1
 417 -250 l 1,42,-1
 323 -250 l 1,43,-1
 339 -171 l 1,44,-1
 254 -171 l 1,45,-1
 254 -20 l 1,46,-1
 445 -20 l 1,47,-1
 445 -139 l 1,41,-1
EndSplineSet
EndChar

StartChar: H
Encoding: 72 72 34
Width: 697
GlyphClass: 2
Flags: MW
HStem: 267 166<268 429 267 430 268 268> 267 419<429 430 57 268>
VStem: 57 210<433 686 433 686 433 686> 430 210<0 267 267 267>
LayerCount: 2
Fore
SplineSet
640 0 m 1,0,-1
 430 0 l 1,1,-1
 430 267 l 1,2,-1
 268 267 l 1,3,-1
 268 0 l 1,4,-1
 57 0 l 1,5,-1
 57 686 l 1,6,-1
 267 686 l 1,7,-1
 267 433 l 1,8,-1
 429 433 l 1,9,-1
 429 686 l 1,10,-1
 640 686 l 1,11,-1
 640 0 l 1,0,-1
EndSplineSet
Position2: "'cpsp' Capital Spacing lookup 0 subtable" dx=5 dy=0 dh=10 dv=0
EndChar

StartChar: I
Encoding: 73 73 35
Width: 446
GlyphClass: 2
Flags: MW
HStem: 0 148<36 117 329 410 36 117> 539 147<36 117 36 410 329 410 329 329>
VStem: 117 212<148 539 148 539>
LayerCount: 2
Fore
SplineSet
410 539 m 1,0,-1
 329 539 l 1,1,-1
 329 148 l 1,2,-1
 410 148 l 1,3,-1
 410 0 l 1,4,-1
 36 0 l 1,5,-1
 36 148 l 1,6,-1
 117 148 l 1,7,-1
 117 539 l 1,8,-1
 36 539 l 1,9,-1
 36 686 l 1,10,-1
 410 686 l 1,11,-1
 410 539 l 1,0,-1
EndSplineSet
Position2: "'cpsp' Capital Spacing lookup 0 subtable" dx=5 dy=0 dh=10 dv=0
EndChar

StartChar: Iacute
Encoding: 205 205 36
Width: 446
GlyphClass: 2
Flags: MW
HStem: 0 148<36 117 329 410 36 117> 539 147<36 117 36 410 329 410 329 329> 750 145<253 280 162 404>
VStem: 117 212<148 539 148 539>
LayerCount: 2
Fore
SplineSet
406 892 m 1,0,-1
 280 750 l 1,1,-1
 162 750 l 1,2,-1
 253 895 l 1,3,-1
 404 895 l 1,4,-1
 406 892 l 1,0,-1
410 539 m 1,5,-1
 329 539 l 1,6,-1
 329 148 l 1,7,-1
 410 148 l 1,8,-1
 410 0 l 1,9,-1
 36 0 l 1,10,-1
 36 148 l 1,11,-1
 117 148 l 1,12,-1
 117 539 l 1,13,-1
 36 539 l 1,14,-1
 36 686 l 1,15,-1
 410 686 l 1,16,-1
 410 539 l 1,5,-1
EndSplineSet
Position2: "'cpsp' Capital Spacing lookup 0 subtable" dx=5 dy=0 dh=10 dv=0
EndChar

StartChar: Icircumflex
Encoding: 206 206 37
Width: 446
GlyphClass: 2
Flags: MW
HStem: 0 148<36 117 329 410 36 117> 539 147<36 117 36 410 329 410 329 329> 750 145<21 288 21 288 160 427 160 297>
VStem: 117 212<148 539 148 539>
LayerCount: 2
Fore
SplineSet
427 750 m 1,0,-1
 297 750 l 1,1,-1
 223 827 l 1,2,-1
 149 750 l 1,3,-1
 21 750 l 1,4,-1
 160 895 l 1,5,-1
 288 895 l 1,6,-1
 427 750 l 1,0,-1
410 539 m 1,7,-1
 329 539 l 1,8,-1
 329 148 l 1,9,-1
 410 148 l 1,10,-1
 410 0 l 1,11,-1
 36 0 l 1,12,-1
 36 148 l 1,13,-1
 117 148 l 1,14,-1
 117 539 l 1,15,-1
 36 539 l 1,16,-1
 36 686 l 1,17,-1
 410 686 l 1,18,-1
 410 539 l 1,7,-1
EndSplineSet
Position2: "'cpsp' Capital Spacing lookup 0 subtable" dx=5 dy=0 dh=10 dv=0
EndChar

StartChar: Idieresis
Encoding: 207 207 38
Width: 446
GlyphClass: 2
Flags: MW
HStem: 0 148<36 117 329 410 36 117> 539 147<36 117 36 410 329 410 329 329> 750 147<37 189 37 189 37 257 257 409>
VStem: 37 152<750 897 750 897> 117 212<148 539 148 539> 257 152<750 897 750 897>
LayerCount: 2
Fore
SplineSet
189 750 m 1,0,-1
 37 750 l 1,1,-1
 37 897 l 1,2,-1
 189 897 l 1,3,-1
 189 750 l 1,0,-1
409 750 m 1,4,-1
 257 750 l 1,5,-1
 257 897 l 1,6,-1
 409 897 l 1,7,-1
 409 750 l 1,4,-1
410 539 m 1,8,-1
 329 539 l 1,9,-1
 329 148 l 1,10,-1
 410 148 l 1,11,-1
 410 0 l 1,12,-1
 36 0 l 1,13,-1
 36 148 l 1,14,-1
 117 148 l 1,15,-1
 117 539 l 1,16,-1
 36 539 l 1,17,-1
 36 686 l 1,18,-1
 410 686 l 1,19,-1
 410 539 l 1,8,-1
EndSplineSet
Position2: "'cpsp' Capital Spacing lookup 0 subtable" dx=5 dy=0 dh=10 dv=0
EndChar

StartChar: Idotaccent
Encoding: 304 304 39
Width: 446
GlyphClass: 2
Flags: MW
HStem: 0 148<36 117 329 410 36 117> 539 147<36 117 36 410 329 410 329 329> 779 132<204.5 240.5>
VStem: 117 212<148 539 148 539> 157 132<827 863 825.5 863.5>
LayerCount: 2
Fore
SplineSet
223 911 m 128,-1,1
 251 911 251 911 270 891.5 c 128,-1,2
 289 872 289 872 289 844 c 0,3,4
 289 816 289 816 269.5 797.5 c 128,-1,5
 250 779 250 779 223 779 c 0,6,7
 196 779 196 779 176.5 798.5 c 128,-1,8
 157 818 157 818 157 845.5 c 0,9,10
 157 873 157 873 176 892 c 128,-1,0
 195 911 195 911 223 911 c 128,-1,1
410 539 m 1,11,-1
 329 539 l 1,12,-1
 329 148 l 1,13,-1
 410 148 l 1,14,-1
 410 0 l 1,15,-1
 36 0 l 1,16,-1
 36 148 l 1,17,-1
 117 148 l 1,18,-1
 117 539 l 1,19,-1
 36 539 l 1,20,-1
 36 686 l 1,21,-1
 410 686 l 1,22,-1
 410 539 l 1,11,-1
EndSplineSet
EndChar

StartChar: Igrave
Encoding: 204 204 40
Width: 446
GlyphClass: 2
Flags: MW
HStem: 0 148<36 117 329 410 36 117> 539 147<36 117 36 410 329 410 329 329> 750 145<163 190 39 281 163 163>
VStem: 117 212<148 539 148 539>
LayerCount: 2
Fore
SplineSet
281 750 m 1,0,-1
 163 750 l 1,1,-1
 37 892 l 1,2,-1
 39 895 l 1,3,-1
 190 895 l 1,4,-1
 281 750 l 1,0,-1
410 539 m 1,5,-1
 329 539 l 1,6,-1
 329 148 l 1,7,-1
 410 148 l 1,8,-1
 410 0 l 1,9,-1
 36 0 l 1,10,-1
 36 148 l 1,11,-1
 117 148 l 1,12,-1
 117 539 l 1,13,-1
 36 539 l 1,14,-1
 36 686 l 1,15,-1
 410 686 l 1,16,-1
 410 539 l 1,5,-1
EndSplineSet
Position2: "'cpsp' Capital Spacing lookup 0 subtable" dx=5 dy=0 dh=10 dv=0
EndChar

StartChar: Imacron
Encoding: 298 298 41
Width: 446
GlyphClass: 2
Flags: MW
HStem: 0 148<36 117 329 410 36 117> 539 147<36 117 36 410 329 410 329 329> 837 74<64 382 64 382>
VStem: 64 318<837 911 837 911> 117 212<148 539 148 539>
LayerCount: 2
Fore
SplineSet
382 837 m 1,0,-1
 64 837 l 1,1,-1
 64 911 l 1,2,-1
 382 911 l 1,3,-1
 382 837 l 1,0,-1
410 539 m 1,4,-1
 329 539 l 1,5,-1
 329 148 l 1,6,-1
 410 148 l 1,7,-1
 410 0 l 1,8,-1
 36 0 l 1,9,-1
 36 148 l 1,10,-1
 117 148 l 1,11,-1
 117 539 l 1,12,-1
 36 539 l 1,13,-1
 36 686 l 1,14,-1
 410 686 l 1,15,-1
 410 539 l 1,4,-1
EndSplineSet
EndChar

StartChar: Iogonek
Encoding: 302 302 42
Width: 446
GlyphClass: 2
Flags: MW
HStem: -143 53<388.5 393.5> 0 148<36 117 329 332 36 117 402 402 402 410> 539 147<36 117 36 410 329 329 329 410>
VStem: 117 212<148 539 148 539> 278 77<-69.5 -55>
LayerCount: 2
Fore
SplineSet
466 -76 m 1,0,-1
 479 -119 l 1,1,2
 431 -143 431 -143 383 -143 c 0,3,4
 278 -143 278 -143 278 -71 c 0,5,6
 278 -36 278 -36 332 0 c 1,7,-1
 36 0 l 1,8,-1
 36 148 l 1,9,-1
 117 148 l 1,10,-1
 117 539 l 1,11,-1
 36 539 l 1,12,-1
 36 686 l 1,13,-1
 410 686 l 1,14,-1
 410 539 l 1,15,-1
 329 539 l 1,16,-1
 329 148 l 1,17,-1
 410 148 l 1,18,-1
 410 0 l 1,19,-1
 402 0 l 1,20,21
 388 -9 388 -9 380.5 -14.5 c 128,-1,22
 373 -20 373 -20 364 -32 c 128,-1,23
 355 -44 355 -44 355 -56 c 0,24,25
 355 -90 355 -90 399 -90 c 0,26,27
 429 -90 429 -90 466 -76 c 1,0,-1
EndSplineSet
EndChar

StartChar: J
Encoding: 74 74 43
Width: 545
GlyphClass: 2
Flags: MW
HStem: -10 258<163.5 204 11 231 11 262> 666 20G<287 492 492 492>
VStem: 11 193<180 186 186 248 172 248> 287 205<186 686>
LayerCount: 2
Fore
SplineSet
492 686 m 1,0,-1
 492 180 l 2,1,2
 492 89 492 89 429 39.5 c 128,-1,3
 366 -10 366 -10 262 -10 c 2,4,-1
 231 -10 l 2,5,6
 128 -10 128 -10 69.5 39.5 c 128,-1,7
 11 89 11 89 11 180 c 2,8,-1
 11 248 l 1,9,-1
 204 248 l 1,10,-1
 204 186 l 2,11,12
 204 165 204 165 215.5 152.5 c 128,-1,13
 227 140 227 140 245 140 c 128,-1,14
 263 140 263 140 275 152.5 c 128,-1,15
 287 165 287 165 287 186 c 2,16,-1
 287 686 l 1,17,-1
 492 686 l 1,0,-1
EndSplineSet
Position2: "'cpsp' Capital Spacing lookup 0 subtable" dx=5 dy=0 dh=10 dv=0
EndChar

StartChar: K
Encoding: 75 75 44
Width: 685
GlyphClass: 2
Flags: MW
HStem: 0 686<57 261 57 261 460 689 57 695 460 460>
VStem: 57 204<0 152 415 686>
AnchorPoint: "Bottom" 343 0 basechar 0
LayerCount: 2
Fore
SplineSet
480 411 m 1,0,-1
 695 0 l 1,1,-1
 460 0 l 1,2,-1
 341 248 l 1,3,-1
 261 152 l 1,4,-1
 261 0 l 1,5,-1
 57 0 l 1,6,-1
 57 686 l 1,7,-1
 261 686 l 1,8,-1
 261 415 l 1,9,-1
 457 686 l 1,10,-1
 689 686 l 1,11,-1
 480 411 l 1,0,-1
EndSplineSet
Position2: "'cpsp' Capital Spacing lookup 0 subtable" dx=5 dy=0 dh=10 dv=0
EndChar

StartChar: Kcommaaccent
Encoding: 310 310 45
Width: 685
GlyphClass: 2
Flags: MW
HStem: -171 151<247 332 247 438> 0 686<57 261 57 261 460 689 57 695 460 460>
VStem: 57 204<0 152 415 686> 247 14
AnchorPoint: "Bottom" 343 0 basechar 0
LayerCount: 2
Fore
SplineSet
480 411 m 1,0,-1
 695 0 l 1,1,-1
 460 0 l 1,2,-1
 341 248 l 1,3,-1
 261 152 l 1,4,-1
 261 0 l 1,5,-1
 57 0 l 1,6,-1
 57 686 l 1,7,-1
 261 686 l 1,8,-1
 261 415 l 1,9,-1
 457 686 l 1,10,-1
 689 686 l 1,11,-1
 480 411 l 1,0,-1
438 -139 m 1,12,-1
 410 -250 l 1,13,-1
 316 -250 l 1,14,-1
 332 -171 l 1,15,-1
 247 -171 l 1,16,-1
 247 -20 l 1,17,-1
 438 -20 l 1,18,-1
 438 -139 l 1,12,-1
EndSplineSet
EndChar

StartChar: L
Encoding: 76 76 46
Width: 544
GlyphClass: 2
Flags: MW
HStem: 0 168<269 518 269 538> 0 686<57 269 57 538 57 269>
VStem: 57 212<168 168 168 686>
AnchorPoint: "Bottom" 272 0 basechar 0
LayerCount: 2
Fore
SplineSet
269 168 m 1,0,-1
 518 168 l 1,1,-1
 538 0 l 1,2,-1
 57 0 l 1,3,-1
 57 686 l 1,4,-1
 269 686 l 1,5,-1
 269 168 l 1,0,-1
EndSplineSet
Position2: "'cpsp' Capital Spacing lookup 0 subtable" dx=5 dy=0 dh=10 dv=0
EndChar

StartChar: Lacute
Encoding: 313 313 47
Width: 544
GlyphClass: 2
Flags: MW
HStem: 0 168<269 518 269 538> 0 686<57 269 57 538 57 269> 750 145<291 318 200 442>
VStem: 57 212<168 168 168 686>
AnchorPoint: "Bottom" 272 0 basechar 0
LayerCount: 2
Fore
SplineSet
444 892 m 1,0,-1
 318 750 l 1,1,-1
 200 750 l 1,2,-1
 291 895 l 1,3,-1
 442 895 l 1,4,-1
 444 892 l 1,0,-1
269 168 m 1,5,-1
 518 168 l 1,6,-1
 538 0 l 1,7,-1
 57 0 l 1,8,-1
 57 686 l 1,9,-1
 269 686 l 1,10,-1
 269 168 l 1,5,-1
EndSplineSet
EndChar

StartChar: Lcaron
Encoding: 317 317 48
Width: 544
GlyphClass: 2
Flags: MW
HStem: 0 168<269 518 269 538> 338 348<394 488 394 394> 503 183<347 431 57 347>
VStem: 57 212<168 168 168 686> 347 191<525 686>
AnchorPoint: "Bottom" 272 0 basechar 0
LayerCount: 2
Fore
SplineSet
269 168 m 1,0,-1
 518 168 l 1,1,-1
 538 0 l 1,2,-1
 57 0 l 1,3,-1
 57 686 l 1,4,-1
 269 686 l 1,5,-1
 269 168 l 1,0,-1
538 525 m 1,6,-1
 488 338 l 1,7,-1
 394 338 l 1,8,-1
 431 503 l 1,9,-1
 347 503 l 1,10,-1
 347 686 l 1,11,-1
 538 686 l 1,12,-1
 538 525 l 1,6,-1
EndSplineSet
EndChar

StartChar: Lcommaaccent
Encoding: 315 315 49
Width: 544
GlyphClass: 2
Flags: MW
HStem: -171 151<176 261 176 367> 0 168<269 518 269 538> 0 686<57 269 57 538 57 269>
VStem: 57 212<168 168 168 686> 176 191<-139 -139 -139 -20 -139 -20>
AnchorPoint: "Bottom" 272 0 basechar 0
LayerCount: 2
Fore
SplineSet
269 168 m 1,0,-1
 518 168 l 1,1,-1
 538 0 l 1,2,-1
 57 0 l 1,3,-1
 57 686 l 1,4,-1
 269 686 l 1,5,-1
 269 168 l 1,0,-1
367 -139 m 1,6,-1
 339 -250 l 1,7,-1
 245 -250 l 1,8,-1
 261 -171 l 1,9,-1
 176 -171 l 1,10,-1
 176 -20 l 1,11,-1
 367 -20 l 1,12,-1
 367 -139 l 1,6,-1
EndSplineSet
EndChar

StartChar: Lslash
Encoding: 321 321 50
Width: 562
GlyphClass: 2
Flags: MW
HStem: 0 168<287 526 287 556> 0 686<75 287 75 556 75 287>
VStem: 75 212<168 288 288 288 393 394 499 686>
LayerCount: 2
Fore
SplineSet
287 499 m 1,0,-1
 378 544 l 1,1,-1
 378 439 l 1,2,-1
 287 394 l 1,3,-1
 287 168 l 1,4,-1
 526 168 l 1,5,-1
 556 0 l 1,6,-1
 75 0 l 1,7,-1
 75 288 l 1,8,-1
 9 255 l 1,9,-1
 9 360 l 1,10,-1
 75 393 l 1,11,-1
 75 686 l 1,12,-1
 287 686 l 1,13,-1
 287 499 l 1,0,-1
EndSplineSet
Position2: "'cpsp' Capital Spacing lookup 0 subtable" dx=5 dy=0 dh=10 dv=0
EndChar

StartChar: M
Encoding: 77 77 51
Width: 1004
GlyphClass: 2
Flags: MW
HStem: 0 320<57 504 500 504 500 613 372 504 500 947 500 737> 0 686<57 248 57 401 372 401 601 613 372 372 737 947 737 737> 440 246<248 253 248 248 733 737 733 733>
VStem: 57 191<0 440 0 686> 737 210<0 440 440 440>
LayerCount: 2
Fore
SplineSet
947 0 m 1,0,-1
 737 0 l 1,1,-1
 737 440 l 1,2,-1
 733 440 l 1,3,-1
 613 0 l 1,4,-1
 372 0 l 1,5,-1
 253 440 l 1,6,-1
 248 440 l 1,7,-1
 248 0 l 1,8,-1
 57 0 l 1,9,-1
 57 686 l 1,10,-1
 401 686 l 1,11,-1
 500 320 l 1,12,-1
 504 320 l 1,13,-1
 601 686 l 1,14,-1
 947 686 l 1,15,-1
 947 0 l 1,0,-1
EndSplineSet
Position2: "'cpsp' Capital Spacing lookup 0 subtable" dx=5 dy=0 dh=10 dv=0
EndChar

StartChar: N
Encoding: 78 78 52
Width: 696
GlyphClass: 2
Flags: MW
HStem: 0 686<57 233 57 250 57 233 459 639 459 459>
VStem: 57 193<0 304 0 686> 445 194<375 686>
AnchorPoint: "Bottom" 348 0 basechar 0
LayerCount: 2
Fore
SplineSet
639 0 m 1,0,-1
 459 0 l 1,1,-1
 253 297 l 1,2,-1
 250 304 l 1,3,-1
 250 0 l 1,4,-1
 57 0 l 1,5,-1
 57 686 l 1,6,-1
 233 686 l 1,7,-1
 443 382 l 1,8,-1
 445 375 l 1,9,-1
 445 686 l 1,10,-1
 639 686 l 1,11,-1
 639 0 l 1,0,-1
EndSplineSet
Position2: "'cpsp' Capital Spacing lookup 0 subtable" dx=5 dy=0 dh=10 dv=0
EndChar

StartChar: Nacute
Encoding: 323 323 53
Width: 696
GlyphClass: 2
Flags: MW
HStem: 0 686<57 233 57 250 57 233 459 639 459 459> 750 145<367 394 276 518>
VStem: 57 193<0 304 0 686> 445 194<375 686>
AnchorPoint: "Bottom" 348 0 basechar 0
LayerCount: 2
Fore
SplineSet
520 892 m 1,0,-1
 394 750 l 1,1,-1
 276 750 l 1,2,-1
 367 895 l 1,3,-1
 518 895 l 1,4,-1
 520 892 l 1,0,-1
639 0 m 1,5,-1
 459 0 l 1,6,-1
 253 297 l 1,7,-1
 250 304 l 1,8,-1
 250 0 l 1,9,-1
 57 0 l 1,10,-1
 57 686 l 1,11,-1
 233 686 l 1,12,-1
 443 382 l 1,13,-1
 445 375 l 1,14,-1
 445 686 l 1,15,-1
 639 686 l 1,16,-1
 639 0 l 1,5,-1
EndSplineSet
EndChar

StartChar: Ncaron
Encoding: 327 327 54
Width: 696
GlyphClass: 2
Flags: MW
HStem: 0 686<57 233 57 250 57 233 459 639 459 459> 750 145<145 412 145 284>
VStem: 57 193<0 304 0 686> 445 194<375 686>
AnchorPoint: "Bottom" 348 0 basechar 0
LayerCount: 2
Fore
SplineSet
412 750 m 1,0,-1
 284 750 l 1,1,-1
 145 895 l 1,2,-1
 275 895 l 1,3,-1
 349 818 l 1,4,-1
 423 895 l 1,5,-1
 551 895 l 1,6,-1
 412 750 l 1,0,-1
639 0 m 1,7,-1
 459 0 l 1,8,-1
 253 297 l 1,9,-1
 250 304 l 1,10,-1
 250 0 l 1,11,-1
 57 0 l 1,12,-1
 57 686 l 1,13,-1
 233 686 l 1,14,-1
 443 382 l 1,15,-1
 445 375 l 1,16,-1
 445 686 l 1,17,-1
 639 686 l 1,18,-1
 639 0 l 1,7,-1
EndSplineSet
EndChar

StartChar: Ncommaaccent
Encoding: 325 325 55
Width: 696
GlyphClass: 2
Flags: MW
HStem: -171 151<252 337 252 443> 0 686<57 233 57 250 57 233 459 639 459 459>
VStem: 57 193<0 304 0 686> 252 191<-139 -139 -139 -20 -139 -20> 445 194<375 686>
AnchorPoint: "Bottom" 348 0 basechar 0
LayerCount: 2
Fore
SplineSet
639 0 m 1,0,-1
 459 0 l 1,1,-1
 253 297 l 1,2,-1
 250 304 l 1,3,-1
 250 0 l 1,4,-1
 57 0 l 1,5,-1
 57 686 l 1,6,-1
 233 686 l 1,7,-1
 443 382 l 1,8,-1
 445 375 l 1,9,-1
 445 686 l 1,10,-1
 639 686 l 1,11,-1
 639 0 l 1,0,-1
443 -139 m 1,12,-1
 415 -250 l 1,13,-1
 321 -250 l 1,14,-1
 337 -171 l 1,15,-1
 252 -171 l 1,16,-1
 252 -20 l 1,17,-1
 443 -20 l 1,18,-1
 443 -139 l 1,12,-1
EndSplineSet
EndChar

StartChar: Ntilde
Encoding: 209 209 56
Width: 696
GlyphClass: 2
Flags: MW
HStem: 0 686<57 233 57 250 57 233 459 639 459 459> 750 143<130 302 130 302 231.5 472.5>
VStem: 57 193<0 304 0 686> 445 194<375 686>
LayerCount: 2
Fore
SplineSet
493 893 m 1,0,-1
 574 893 l 1,1,2
 574 838 574 838 532.5 794 c 128,-1,3
 491 750 491 750 434 750 c 0,4,5
 402 750 402 750 344 770 c 2,6,-1
 302 784 l 2,7,8
 288 788 288 788 261 790 c 0,9,10
 223 790 223 790 211 750 c 1,11,-1
 130 750 l 1,12,13
 130 805 130 805 171.5 849 c 128,-1,14
 213 893 213 893 270 893 c 0,15,16
 303 893 303 893 360.5 873 c 128,-1,17
 418 853 418 853 443 853 c 0,18,19
 481 853 481 853 493 893 c 1,0,-1
639 0 m 1,20,-1
 459 0 l 1,21,-1
 253 297 l 1,22,-1
 250 304 l 1,23,-1
 250 0 l 1,24,-1
 57 0 l 1,25,-1
 57 686 l 1,26,-1
 233 686 l 1,27,-1
 443 382 l 1,28,-1
 445 375 l 1,29,-1
 445 686 l 1,30,-1
 639 686 l 1,31,-1
 639 0 l 1,20,-1
EndSplineSet
Position2: "'cpsp' Capital Spacing lookup 0 subtable" dx=5 dy=0 dh=10 dv=0
EndChar

StartChar: O
Encoding: 79 79 57
Width: 718
GlyphClass: 2
Flags: MW
HStem: -10 157<248 362 357 362 362 387> 540 154<331 357 357 362>
VStem: 31 226<290 394 394 440 219 477> 462 225<247 290 290 394 207 440 207 468>
LayerCount: 2
Fore
SplineSet
331 694 m 2,0,-1
 387 694 l 2,1,2
 512 694 512 694 599.5 606 c 128,-1,3
 687 518 687 518 687 394 c 2,4,-1
 687 290 l 2,5,6
 687 166 687 166 599.5 78 c 128,-1,7
 512 -10 512 -10 387 -10 c 2,8,-1
 331 -10 l 2,9,10
 206 -10 206 -10 118.5 78 c 128,-1,11
 31 166 31 166 31 290 c 2,12,-1
 31 394 l 2,13,14
 31 518 31 518 118.5 606 c 128,-1,15
 206 694 206 694 331 694 c 2,0,-1
362 540 m 2,16,-1
 357 540 l 2,17,18
 315 540 315 540 286 511 c 128,-1,19
 257 482 257 482 257 440 c 2,20,-1
 257 247 l 2,21,22
 257 205 257 205 286 176 c 128,-1,23
 315 147 315 147 357 147 c 2,24,-1
 362 147 l 2,25,26
 404 147 404 147 433 176 c 128,-1,27
 462 205 462 205 462 247 c 2,28,-1
 462 440 l 2,29,30
 462 482 462 482 433 511 c 128,-1,31
 404 540 404 540 362 540 c 2,16,-1
EndSplineSet
Substitution2: "Single Substitution lookup 5 subtable" ordmasculine
Substitution2: "'aalt' Access All Alternates lookup 0 subtable" ordmasculine
Position2: "'cpsp' Capital Spacing lookup 0 subtable" dx=5 dy=0 dh=10 dv=0
EndChar

StartChar: Oacute
Encoding: 211 211 58
Width: 718
GlyphClass: 2
Flags: MW
HStem: -10 157<248 362 357 362 362 387> 540 154<331 357 357 362> 750 145<388 415 297 539>
VStem: 31 226<290 394 394 440 219 477> 462 225<247 290 290 394 207 440 207 468>
LayerCount: 2
Fore
SplineSet
541 892 m 1,0,-1
 415 750 l 1,1,-1
 297 750 l 1,2,-1
 388 895 l 1,3,-1
 539 895 l 1,4,-1
 541 892 l 1,0,-1
331 694 m 2,5,-1
 387 694 l 2,6,7
 512 694 512 694 599.5 606 c 128,-1,8
 687 518 687 518 687 394 c 2,9,-1
 687 290 l 2,10,11
 687 166 687 166 599.5 78 c 128,-1,12
 512 -10 512 -10 387 -10 c 2,13,-1
 331 -10 l 2,14,15
 206 -10 206 -10 118.5 78 c 128,-1,16
 31 166 31 166 31 290 c 2,17,-1
 31 394 l 2,18,19
 31 518 31 518 118.5 606 c 128,-1,20
 206 694 206 694 331 694 c 2,5,-1
362 540 m 2,21,-1
 357 540 l 2,22,23
 315 540 315 540 286 511 c 128,-1,24
 257 482 257 482 257 440 c 2,25,-1
 257 247 l 2,26,27
 257 205 257 205 286 176 c 128,-1,28
 315 147 315 147 357 147 c 2,29,-1
 362 147 l 2,30,31
 404 147 404 147 433 176 c 128,-1,32
 462 205 462 205 462 247 c 2,33,-1
 462 440 l 2,34,35
 462 482 462 482 433 511 c 128,-1,36
 404 540 404 540 362 540 c 2,21,-1
EndSplineSet
Position2: "'cpsp' Capital Spacing lookup 0 subtable" dx=5 dy=0 dh=10 dv=0
EndChar

StartChar: Ocircumflex
Encoding: 212 212 59
Width: 718
GlyphClass: 2
Flags: MW
HStem: -10 157<248 362 357 362 362 387> 540 154<331 357 357 362> 750 145<153 420 153 420 292 559 292 429>
VStem: 31 226<290 394 394 440 219 477> 462 225<247 290 290 394 207 440 207 468>
LayerCount: 2
Fore
SplineSet
559 750 m 1,0,-1
 429 750 l 1,1,-1
 355 827 l 1,2,-1
 281 750 l 1,3,-1
 153 750 l 1,4,-1
 292 895 l 1,5,-1
 420 895 l 1,6,-1
 559 750 l 1,0,-1
331 694 m 2,7,-1
 387 694 l 2,8,9
 512 694 512 694 599.5 606 c 128,-1,10
 687 518 687 518 687 394 c 2,11,-1
 687 290 l 2,12,13
 687 166 687 166 599.5 78 c 128,-1,14
 512 -10 512 -10 387 -10 c 2,15,-1
 331 -10 l 2,16,17
 206 -10 206 -10 118.5 78 c 128,-1,18
 31 166 31 166 31 290 c 2,19,-1
 31 394 l 2,20,21
 31 518 31 518 118.5 606 c 128,-1,22
 206 694 206 694 331 694 c 2,7,-1
362 540 m 2,23,-1
 357 540 l 2,24,25
 315 540 315 540 286 511 c 128,-1,26
 257 482 257 482 257 440 c 2,27,-1
 257 247 l 2,28,29
 257 205 257 205 286 176 c 128,-1,30
 315 147 315 147 357 147 c 2,31,-1
 362 147 l 2,32,33
 404 147 404 147 433 176 c 128,-1,34
 462 205 462 205 462 247 c 2,35,-1
 462 440 l 2,36,37
 462 482 462 482 433 511 c 128,-1,38
 404 540 404 540 362 540 c 2,23,-1
EndSplineSet
Position2: "'cpsp' Capital Spacing lookup 0 subtable" dx=5 dy=0 dh=10 dv=0
EndChar

StartChar: Odieresis
Encoding: 214 214 60
Width: 718
GlyphClass: 2
Flags: MW
HStem: -10 157<248 362 357 362 362 387> 540 154<331 357 357 362> 750 147<177 329 177 329 177 397 397 549>
VStem: 31 226<290 394 394 440 219 477> 177 152<750 897 750 897> 397 152<750 897 750 897> 462 225<247 290 290 394 207 440 207 468>
LayerCount: 2
Fore
SplineSet
329 750 m 1,0,-1
 177 750 l 1,1,-1
 177 897 l 1,2,-1
 329 897 l 1,3,-1
 329 750 l 1,0,-1
549 750 m 1,4,-1
 397 750 l 1,5,-1
 397 897 l 1,6,-1
 549 897 l 1,7,-1
 549 750 l 1,4,-1
331 694 m 2,8,-1
 387 694 l 2,9,10
 512 694 512 694 599.5 606 c 128,-1,11
 687 518 687 518 687 394 c 2,12,-1
 687 290 l 2,13,14
 687 166 687 166 599.5 78 c 128,-1,15
 512 -10 512 -10 387 -10 c 2,16,-1
 331 -10 l 2,17,18
 206 -10 206 -10 118.5 78 c 128,-1,19
 31 166 31 166 31 290 c 2,20,-1
 31 394 l 2,21,22
 31 518 31 518 118.5 606 c 128,-1,23
 206 694 206 694 331 694 c 2,8,-1
362 540 m 2,24,-1
 357 540 l 2,25,26
 315 540 315 540 286 511 c 128,-1,27
 257 482 257 482 257 440 c 2,28,-1
 257 247 l 2,29,30
 257 205 257 205 286 176 c 128,-1,31
 315 147 315 147 357 147 c 2,32,-1
 362 147 l 2,33,34
 404 147 404 147 433 176 c 128,-1,35
 462 205 462 205 462 247 c 2,36,-1
 462 440 l 2,37,38
 462 482 462 482 433 511 c 128,-1,39
 404 540 404 540 362 540 c 2,24,-1
EndSplineSet
Position2: "'cpsp' Capital Spacing lookup 0 subtable" dx=5 dy=0 dh=10 dv=0
EndChar

StartChar: Ograve
Encoding: 210 210 61
Width: 718
GlyphClass: 2
Flags: MW
HStem: -10 157<248 362 357 362 362 387> 540 154<331 357 357 362> 750 145<307 334 183 425 307 307>
VStem: 31 226<290 394 394 440 219 477> 462 225<247 290 290 394 207 440 207 468>
LayerCount: 2
Fore
SplineSet
425 750 m 1,0,-1
 307 750 l 1,1,-1
 181 892 l 1,2,-1
 183 895 l 1,3,-1
 334 895 l 1,4,-1
 425 750 l 1,0,-1
331 694 m 2,5,-1
 387 694 l 2,6,7
 512 694 512 694 599.5 606 c 128,-1,8
 687 518 687 518 687 394 c 2,9,-1
 687 290 l 2,10,11
 687 166 687 166 599.5 78 c 128,-1,12
 512 -10 512 -10 387 -10 c 2,13,-1
 331 -10 l 2,14,15
 206 -10 206 -10 118.5 78 c 128,-1,16
 31 166 31 166 31 290 c 2,17,-1
 31 394 l 2,18,19
 31 518 31 518 118.5 606 c 128,-1,20
 206 694 206 694 331 694 c 2,5,-1
362 540 m 2,21,-1
 357 540 l 2,22,23
 315 540 315 540 286 511 c 128,-1,24
 257 482 257 482 257 440 c 2,25,-1
 257 247 l 2,26,27
 257 205 257 205 286 176 c 128,-1,28
 315 147 315 147 357 147 c 2,29,-1
 362 147 l 2,30,31
 404 147 404 147 433 176 c 128,-1,32
 462 205 462 205 462 247 c 2,33,-1
 462 440 l 2,34,35
 462 482 462 482 433 511 c 128,-1,36
 404 540 404 540 362 540 c 2,21,-1
EndSplineSet
Position2: "'cpsp' Capital Spacing lookup 0 subtable" dx=5 dy=0 dh=10 dv=0
EndChar

StartChar: Ohungarumlaut
Encoding: 336 336 62
Width: 718
GlyphClass: 2
Flags: MW
HStem: -10 157<248 362 357 362 362 387> 540 154<331 357 357 362> 750 145<244 271 153 395 380 380 380 395 471 498>
VStem: 31 226<290 394 394 440 219 477> 462 225<247 290 290 394 207 440 207 468>
LayerCount: 2
Fore
SplineSet
397 892 m 1,0,-1
 271 750 l 1,1,-1
 153 750 l 1,2,-1
 244 895 l 1,3,-1
 395 895 l 1,4,-1
 397 892 l 1,0,-1
624 892 m 1,5,-1
 498 750 l 1,6,-1
 380 750 l 1,7,-1
 471 895 l 1,8,-1
 622 895 l 1,9,-1
 624 892 l 1,5,-1
331 694 m 2,10,-1
 387 694 l 2,11,12
 512 694 512 694 599.5 606 c 128,-1,13
 687 518 687 518 687 394 c 2,14,-1
 687 290 l 2,15,16
 687 166 687 166 599.5 78 c 128,-1,17
 512 -10 512 -10 387 -10 c 2,18,-1
 331 -10 l 2,19,20
 206 -10 206 -10 118.5 78 c 128,-1,21
 31 166 31 166 31 290 c 2,22,-1
 31 394 l 2,23,24
 31 518 31 518 118.5 606 c 128,-1,25
 206 694 206 694 331 694 c 2,10,-1
362 540 m 2,26,-1
 357 540 l 2,27,28
 315 540 315 540 286 511 c 128,-1,29
 257 482 257 482 257 440 c 2,30,-1
 257 247 l 2,31,32
 257 205 257 205 286 176 c 128,-1,33
 315 147 315 147 357 147 c 2,34,-1
 362 147 l 2,35,36
 404 147 404 147 433 176 c 128,-1,37
 462 205 462 205 462 247 c 2,38,-1
 462 440 l 2,39,40
 462 482 462 482 433 511 c 128,-1,41
 404 540 404 540 362 540 c 2,26,-1
EndSplineSet
EndChar

StartChar: Omacron
Encoding: 332 332 63
Width: 718
GlyphClass: 2
Flags: MW
HStem: -10 157<248 362 357 362 362 387> 540 154<331 357 357 362> 837 74<200 518 200 518>
VStem: 31 226<290 394 394 440 219 477> 200 318<837 911 837 911> 462 225<247 290 290 394 207 440 207 468>
LayerCount: 2
Fore
SplineSet
518 837 m 1,0,-1
 200 837 l 1,1,-1
 200 911 l 1,2,-1
 518 911 l 1,3,-1
 518 837 l 1,0,-1
331 694 m 2,4,-1
 387 694 l 2,5,6
 512 694 512 694 599.5 606 c 128,-1,7
 687 518 687 518 687 394 c 2,8,-1
 687 290 l 2,9,10
 687 166 687 166 599.5 78 c 128,-1,11
 512 -10 512 -10 387 -10 c 2,12,-1
 331 -10 l 2,13,14
 206 -10 206 -10 118.5 78 c 128,-1,15
 31 166 31 166 31 290 c 2,16,-1
 31 394 l 2,17,18
 31 518 31 518 118.5 606 c 128,-1,19
 206 694 206 694 331 694 c 2,4,-1
362 540 m 2,20,-1
 357 540 l 2,21,22
 315 540 315 540 286 511 c 128,-1,23
 257 482 257 482 257 440 c 2,24,-1
 257 247 l 2,25,26
 257 205 257 205 286 176 c 128,-1,27
 315 147 315 147 357 147 c 2,28,-1
 362 147 l 2,29,30
 404 147 404 147 433 176 c 128,-1,31
 462 205 462 205 462 247 c 2,32,-1
 462 440 l 2,33,34
 462 482 462 482 433 511 c 128,-1,35
 404 540 404 540 362 540 c 2,20,-1
EndSplineSet
EndChar

StartChar: Oslash
Encoding: 216 216 64
Width: 718
GlyphClass: 2
Flags: MW
HStem: -10 157<310 362 357 362 362 387> 540 154<331 357 357 362>
VStem: 31 226<290 394 394 440 269 477> 462 225<247 290 290 394 207 428 207 428>
LayerCount: 2
Fore
SplineSet
661 754 m 1,0,-1
 581 623 l 1,1,2
 687 532 687 532 687 394 c 2,3,-1
 687 290 l 2,4,5
 687 166 687 166 599.5 78 c 128,-1,6
 512 -10 512 -10 387 -10 c 2,7,-1
 331 -10 l 2,8,9
 267 -10 267 -10 210 15 c 1,10,-1
 161 -65 l 1,11,-1
 53 -65 l 1,12,-1
 132 65 l 1,13,14
 31 155 31 155 31 290 c 2,15,-1
 31 394 l 2,16,17
 31 518 31 518 118.5 606 c 128,-1,18
 206 694 206 694 331 694 c 2,19,-1
 387 694 l 2,20,21
 447 694 447 694 502 671 c 1,22,-1
 553 754 l 1,23,-1
 661 754 l 1,0,-1
362 540 m 2,24,-1
 357 540 l 2,25,26
 315 540 315 540 286 511 c 128,-1,27
 257 482 257 482 257 440 c 2,28,-1
 257 269 l 1,29,-1
 414 526 l 1,30,31
 388 540 388 540 362 540 c 2,24,-1
462 428 m 1,32,-1
 301 164 l 1,33,34
 327 147 327 147 357 147 c 2,35,-1
 362 147 l 2,36,37
 404 147 404 147 433 176 c 128,-1,38
 462 205 462 205 462 247 c 2,39,-1
 462 428 l 1,32,-1
EndSplineSet
Position2: "'cpsp' Capital Spacing lookup 0 subtable" dx=5 dy=0 dh=10 dv=0
EndChar

StartChar: Otilde
Encoding: 213 213 65
Width: 718
GlyphClass: 2
Flags: MW
HStem: -10 157<248 362 357 362 362 387> 540 154<331 357 357 362> 750 143<135 307 135 307 236.5 477.5>
VStem: 31 226<290 394 394 440 219 477> 462 225<247 290 290 394 207 440 207 468>
LayerCount: 2
Fore
SplineSet
498 893 m 1,0,-1
 579 893 l 1,1,2
 579 838 579 838 537.5 794 c 128,-1,3
 496 750 496 750 439 750 c 0,4,5
 408 750 408 750 348 770 c 2,6,-1
 306 784 l 2,7,8
 287 790 287 790 266 790 c 0,9,10
 228 790 228 790 216 750 c 1,11,-1
 135 750 l 1,12,13
 135 805 135 805 176.5 849 c 128,-1,14
 218 893 218 893 275 893 c 0,15,16
 308 893 308 893 365.5 873 c 128,-1,17
 423 853 423 853 448 853 c 0,18,19
 486 853 486 853 498 893 c 1,0,-1
331 694 m 2,20,-1
 387 694 l 2,21,22
 512 694 512 694 599.5 606 c 128,-1,23
 687 518 687 518 687 394 c 2,24,-1
 687 290 l 2,25,26
 687 166 687 166 599.5 78 c 128,-1,27
 512 -10 512 -10 387 -10 c 2,28,-1
 331 -10 l 2,29,30
 206 -10 206 -10 118.5 78 c 128,-1,31
 31 166 31 166 31 290 c 2,32,-1
 31 394 l 2,33,34
 31 518 31 518 118.5 606 c 128,-1,35
 206 694 206 694 331 694 c 2,20,-1
362 540 m 2,36,-1
 357 540 l 2,37,38
 315 540 315 540 286 511 c 128,-1,39
 257 482 257 482 257 440 c 2,40,-1
 257 247 l 2,41,42
 257 205 257 205 286 176 c 128,-1,43
 315 147 315 147 357 147 c 2,44,-1
 362 147 l 2,45,46
 404 147 404 147 433 176 c 128,-1,47
 462 205 462 205 462 247 c 2,48,-1
 462 440 l 2,49,50
 462 482 462 482 433 511 c 128,-1,51
 404 540 404 540 362 540 c 2,36,-1
EndSplineSet
Position2: "'cpsp' Capital Spacing lookup 0 subtable" dx=5 dy=0 dh=10 dv=0
EndChar

StartChar: OE
Encoding: 338 338 66
Width: 991
GlyphClass: 2
Flags: MW
HStem: 0 157<672 947 672 977> 266 153<672 916 672 916> 528 158<672 927 672 672> 540 154<331 357 357 362>
VStem: 31 226<290 394 394 440 219 477> 462 210<0 266 247 266 419 440 440 468>
LayerCount: 2
Fore
SplineSet
331 694 m 2,0,-1
 387 694 l 2,1,2
 423 694 423 694 463 686 c 1,3,-1
 967 686 l 1,4,-1
 927 528 l 1,5,-1
 672 528 l 1,6,-1
 672 419 l 1,7,-1
 916 419 l 1,8,-1
 916 266 l 1,9,-1
 672 266 l 1,10,-1
 672 157 l 1,11,-1
 947 157 l 1,12,-1
 977 0 l 1,13,-1
 462 0 l 1,14,15
 428 -10 428 -10 387 -10 c 2,16,-1
 331 -10 l 2,17,18
 206 -10 206 -10 118.5 78 c 128,-1,19
 31 166 31 166 31 290 c 2,20,-1
 31 394 l 2,21,22
 31 518 31 518 118.5 606 c 128,-1,23
 206 694 206 694 331 694 c 2,0,-1
362 540 m 2,24,-1
 357 540 l 2,25,26
 315 540 315 540 286 511 c 128,-1,27
 257 482 257 482 257 440 c 2,28,-1
 257 247 l 2,29,30
 257 205 257 205 286 176 c 128,-1,31
 315 147 315 147 357 147 c 2,32,-1
 362 147 l 2,33,34
 404 147 404 147 433 176 c 128,-1,35
 462 205 462 205 462 247 c 2,36,-1
 462 440 l 2,37,38
 462 482 462 482 433 511 c 128,-1,39
 404 540 404 540 362 540 c 2,24,-1
EndSplineSet
Position2: "'cpsp' Capital Spacing lookup 0 subtable" dx=5 dy=0 dh=10 dv=0
EndChar

StartChar: P
Encoding: 80 80 67
Width: 645
GlyphClass: 2
Flags: MW
HStem: 244 153<267 359 359 379 267 422 267 359> 529 157<267 267 267 359>
VStem: 57 210<0 244 0 397 397 529> 419 213<457 469 469 476 396 483>
LayerCount: 2
Fore
SplineSet
57 686 m 1,0,-1
 422 686 l 2,1,2
 509 686 509 686 570.5 624.5 c 128,-1,3
 632 563 632 563 632 476 c 2,4,-1
 632 454 l 2,5,6
 632 367 632 367 570.5 305.5 c 128,-1,7
 509 244 509 244 422 244 c 2,8,-1
 267 244 l 1,9,-1
 267 0 l 1,10,-1
 57 0 l 1,11,-1
 57 686 l 1,0,-1
267 529 m 1,12,-1
 267 397 l 1,13,-1
 359 397 l 2,14,15
 387 397 387 397 403 415.5 c 128,-1,16
 419 434 419 434 419 457 c 2,17,-1
 419 469 l 2,18,19
 419 492 419 492 403.5 510.5 c 128,-1,20
 388 529 388 529 359 529 c 2,21,-1
 267 529 l 1,12,-1
EndSplineSet
Position2: "'cpsp' Capital Spacing lookup 0 subtable" dx=5 dy=0 dh=10 dv=0
EndChar

StartChar: Thorn
Encoding: 222 222 68
Width: 646
GlyphClass: 2
Flags: MW
HStem: 146 148<266 369 369 383 266 422 266 369> 427 156<266 422 266 369> 427 259<57 266 57 369>
VStem: 57 209<0 146 0 294 294 427 583 686> 419 213<344 356 356 373 298 377 298 391>
LayerCount: 2
Fore
SplineSet
266 583 m 1,0,-1
 422 583 l 2,1,2
 509 583 509 583 570.5 521.5 c 128,-1,3
 632 460 632 460 632 373 c 2,4,-1
 632 356 l 2,5,6
 632 269 632 269 570.5 207.5 c 128,-1,7
 509 146 509 146 422 146 c 2,8,-1
 266 146 l 1,9,-1
 266 0 l 1,10,-1
 57 0 l 1,11,-1
 57 686 l 1,12,-1
 266 686 l 1,13,-1
 266 583 l 1,0,-1
266 427 m 1,14,-1
 266 294 l 1,15,-1
 369 294 l 2,16,17
 390 294 390 294 404.5 308.5 c 128,-1,18
 419 323 419 323 419 344 c 2,19,-1
 419 377 l 2,20,21
 419 398 419 398 404.5 412.5 c 128,-1,22
 390 427 390 427 369 427 c 2,23,-1
 266 427 l 1,14,-1
EndSplineSet
Position2: "'cpsp' Capital Spacing lookup 0 subtable" dx=5 dy=0 dh=10 dv=0
EndChar

StartChar: Q
Encoding: 81 81 69
Width: 718
GlyphClass: 2
Flags: MW
HStem: -162 123<538 551> 540 154<331 357 357 362>
VStem: 31 226<290 394 394 440 219 477> 462 225<247 290 290 394 224 440 224 468>
LayerCount: 2
Fore
SplineSet
331 694 m 2,0,-1
 387 694 l 2,1,2
 512 694 512 694 599.5 606 c 128,-1,3
 687 518 687 518 687 394 c 2,4,-1
 687 290 l 2,5,6
 687 192 687 192 630.5 114 c 128,-1,7
 574 36 574 36 484 6 c 1,8,9
 505 -39 505 -39 558.5 -39 c 0,10,11
 612 -39 612 -39 675 -19 c 2,12,-1
 688 -15 l 1,13,-1
 688 -120 l 1,14,15
 608 -162 608 -162 506 -162 c 0,16,17
 404 -162 404 -162 346 -114 c 128,-1,18
 288 -66 288 -66 273 -4 c 1,19,20
 169 16 169 16 100 98.5 c 128,-1,21
 31 181 31 181 31 290 c 2,22,-1
 31 394 l 2,23,24
 31 518 31 518 118.5 606 c 128,-1,25
 206 694 206 694 331 694 c 2,0,-1
362 540 m 2,26,-1
 357 540 l 2,27,28
 315 540 315 540 286 511 c 128,-1,29
 257 482 257 482 257 440 c 2,30,-1
 257 247 l 2,31,32
 257 205 257 205 286 176 c 128,-1,33
 315 147 315 147 357 147 c 2,34,-1
 362 147 l 2,35,36
 404 147 404 147 433 176 c 128,-1,37
 462 205 462 205 462 247 c 2,38,-1
 462 440 l 2,39,40
 462 482 462 482 433 511 c 128,-1,41
 404 540 404 540 362 540 c 2,26,-1
EndSplineSet
Position2: "'cpsp' Capital Spacing lookup 0 subtable" dx=5 dy=0 dh=10 dv=0
EndChar

StartChar: R
Encoding: 82 82 70
Width: 682
GlyphClass: 2
Flags: MW
HStem: 266 153<262 320 262 368> 529 157<262 262 262 368>
VStem: 57 205<0 266 0 419 419 529> 409 210<71 214.5> 418 214<469 567.5 479.5 493>
AnchorPoint: "Bottom" 341 0 basechar 0
LayerCount: 2
Fore
SplineSet
57 686 m 1,0,-1
 442 686 l 2,1,2
 518 686 518 686 575 638.5 c 128,-1,3
 632 591 632 591 632 516 c 0,4,5
 632 460 632 460 596 412 c 128,-1,6
 560 364 560 364 509 354 c 1,7,-1
 509 349 l 1,8,9
 564 332 564 332 591.5 285.5 c 128,-1,10
 619 239 619 239 619 173 c 0,11,12
 619 63 619 63 670 50 c 1,13,-1
 670 9 l 1,14,15
 624 -10 624 -10 551.5 -10 c 128,-1,16
 479 -10 479 -10 444 19.5 c 128,-1,17
 409 49 409 49 409 119 c 0,18,19
 409 226.666666667 409 226.666666667 369.5 253 c 0,20,21
 350 266 350 266 320 266 c 2,22,-1
 262 266 l 1,23,-1
 262 0 l 1,24,-1
 57 0 l 1,25,-1
 57 686 l 1,0,-1
262 529 m 1,26,-1
 262 419 l 1,27,-1
 368 419 l 2,28,29
 389 419 389 419 403.5 433.5 c 128,-1,30
 418 448 418 448 418 469 c 2,31,-1
 418 479 l 2,32,33
 418 500 418 500 403.5 514.5 c 128,-1,34
 389 529 389 529 368 529 c 2,35,-1
 262 529 l 1,26,-1
EndSplineSet
Position2: "'cpsp' Capital Spacing lookup 0 subtable" dx=5 dy=0 dh=10 dv=0
EndChar

StartChar: Racute
Encoding: 340 340 71
Width: 682
GlyphClass: 2
Flags: MW
HStem: 266 153<262 320 262 368> 529 157<262 262 262 368> 750 145<360 387 269 511>
VStem: 57 205<0 266 0 419 419 529> 409 210<71 214.5> 418 214<469 567.5 479.5 493>
AnchorPoint: "Bottom" 341 0 basechar 0
LayerCount: 2
Fore
SplineSet
513 892 m 1,0,-1
 387 750 l 1,1,-1
 269 750 l 1,2,-1
 360 895 l 1,3,-1
 511 895 l 1,4,-1
 513 892 l 1,0,-1
57 686 m 1,5,-1
 442 686 l 2,6,7
 518 686 518 686 575 638.5 c 128,-1,8
 632 591 632 591 632 516 c 0,9,10
 632 460 632 460 596 412 c 128,-1,11
 560 364 560 364 509 354 c 1,12,-1
 509 349 l 1,13,14
 564 332 564 332 591.5 285.5 c 128,-1,15
 619 239 619 239 619 173 c 0,16,17
 619 63 619 63 670 50 c 1,18,-1
 670 9 l 1,19,20
 624 -10 624 -10 551.5 -10 c 128,-1,21
 479 -10 479 -10 444 19.5 c 128,-1,22
 409 49 409 49 409 119 c 0,23,24
 409 226.666666667 409 226.666666667 369.5 253 c 0,25,26
 350 266 350 266 320 266 c 2,27,-1
 262 266 l 1,28,-1
 262 0 l 1,29,-1
 57 0 l 1,30,-1
 57 686 l 1,5,-1
262 529 m 1,31,-1
 262 419 l 1,32,-1
 368 419 l 2,33,34
 389 419 389 419 403.5 433.5 c 128,-1,35
 418 448 418 448 418 469 c 2,36,-1
 418 479 l 2,37,38
 418 500 418 500 403.5 514.5 c 128,-1,39
 389 529 389 529 368 529 c 2,40,-1
 262 529 l 1,31,-1
EndSplineSet
EndChar

StartChar: Rcaron
Encoding: 344 344 72
Width: 682
GlyphClass: 2
Flags: MW
HStem: 266 153<262 320 262 368> 529 157<262 262 262 368> 750 145<138 405 138 277>
VStem: 57 205<0 266 0 419 419 529> 409 210<71 214.5> 418 214<469 567.5 479.5 493>
AnchorPoint: "Bottom" 341 0 basechar 0
LayerCount: 2
Fore
SplineSet
405 750 m 1,0,-1
 277 750 l 1,1,-1
 138 895 l 1,2,-1
 268 895 l 1,3,-1
 342 818 l 1,4,-1
 416 895 l 1,5,-1
 544 895 l 1,6,-1
 405 750 l 1,0,-1
57 686 m 1,7,-1
 442 686 l 2,8,9
 518 686 518 686 575 638.5 c 128,-1,10
 632 591 632 591 632 516 c 0,11,12
 632 460 632 460 596 412 c 128,-1,13
 560 364 560 364 509 354 c 1,14,-1
 509 349 l 1,15,16
 564 332 564 332 591.5 285.5 c 128,-1,17
 619 239 619 239 619 173 c 0,18,19
 619 63 619 63 670 50 c 1,20,-1
 670 9 l 1,21,22
 624 -10 624 -10 551.5 -10 c 128,-1,23
 479 -10 479 -10 444 19.5 c 128,-1,24
 409 49 409 49 409 119 c 0,25,26
 409 226.666666667 409 226.666666667 369.5 253 c 0,27,28
 350 266 350 266 320 266 c 2,29,-1
 262 266 l 1,30,-1
 262 0 l 1,31,-1
 57 0 l 1,32,-1
 57 686 l 1,7,-1
262 529 m 1,33,-1
 262 419 l 1,34,-1
 368 419 l 2,35,36
 389 419 389 419 403.5 433.5 c 128,-1,37
 418 448 418 448 418 469 c 2,38,-1
 418 479 l 2,39,40
 418 500 418 500 403.5 514.5 c 128,-1,41
 389 529 389 529 368 529 c 2,42,-1
 262 529 l 1,33,-1
EndSplineSet
EndChar

StartChar: Rcommaaccent
Encoding: 342 342 73
Width: 682
GlyphClass: 2
Flags: MW
HStem: -171 151<245 330 245 436> 266 153<262 320 262 368> 529 157<262 262 262 368>
VStem: 245 17 409 210<71 214.5> 418 214<469 567.5 479.5 493>
AnchorPoint: "Bottom" 341 0 basechar 0
LayerCount: 2
Fore
SplineSet
57 686 m 1,0,-1
 442 686 l 2,1,2
 518 686 518 686 575 638.5 c 128,-1,3
 632 591 632 591 632 516 c 0,4,5
 632 460 632 460 596 412 c 128,-1,6
 560 364 560 364 509 354 c 1,7,-1
 509 349 l 1,8,9
 564 332 564 332 591.5 285.5 c 128,-1,10
 619 239 619 239 619 173 c 0,11,12
 619 63 619 63 670 50 c 1,13,-1
 670 9 l 1,14,15
 624 -10 624 -10 551.5 -10 c 128,-1,16
 479 -10 479 -10 444 19.5 c 128,-1,17
 409 49 409 49 409 119 c 0,18,19
 409 226.666666667 409 226.666666667 369.5 253 c 0,20,21
 350 266 350 266 320 266 c 2,22,-1
 262 266 l 1,23,-1
 262 0 l 1,24,-1
 57 0 l 1,25,-1
 57 686 l 1,0,-1
262 529 m 1,26,-1
 262 419 l 1,27,-1
 368 419 l 2,28,29
 389 419 389 419 403.5 433.5 c 128,-1,30
 418 448 418 448 418 469 c 2,31,-1
 418 479 l 2,32,33
 418 500 418 500 403.5 514.5 c 128,-1,34
 389 529 389 529 368 529 c 2,35,-1
 262 529 l 1,26,-1
436 -139 m 1,36,-1
 408 -250 l 1,37,-1
 314 -250 l 1,38,-1
 330 -171 l 1,39,-1
 245 -171 l 1,40,-1
 245 -20 l 1,41,-1
 436 -20 l 1,42,-1
 436 -139 l 1,36,-1
EndSplineSet
EndChar

StartChar: S
Encoding: 83 83 74
Width: 651
GlyphClass: 2
Flags: MW
HStem: -10 161<276 352.5 276 409> 256.49 439.51 474 222<251 610 251 418> 544 152<306.5 365>
VStem: 25 194<210 222 222 224> 40 212<485.5 514.5 485.5 550.5> 407 216<183 242.5> 418 192<474 478 478 486 474 495.5>
AnchorPoint: "Bottom" 326 0 basechar 0
LayerCount: 2
Fore
SplineSet
122.5 639 m 128,-1,1
 205 696 205 696 329 696 c 128,-1,2
 453 696 453 696 531.5 643 c 128,-1,3
 610 590 610 590 610 486 c 2,4,-1
 610 474 l 1,5,-1
 418 474 l 1,6,-1
 418 478 l 2,7,8
 418 507 418 507 397.5 525.5 c 128,-1,9
 377 544 377 544 335 544 c 0,10,11
 252 544 252 544 252 502 c 0,12,13
 252 479 252 479 276.5 465.5 c 128,-1,14
 301 452 301 452 348 442 c 2,15,-1
 437 422 l 2,16,17
 623 380 623 380 623 229 c 0,18,19
 623 106 623 106 542 48 c 128,-1,20
 461 -10 461 -10 318 -10 c 0,21,22
 147.5 -10 147.5 -10 67.5 86 c 0,23,24
 25 137 25 137 25 210 c 2,25,-1
 25 222 l 2,26,27
 25 230 25 230 26 234 c 1,28,-1
 220 234 l 1,29,30
 219 231 219 231 219 222 c 0,31,32
 219 151 219 151 313 151 c 128,-1,33
 407 151 407 151 407 194 c 0,34,35
 407 228.153846154 407 228.153846154 334.5 246 c 0,36,37
 302 254 302 254 263 261.5 c 128,-1,38
 224 269 224 269 184.5 284 c 128,-1,39
 145 299 145 299 112.5 321 c 128,-1,40
 80 343 80 343 60 383 c 128,-1,41
 40 423 40 423 40 478 c 0,42,0
 40 582 40 582 122.5 639 c 128,-1,1
EndSplineSet
Position2: "'cpsp' Capital Spacing lookup 0 subtable" dx=5 dy=0 dh=10 dv=0
EndChar

StartChar: Sacute
Encoding: 346 346 75
Width: 651
GlyphClass: 2
Flags: MW
HStem: -10 161<276 352.5 276 409> 256.49 439.51 474 222<251 610 251 418> 544 152<306.5 365> 750 145<345 372 254 496>
VStem: 25 194<210 222 222 224> 40 212<485.5 514.5 485.5 550.5> 407 216<183 242.5> 418 192<474 478 478 486 474 495.5>
AnchorPoint: "Bottom" 326 0 basechar 0
LayerCount: 2
Fore
SplineSet
498 892 m 1,0,-1
 372 750 l 1,1,-1
 254 750 l 1,2,-1
 345 895 l 1,3,-1
 496 895 l 1,4,-1
 498 892 l 1,0,-1
122.5 639 m 128,-1,6
 205 696 205 696 329 696 c 128,-1,7
 453 696 453 696 531.5 643 c 128,-1,8
 610 590 610 590 610 486 c 2,9,-1
 610 474 l 1,10,-1
 418 474 l 1,11,-1
 418 478 l 2,12,13
 418 507 418 507 397.5 525.5 c 128,-1,14
 377 544 377 544 335 544 c 0,15,16
 252 544 252 544 252 502 c 0,17,18
 252 479 252 479 276.5 465.5 c 128,-1,19
 301 452 301 452 348 442 c 2,20,-1
 437 422 l 2,21,22
 623 380 623 380 623 229 c 0,23,24
 623 106 623 106 542 48 c 128,-1,25
 461 -10 461 -10 318 -10 c 0,26,27
 147.5 -10 147.5 -10 67.5 86 c 0,28,29
 25 137 25 137 25 210 c 2,30,-1
 25 222 l 2,31,32
 25 230 25 230 26 234 c 1,33,-1
 220 234 l 1,34,35
 219 231 219 231 219 222 c 0,36,37
 219 151 219 151 313 151 c 128,-1,38
 407 151 407 151 407 194 c 0,39,40
 407 228.153846154 407 228.153846154 334.5 246 c 0,41,42
 302 254 302 254 263 261.5 c 128,-1,43
 224 269 224 269 184.5 284 c 128,-1,44
 145 299 145 299 112.5 321 c 128,-1,45
 80 343 80 343 60 383 c 128,-1,46
 40 423 40 423 40 478 c 0,47,5
 40 582 40 582 122.5 639 c 128,-1,6
EndSplineSet
EndChar

StartChar: Scaron
Encoding: 352 352 76
Width: 651
GlyphClass: 2
Flags: MW
HStem: -10 161<276 352.5 276 409> 256.49 439.51 474 222<251 610 251 418> 544 152<306.5 365> 750 145<125 392 125 264>
VStem: 25 194<210 222 222 224> 40 212<485.5 514.5 485.5 550.5> 407 216<183 242.5> 418 192<474 478 478 486 474 495.5>
LayerCount: 2
Fore
SplineSet
392 750 m 1,0,-1
 264 750 l 1,1,-1
 125 895 l 1,2,-1
 255 895 l 1,3,-1
 329 818 l 1,4,-1
 403 895 l 1,5,-1
 531 895 l 1,6,-1
 392 750 l 1,0,-1
122.5 639 m 128,-1,8
 205 696 205 696 329 696 c 128,-1,9
 453 696 453 696 531.5 643 c 128,-1,10
 610 590 610 590 610 486 c 2,11,-1
 610 474 l 1,12,-1
 418 474 l 1,13,-1
 418 478 l 2,14,15
 418 507 418 507 397.5 525.5 c 128,-1,16
 377 544 377 544 335 544 c 0,17,18
 252 544 252 544 252 502 c 0,19,20
 252 479 252 479 276.5 465.5 c 128,-1,21
 301 452 301 452 348 442 c 2,22,-1
 437 422 l 2,23,24
 623 380 623 380 623 229 c 0,25,26
 623 106 623 106 542 48 c 128,-1,27
 461 -10 461 -10 318 -10 c 0,28,29
 147.5 -10 147.5 -10 67.5 86 c 0,30,31
 25 137 25 137 25 210 c 2,32,-1
 25 222 l 2,33,34
 25 230 25 230 26 234 c 1,35,-1
 220 234 l 1,36,37
 219 231 219 231 219 222 c 0,38,39
 219 151 219 151 313 151 c 128,-1,40
 407 151 407 151 407 194 c 0,41,42
 407 228.153846154 407 228.153846154 334.5 246 c 0,43,44
 302 254 302 254 263 261.5 c 128,-1,45
 224 269 224 269 184.5 284 c 128,-1,46
 145 299 145 299 112.5 321 c 128,-1,47
 80 343 80 343 60 383 c 128,-1,48
 40 423 40 423 40 478 c 0,49,7
 40 582 40 582 122.5 639 c 128,-1,8
EndSplineSet
Position2: "'cpsp' Capital Spacing lookup 0 subtable" dx=5 dy=0 dh=10 dv=0
EndChar

StartChar: Scedilla
Encoding: 350 350 77
Width: 651
GlyphClass: 2
Flags: MW
HStem: -197 58<306.5 333 299.5 352.5> -76 59<305 323 305 326> -10 161<276 352.5 276 409> 256.49 439.51 474 222<251 610 251 418> 544 152<306.5 365>
VStem: 25 194<210 222 222 224> 40 212<485.5 514.5 485.5 550.5> 361 87<-119.5 -98> 407 216<183 242.5> 418 192<474 478 478 486 474 495.5>
AnchorPoint: "Bottom" 326 0 basechar 0
LayerCount: 2
Fore
SplineSet
122.5 639 m 128,-1,1
 205 696 205 696 329 696 c 128,-1,2
 453 696 453 696 531.5 643 c 128,-1,3
 610 590 610 590 610 486 c 2,4,-1
 610 474 l 1,5,-1
 418 474 l 1,6,-1
 418 478 l 2,7,8
 418 507 418 507 397.5 525.5 c 128,-1,9
 377 544 377 544 335 544 c 0,10,11
 252 544 252 544 252 502 c 0,12,13
 252 479 252 479 276.5 465.5 c 128,-1,14
 301 452 301 452 348 442 c 2,15,-1
 437 422 l 2,16,17
 623 380 623 380 623 229 c 0,18,19
 623 106 623 106 542 48 c 128,-1,20
 461 -10 461 -10 318 -10 c 0,21,22
 147.5 -10 147.5 -10 67.5 86 c 0,23,24
 25 137 25 137 25 210 c 2,25,-1
 25 222 l 2,26,27
 25 230 25 230 26 234 c 1,28,-1
 220 234 l 1,29,30
 219 231 219 231 219 222 c 0,31,32
 219 151 219 151 313 151 c 128,-1,33
 407 151 407 151 407 194 c 0,34,35
 407 228.153846154 407 228.153846154 334.5 246 c 0,36,37
 302 254 302 254 263 261.5 c 128,-1,38
 224 269 224 269 184.5 284 c 128,-1,39
 145 299 145 299 112.5 321 c 128,-1,40
 80 343 80 343 60 383 c 128,-1,41
 40 423 40 423 40 478 c 0,42,0
 40 582 40 582 122.5 639 c 128,-1,1
305 -17 m 1,43,-1
 326 -17 l 2,44,45
 448 -17 448 -17 448 -108 c 0,46,47
 448 -142 448 -142 427 -163 c 0,48,49
 393 -197 393 -197 320.5 -197 c 128,-1,50
 248 -197 248 -197 204 -161 c 1,51,-1
 236 -107 l 1,52,53
 273 -139 273 -139 317 -139 c 128,-1,54
 361 -139 361 -139 361 -107.5 c 128,-1,55
 361 -76 361 -76 323 -76 c 2,56,-1
 305 -76 l 1,57,-1
 305 -17 l 1,43,-1
EndSplineSet
EndChar

StartChar: Scommaaccent
Encoding: 536 536 78
Width: 651
GlyphClass: 2
Flags: MW
HStem: -171 151<230 315 230 421> -10 161<276 352.5 276 409> 256.49 439.51 474 222<251 610 251 418> 544 152<306.5 365>
VStem: 25 194<210 222 222 224> 40 212<485.5 514.5 485.5 550.5> 230 191<-139 -139 -139 -20 -139 -20> 407 216<183 242.5> 418 192<474 478 478 486 474 495.5>
AnchorPoint: "Bottom" 326 0 basechar 0
LayerCount: 2
Fore
SplineSet
122.5 639 m 128,-1,1
 205 696 205 696 329 696 c 128,-1,2
 453 696 453 696 531.5 643 c 128,-1,3
 610 590 610 590 610 486 c 2,4,-1
 610 474 l 1,5,-1
 418 474 l 1,6,-1
 418 478 l 2,7,8
 418 507 418 507 397.5 525.5 c 128,-1,9
 377 544 377 544 335 544 c 0,10,11
 252 544 252 544 252 502 c 0,12,13
 252 479 252 479 276.5 465.5 c 128,-1,14
 301 452 301 452 348 442 c 2,15,-1
 437 422 l 2,16,17
 623 380 623 380 623 229 c 0,18,19
 623 106 623 106 542 48 c 128,-1,20
 461 -10 461 -10 318 -10 c 0,21,22
 147.5 -10 147.5 -10 67.5 86 c 0,23,24
 25 137 25 137 25 210 c 2,25,-1
 25 222 l 2,26,27
 25 230 25 230 26 234 c 1,28,-1
 220 234 l 1,29,30
 219 231 219 231 219 222 c 0,31,32
 219 151 219 151 313 151 c 128,-1,33
 407 151 407 151 407 194 c 0,34,35
 407 228.153846154 407 228.153846154 334.5 246 c 0,36,37
 302 254 302 254 263 261.5 c 128,-1,38
 224 269 224 269 184.5 284 c 128,-1,39
 145 299 145 299 112.5 321 c 128,-1,40
 80 343 80 343 60 383 c 128,-1,41
 40 423 40 423 40 478 c 0,42,0
 40 582 40 582 122.5 639 c 128,-1,1
421 -139 m 1,43,-1
 393 -250 l 1,44,-1
 299 -250 l 1,45,-1
 315 -171 l 1,46,-1
 230 -171 l 1,47,-1
 230 -20 l 1,48,-1
 421 -20 l 1,49,-1
 421 -139 l 1,43,-1
EndSplineSet
EndChar

StartChar: T
Encoding: 84 84 79
Width: 586
GlyphClass: 2
Flags: MW
HStem: 521 165<15 189 15 571 397 571 397 397>
VStem: 189 208<0 521 0 521>
AnchorPoint: "Bottom" 293 0 basechar 0
LayerCount: 2
Fore
SplineSet
571 521 m 1,0,-1
 397 521 l 1,1,-1
 397 0 l 1,2,-1
 189 0 l 1,3,-1
 189 521 l 1,4,-1
 15 521 l 1,5,-1
 15 686 l 1,6,-1
 571 686 l 1,7,-1
 571 521 l 1,0,-1
EndSplineSet
Position2: "'cpsp' Capital Spacing lookup 0 subtable" dx=5 dy=0 dh=10 dv=0
EndChar

StartChar: Tcaron
Encoding: 356 356 80
Width: 586
GlyphClass: 2
Flags: MW
HStem: 521 165<15 189 15 571 397 571 397 397> 750 145<90 357 90 229>
VStem: 189 208<0 521 0 521>
AnchorPoint: "Bottom" 293 0 basechar 0
LayerCount: 2
Fore
SplineSet
357 750 m 1,0,-1
 229 750 l 1,1,-1
 90 895 l 1,2,-1
 220 895 l 1,3,-1
 294 818 l 1,4,-1
 368 895 l 1,5,-1
 496 895 l 1,6,-1
 357 750 l 1,0,-1
571 521 m 1,7,-1
 397 521 l 1,8,-1
 397 0 l 1,9,-1
 189 0 l 1,10,-1
 189 521 l 1,11,-1
 15 521 l 1,12,-1
 15 686 l 1,13,-1
 571 686 l 1,14,-1
 571 521 l 1,7,-1
EndSplineSet
EndChar

StartChar: Tcedilla
Encoding: 354 354 81
Width: 586
GlyphClass: 2
Flags: MW
HStem: -197 58<273.5 300 266.5 319.5> -76 59<272 290 272 293> 521 165<15 189 15 571 397 571 397 397>
VStem: 189 208<0 521 0 521> 328 87<-119.5 -98>
AnchorPoint: "Bottom" 293 0 basechar 0
LayerCount: 2
Fore
SplineSet
571 521 m 1,0,-1
 397 521 l 1,1,-1
 397 0 l 1,2,-1
 189 0 l 1,3,-1
 189 521 l 1,4,-1
 15 521 l 1,5,-1
 15 686 l 1,6,-1
 571 686 l 1,7,-1
 571 521 l 1,0,-1
272 -17 m 1,8,-1
 293 -17 l 2,9,10
 415 -17 415 -17 415 -108 c 0,11,12
 415 -142 415 -142 394 -163 c 0,13,14
 360 -197 360 -197 287 -197 c 128,-1,15
 214 -197 214 -197 171 -161 c 1,16,-1
 203 -107 l 1,17,18
 240 -139 240 -139 284 -139 c 128,-1,19
 328 -139 328 -139 328 -107.5 c 128,-1,20
 328 -76 328 -76 290 -76 c 2,21,-1
 272 -76 l 1,22,-1
 272 -17 l 1,8,-1
EndSplineSet
EndChar

StartChar: Tcommaaccent
Encoding: 538 538 82
Width: 586
GlyphClass: 2
Flags: MW
HStem: -171 151<197 282 197 388> 521 165<15 189 15 571 397 571 397 397>
VStem: 189 208<0 521 0 521>
AnchorPoint: "Bottom" 293 0 basechar 0
LayerCount: 2
Fore
SplineSet
571 521 m 1,0,-1
 397 521 l 1,1,-1
 397 0 l 1,2,-1
 189 0 l 1,3,-1
 189 521 l 1,4,-1
 15 521 l 1,5,-1
 15 686 l 1,6,-1
 571 686 l 1,7,-1
 571 521 l 1,0,-1
388 -139 m 1,8,-1
 360 -250 l 1,9,-1
 266 -250 l 1,10,-1
 282 -171 l 1,11,-1
 197 -171 l 1,12,-1
 197 -20 l 1,13,-1
 388 -20 l 1,14,-1
 388 -139 l 1,8,-1
EndSplineSet
EndChar

StartChar: U
Encoding: 85 85 83
Width: 687
GlyphClass: 2
Flags: MW
HStem: -10 156<321.5 322 322 365> -10 696<240.5 263 52 322 52 365>
VStem: 52 211<218 221 221 686> 425 210<221 686>
LayerCount: 2
Fore
SplineSet
635 686 m 1,0,-1
 635 218 l 2,1,2
 635 114 635 114 561.5 52 c 128,-1,3
 488 -10 488 -10 365 -10 c 2,4,-1
 322 -10 l 2,5,6
 199 -10 199 -10 125.5 52 c 128,-1,7
 52 114 52 114 52 218 c 2,8,-1
 52 686 l 1,9,-1
 263 686 l 1,10,-1
 263 221 l 2,11,12
 263 188 263 188 286.5 167 c 128,-1,13
 310 146 310 146 344 146 c 128,-1,14
 378 146 378 146 401.5 167 c 128,-1,15
 425 188 425 188 425 221 c 2,16,-1
 425 686 l 1,17,-1
 635 686 l 1,0,-1
EndSplineSet
Position2: "'cpsp' Capital Spacing lookup 0 subtable" dx=5 dy=0 dh=10 dv=0
EndChar

StartChar: Uacute
Encoding: 218 218 84
Width: 687
GlyphClass: 2
Flags: MW
HStem: -10 156<321.5 322 322 365> -10 696<240.5 263 52 322 52 365> 750 145<376 403 285 527>
VStem: 52 211<218 221 221 686> 425 210<221 686>
LayerCount: 2
Fore
SplineSet
529 892 m 1,0,-1
 403 750 l 1,1,-1
 285 750 l 1,2,-1
 376 895 l 1,3,-1
 527 895 l 1,4,-1
 529 892 l 1,0,-1
635 686 m 1,5,-1
 635 218 l 2,6,7
 635 114 635 114 561.5 52 c 128,-1,8
 488 -10 488 -10 365 -10 c 2,9,-1
 322 -10 l 2,10,11
 199 -10 199 -10 125.5 52 c 128,-1,12
 52 114 52 114 52 218 c 2,13,-1
 52 686 l 1,14,-1
 263 686 l 1,15,-1
 263 221 l 2,16,17
 263 188 263 188 286.5 167 c 128,-1,18
 310 146 310 146 344 146 c 128,-1,19
 378 146 378 146 401.5 167 c 128,-1,20
 425 188 425 188 425 221 c 2,21,-1
 425 686 l 1,22,-1
 635 686 l 1,5,-1
EndSplineSet
Position2: "'cpsp' Capital Spacing lookup 0 subtable" dx=5 dy=0 dh=10 dv=0
EndChar

StartChar: Ucircumflex
Encoding: 219 219 85
Width: 687
GlyphClass: 2
Flags: MW
HStem: -10 156<321.5 322 322 365> -10 696<240.5 263 52 322 52 365> 750 145<144 411 144 411 283 550 283 420>
VStem: 52 211<218 221 221 686> 425 210<221 686>
LayerCount: 2
Fore
SplineSet
550 750 m 1,0,-1
 420 750 l 1,1,-1
 346 827 l 1,2,-1
 272 750 l 1,3,-1
 144 750 l 1,4,-1
 283 895 l 1,5,-1
 411 895 l 1,6,-1
 550 750 l 1,0,-1
635 686 m 1,7,-1
 635 218 l 2,8,9
 635 114 635 114 561.5 52 c 128,-1,10
 488 -10 488 -10 365 -10 c 2,11,-1
 322 -10 l 2,12,13
 199 -10 199 -10 125.5 52 c 128,-1,14
 52 114 52 114 52 218 c 2,15,-1
 52 686 l 1,16,-1
 263 686 l 1,17,-1
 263 221 l 2,18,19
 263 188 263 188 286.5 167 c 128,-1,20
 310 146 310 146 344 146 c 128,-1,21
 378 146 378 146 401.5 167 c 128,-1,22
 425 188 425 188 425 221 c 2,23,-1
 425 686 l 1,24,-1
 635 686 l 1,7,-1
EndSplineSet
Position2: "'cpsp' Capital Spacing lookup 0 subtable" dx=5 dy=0 dh=10 dv=0
EndChar

StartChar: Udieresis
Encoding: 220 220 86
Width: 687
GlyphClass: 2
Flags: MW
HStem: -10 156<321.5 322 322 365> -10 696<240.5 263 52 322 52 365> 750 147<159 311 159 311 159 379 379 531>
VStem: 52 211<218 221 221 686> 159 152<750 897 750 897> 379 152<750 897 750 897> 425 210<221 686>
LayerCount: 2
Fore
SplineSet
311 750 m 1,0,-1
 159 750 l 1,1,-1
 159 897 l 1,2,-1
 311 897 l 1,3,-1
 311 750 l 1,0,-1
531 750 m 1,4,-1
 379 750 l 1,5,-1
 379 897 l 1,6,-1
 531 897 l 1,7,-1
 531 750 l 1,4,-1
635 686 m 1,8,-1
 635 218 l 2,9,10
 635 114 635 114 561.5 52 c 128,-1,11
 488 -10 488 -10 365 -10 c 2,12,-1
 322 -10 l 2,13,14
 199 -10 199 -10 125.5 52 c 128,-1,15
 52 114 52 114 52 218 c 2,16,-1
 52 686 l 1,17,-1
 263 686 l 1,18,-1
 263 221 l 2,19,20
 263 188 263 188 286.5 167 c 128,-1,21
 310 146 310 146 344 146 c 128,-1,22
 378 146 378 146 401.5 167 c 128,-1,23
 425 188 425 188 425 221 c 2,24,-1
 425 686 l 1,25,-1
 635 686 l 1,8,-1
EndSplineSet
Position2: "'cpsp' Capital Spacing lookup 0 subtable" dx=5 dy=0 dh=10 dv=0
EndChar

StartChar: Ugrave
Encoding: 217 217 87
Width: 687
GlyphClass: 2
Flags: MW
HStem: -10 156<321.5 322 322 365> -10 696<240.5 263 52 322 52 365> 750 145<287 314 163 405 287 287>
VStem: 52 211<218 221 221 686> 425 210<221 686>
LayerCount: 2
Fore
SplineSet
405 750 m 1,0,-1
 287 750 l 1,1,-1
 161 892 l 1,2,-1
 163 895 l 1,3,-1
 314 895 l 1,4,-1
 405 750 l 1,0,-1
635 686 m 1,5,-1
 635 218 l 2,6,7
 635 114 635 114 561.5 52 c 128,-1,8
 488 -10 488 -10 365 -10 c 2,9,-1
 322 -10 l 2,10,11
 199 -10 199 -10 125.5 52 c 128,-1,12
 52 114 52 114 52 218 c 2,13,-1
 52 686 l 1,14,-1
 263 686 l 1,15,-1
 263 221 l 2,16,17
 263 188 263 188 286.5 167 c 128,-1,18
 310 146 310 146 344 146 c 128,-1,19
 378 146 378 146 401.5 167 c 128,-1,20
 425 188 425 188 425 221 c 2,21,-1
 425 686 l 1,22,-1
 635 686 l 1,5,-1
EndSplineSet
Position2: "'cpsp' Capital Spacing lookup 0 subtable" dx=5 dy=0 dh=10 dv=0
EndChar

StartChar: Uhungarumlaut
Encoding: 368 368 88
Width: 687
GlyphClass: 2
Flags: MW
HStem: -10 156<321.5 322 322 365> -10 696<240.5 263 52 322 52 365> 750 145<229 256 138 380 365 365 365 380 456 483>
VStem: 52 211<218 221 221 686> 425 210<221 686>
LayerCount: 2
Fore
SplineSet
382 892 m 1,0,-1
 256 750 l 1,1,-1
 138 750 l 1,2,-1
 229 895 l 1,3,-1
 380 895 l 1,4,-1
 382 892 l 1,0,-1
609 892 m 1,5,-1
 483 750 l 1,6,-1
 365 750 l 1,7,-1
 456 895 l 1,8,-1
 607 895 l 1,9,-1
 609 892 l 1,5,-1
635 686 m 1,10,-1
 635 218 l 2,11,12
 635 114 635 114 561.5 52 c 128,-1,13
 488 -10 488 -10 365 -10 c 2,14,-1
 322 -10 l 2,15,16
 199 -10 199 -10 125.5 52 c 128,-1,17
 52 114 52 114 52 218 c 2,18,-1
 52 686 l 1,19,-1
 263 686 l 1,20,-1
 263 221 l 2,21,22
 263 188 263 188 286.5 167 c 128,-1,23
 310 146 310 146 344 146 c 128,-1,24
 378 146 378 146 401.5 167 c 128,-1,25
 425 188 425 188 425 221 c 2,26,-1
 425 686 l 1,27,-1
 635 686 l 1,10,-1
EndSplineSet
EndChar

StartChar: Umacron
Encoding: 362 362 89
Width: 687
GlyphClass: 2
Flags: MW
HStem: -10 156<321.5 322 322 365> -10 696<240.5 263 52 322 52 365> 837 74<185 503 185 503>
VStem: 52 211<218 221 221 686> 425 210<221 686>
LayerCount: 2
Fore
SplineSet
503 837 m 1,0,-1
 185 837 l 1,1,-1
 185 911 l 1,2,-1
 503 911 l 1,3,-1
 503 837 l 1,0,-1
635 686 m 1,4,-1
 635 218 l 2,5,6
 635 114 635 114 561.5 52 c 128,-1,7
 488 -10 488 -10 365 -10 c 2,8,-1
 322 -10 l 2,9,10
 199 -10 199 -10 125.5 52 c 128,-1,11
 52 114 52 114 52 218 c 2,12,-1
 52 686 l 1,13,-1
 263 686 l 1,14,-1
 263 221 l 2,15,16
 263 188 263 188 286.5 167 c 128,-1,17
 310 146 310 146 344 146 c 128,-1,18
 378 146 378 146 401.5 167 c 128,-1,19
 425 188 425 188 425 221 c 2,20,-1
 425 686 l 1,21,-1
 635 686 l 1,4,-1
EndSplineSet
EndChar

StartChar: Uogonek
Encoding: 370 370 90
Width: 687
GlyphClass: 2
Flags: MW
HStem: -143 53<435.5 440.5> -10 156<321.5 322 322 365> -10 696<240.5 263 52 322 52 365> 666 20G<52 263 263 263 425 635 635 635>
VStem: 52 211<218 221 221 686> 325 77<-69.5 -58> 425 210<221 686>
LayerCount: 2
Fore
SplineSet
635 686 m 1,0,-1
 635 218 l 2,1,2
 635 133 635 133 584.5 75 c 128,-1,3
 534 17 534 17 446 -2 c 1,4,5
 402 -30 402 -30 402 -56 c 0,6,7
 402 -90 402 -90 446 -90 c 0,8,9
 476 -90 476 -90 513 -76 c 1,10,-1
 526 -119 l 1,11,12
 478 -143 478 -143 430 -143 c 0,13,14
 325 -143 325 -143 325 -71 c 0,15,16
 325 -40 325 -40 365 -10 c 1,17,-1
 322 -10 l 2,18,19
 199 -10 199 -10 125.5 52 c 128,-1,20
 52 114 52 114 52 218 c 2,21,-1
 52 686 l 1,22,-1
 263 686 l 1,23,-1
 263 221 l 2,24,25
 263 188 263 188 286.5 167 c 128,-1,26
 310 146 310 146 344 146 c 128,-1,27
 378 146 378 146 401.5 167 c 128,-1,28
 425 188 425 188 425 221 c 2,29,-1
 425 686 l 1,30,-1
 635 686 l 1,0,-1
EndSplineSet
EndChar

StartChar: Uring
Encoding: 366 366 91
Width: 687
GlyphClass: 2
Flags: MW
HStem: -10 156<321.5 322 322 365> -10 696<240.5 263 52 322 52 365> 720 65<334.5 354 334.5 372> 855 66<334 353.5>
VStem: 52 211<218 221 221 686> 243 66<809.5 829 809.5 848> 379 66<811 830.5> 425 210<221 686>
LayerCount: 2
Fore
SplineSet
272.5 891.5 m 128,-1,1
 302 921 302 921 343.5 921 c 128,-1,2
 385 921 385 921 415 891.5 c 128,-1,3
 445 862 445 862 445 820.5 c 128,-1,4
 445 779 445 779 415.5 749.5 c 128,-1,5
 386 720 386 720 344 720 c 128,-1,6
 302 720 302 720 272.5 749 c 128,-1,7
 243 778 243 778 243 820 c 128,-1,0
 243 862 243 862 272.5 891.5 c 128,-1,1
368.5 845 m 128,-1,9
 358 855 358 855 343.5 855 c 128,-1,10
 329 855 329 855 319 844.5 c 128,-1,11
 309 834 309 834 309 819.5 c 128,-1,12
 309 805 309 805 319.5 795 c 128,-1,13
 330 785 330 785 344.5 785 c 128,-1,14
 359 785 359 785 369 795.5 c 128,-1,15
 379 806 379 806 379 820.5 c 128,-1,8
 379 835 379 835 368.5 845 c 128,-1,9
635 686 m 1,16,-1
 635 218 l 2,17,18
 635 114 635 114 561.5 52 c 128,-1,19
 488 -10 488 -10 365 -10 c 2,20,-1
 322 -10 l 2,21,22
 199 -10 199 -10 125.5 52 c 128,-1,23
 52 114 52 114 52 218 c 2,24,-1
 52 686 l 1,25,-1
 263 686 l 1,26,-1
 263 221 l 2,27,28
 263 188 263 188 286.5 167 c 128,-1,29
 310 146 310 146 344 146 c 128,-1,30
 378 146 378 146 401.5 167 c 128,-1,31
 425 188 425 188 425 221 c 2,32,-1
 425 686 l 1,33,-1
 635 686 l 1,16,-1
EndSplineSet
EndChar

StartChar: V
Encoding: 86 86 92
Width: 656
GlyphClass: 2
Flags: MW
HStem: 0 260<335 339 335 452 202 339> 0 686<202 215 -3 452 202 202>
VStem: -3 663<686 686>
LayerCount: 2
Fore
SplineSet
452 0 m 1,0,-1
 202 0 l 1,1,-1
 -3 686 l 1,2,-1
 215 686 l 1,3,-1
 335 260 l 1,4,-1
 339 260 l 1,5,-1
 458 686 l 1,6,-1
 660 686 l 1,7,-1
 452 0 l 1,0,-1
EndSplineSet
Position2: "'cpsp' Capital Spacing lookup 0 subtable" dx=5 dy=0 dh=10 dv=0
EndChar

StartChar: W
Encoding: 87 87 93
Width: 1021
GlyphClass: 2
Flags: MW
HStem: 0 305<312 316 312 427 185 316 725 729 312 599> 0 686<185 215 414 427 185 185 599 629 826 837 599 599> 329 357<510 516 510 510>
VStem: -2 1025<686 686>
LayerCount: 2
Fore
SplineSet
837 0 m 1,0,-1
 599 0 l 1,1,-1
 516 329 l 1,2,-1
 510 329 l 1,3,-1
 427 0 l 1,4,-1
 185 0 l 1,5,-1
 -2 686 l 1,6,-1
 215 686 l 1,7,-1
 312 305 l 1,8,-1
 316 305 l 1,9,-1
 414 686 l 1,10,-1
 629 686 l 1,11,-1
 725 305 l 1,12,-1
 729 305 l 1,13,-1
 826 686 l 1,14,-1
 1023 686 l 1,15,-1
 837 0 l 1,0,-1
EndSplineSet
Position2: "'cpsp' Capital Spacing lookup 0 subtable" dx=5 dy=0 dh=10 dv=0
EndChar

StartChar: X
Encoding: 88 88 94
Width: 675
GlyphClass: 2
Flags: MW
HStem: 0 686<7 211 -15 250 446 669 7 690 446 446> 491 20G<345 349 349 349>
VStem: -15 705<0 0>
LayerCount: 2
Fore
SplineSet
475 362 m 1,0,-1
 690 0 l 1,1,-1
 446 0 l 1,2,-1
 330 213 l 1,3,-1
 326 213 l 1,4,-1
 211 0 l 1,5,-1
 -15 0 l 1,6,-1
 200 363 l 1,7,-1
 7 686 l 1,8,-1
 250 686 l 1,9,-1
 345 511 l 1,10,-1
 349 511 l 1,11,-1
 444 686 l 1,12,-1
 669 686 l 1,13,-1
 475 362 l 1,0,-1
EndSplineSet
Position2: "'cpsp' Capital Spacing lookup 0 subtable" dx=5 dy=0 dh=10 dv=0
EndChar

StartChar: Y
Encoding: 89 89 95
Width: 646
GlyphClass: 2
Flags: MW
HStem: 0 686<219 227 -9 428 219 219>
VStem: 219 209<0 262 0 262>
LayerCount: 2
Fore
SplineSet
428 262 m 1,0,-1
 428 0 l 1,1,-1
 219 0 l 1,2,-1
 219 262 l 1,3,-1
 -9 686 l 1,4,-1
 227 686 l 1,5,-1
 330 461 l 1,6,-1
 335 461 l 1,7,-1
 440 686 l 1,8,-1
 655 686 l 1,9,-1
 428 262 l 1,0,-1
EndSplineSet
Position2: "'cpsp' Capital Spacing lookup 0 subtable" dx=5 dy=0 dh=10 dv=0
EndChar

StartChar: Yacute
Encoding: 221 221 96
Width: 646
GlyphClass: 2
Flags: MW
HStem: 0 686<219 227 -9 428 219 219> 750 145<361 388 270 512>
VStem: 219 209<0 262 0 262>
LayerCount: 2
Fore
SplineSet
514 892 m 1,0,-1
 388 750 l 1,1,-1
 270 750 l 1,2,-1
 361 895 l 1,3,-1
 512 895 l 1,4,-1
 514 892 l 1,0,-1
428 262 m 1,5,-1
 428 0 l 1,6,-1
 219 0 l 1,7,-1
 219 262 l 1,8,-1
 -9 686 l 1,9,-1
 227 686 l 1,10,-1
 330 461 l 1,11,-1
 335 461 l 1,12,-1
 440 686 l 1,13,-1
 655 686 l 1,14,-1
 428 262 l 1,5,-1
EndSplineSet
Position2: "'cpsp' Capital Spacing lookup 0 subtable" dx=5 dy=0 dh=10 dv=0
EndChar

StartChar: Ydieresis
Encoding: 376 376 97
Width: 646
GlyphClass: 2
Flags: MW
HStem: 0 686<219 227 -9 428 219 219> 750 147<149 301 149 301 149 369 369 521>
VStem: 149 152<750 897 750 897> 219 209<0 262 0 262> 369 152<750 897 750 897>
LayerCount: 2
Fore
SplineSet
301 750 m 1,0,-1
 149 750 l 1,1,-1
 149 897 l 1,2,-1
 301 897 l 1,3,-1
 301 750 l 1,0,-1
521 750 m 1,4,-1
 369 750 l 1,5,-1
 369 897 l 1,6,-1
 521 897 l 1,7,-1
 521 750 l 1,4,-1
428 262 m 1,8,-1
 428 0 l 1,9,-1
 219 0 l 1,10,-1
 219 262 l 1,11,-1
 -9 686 l 1,12,-1
 227 686 l 1,13,-1
 330 461 l 1,14,-1
 335 461 l 1,15,-1
 440 686 l 1,16,-1
 655 686 l 1,17,-1
 428 262 l 1,8,-1
EndSplineSet
Position2: "'cpsp' Capital Spacing lookup 0 subtable" dx=5 dy=0 dh=10 dv=0
EndChar

StartChar: Z
Encoding: 90 90 98
Width: 608
GlyphClass: 2
Flags: MW
HStem: 0 161<314 585 314 585> 526 160<38 282 38 577>
VStem: 14 571<0 61 61 61>
LayerCount: 2
Fore
SplineSet
577 625 m 1,0,-1
 314 161 l 1,1,-1
 585 161 l 1,2,-1
 585 0 l 1,3,-1
 14 0 l 1,4,-1
 14 61 l 1,5,-1
 282 526 l 1,6,-1
 38 526 l 1,7,-1
 38 686 l 1,8,-1
 577 686 l 1,9,-1
 577 625 l 1,0,-1
EndSplineSet
Position2: "'cpsp' Capital Spacing lookup 0 subtable" dx=5 dy=0 dh=10 dv=0
EndChar

StartChar: Zacute
Encoding: 377 377 99
Width: 608
GlyphClass: 2
Flags: MW
HStem: 0 161<314 585 314 585> 526 160<38 282 38 577> 750 145<323 350 232 474>
VStem: 14 571<0 61 61 61>
LayerCount: 2
Fore
SplineSet
476 892 m 1,0,-1
 350 750 l 1,1,-1
 232 750 l 1,2,-1
 323 895 l 1,3,-1
 474 895 l 1,4,-1
 476 892 l 1,0,-1
577 625 m 1,5,-1
 314 161 l 1,6,-1
 585 161 l 1,7,-1
 585 0 l 1,8,-1
 14 0 l 1,9,-1
 14 61 l 1,10,-1
 282 526 l 1,11,-1
 38 526 l 1,12,-1
 38 686 l 1,13,-1
 577 686 l 1,14,-1
 577 625 l 1,5,-1
EndSplineSet
EndChar

StartChar: Zcaron
Encoding: 381 381 100
Width: 608
GlyphClass: 2
Flags: MW
HStem: 0 161<314 585 314 585> 526 160<38 282 38 577> 750 145<105 372 105 244>
VStem: 14 571<0 61 61 61>
LayerCount: 2
Fore
SplineSet
372 750 m 1,0,-1
 244 750 l 1,1,-1
 105 895 l 1,2,-1
 235 895 l 1,3,-1
 309 818 l 1,4,-1
 383 895 l 1,5,-1
 511 895 l 1,6,-1
 372 750 l 1,0,-1
577 625 m 1,7,-1
 314 161 l 1,8,-1
 585 161 l 1,9,-1
 585 0 l 1,10,-1
 14 0 l 1,11,-1
 14 61 l 1,12,-1
 282 526 l 1,13,-1
 38 526 l 1,14,-1
 38 686 l 1,15,-1
 577 686 l 1,16,-1
 577 625 l 1,7,-1
EndSplineSet
Position2: "'cpsp' Capital Spacing lookup 0 subtable" dx=5 dy=0 dh=10 dv=0
EndChar

StartChar: Zdotaccent
Encoding: 379 379 101
Width: 608
GlyphClass: 2
Flags: MW
HStem: 0 161<314 585 314 585> 526 160<38 282 38 577> 779 132<285.5 321.5>
VStem: 238 132<827 863 825.5 863.5>
LayerCount: 2
Fore
SplineSet
304 911 m 128,-1,1
 332 911 332 911 351 891.5 c 128,-1,2
 370 872 370 872 370 844 c 0,3,4
 370 816 370 816 350.5 797.5 c 128,-1,5
 331 779 331 779 304 779 c 0,6,7
 277 779 277 779 257.5 798.5 c 128,-1,8
 238 818 238 818 238 845.5 c 0,9,10
 238 873 238 873 257 892 c 128,-1,0
 276 911 276 911 304 911 c 128,-1,1
577 625 m 1,11,-1
 314 161 l 1,12,-1
 585 161 l 1,13,-1
 585 0 l 1,14,-1
 14 0 l 1,15,-1
 14 61 l 1,16,-1
 282 526 l 1,17,-1
 38 526 l 1,18,-1
 38 686 l 1,19,-1
 577 686 l 1,20,-1
 577 625 l 1,11,-1
EndSplineSet
EndChar

StartChar: a
Encoding: 97 97 102
Width: 624
GlyphClass: 2
Flags: MW
HStem: -10 121<162.5 309> 225 91<313 359> 354 167<40 312> 405 116<279.5 312>
VStem: 24 207<139.5 178.5 139.5 214> 39 191<354 410.5> 359 192<181 225 225 225 316 345 345 359>
LayerCount: 2
Fore
SplineSet
279 521 m 2,0,-1
 312 521 l 2,1,2
 428 521 428 521 489.5 476 c 128,-1,3
 551 431 551 431 551 359 c 2,4,-1
 551 148 l 2,5,6
 551 129 551 129 560 120 c 128,-1,7
 569 111 569 111 584.5 111 c 128,-1,8
 600 111 600 111 617 120 c 1,9,-1
 617 13 l 1,10,11
 585 -10 585 -10 516 -10 c 0,12,13
 388 -10 388 -10 369 71 c 1,14,15
 298 -10 298 -10 204 -10 c 0,16,17
 74.0769230769 -10 74.0769230769 -10 39.5 62.5 c 0,18,19
 24 95 24 95 24 143 c 0,20,21
 24 243 24 243 106.5 279.5 c 128,-1,22
 189 316 189 316 359 316 c 1,23,-1
 359 345 l 2,24,25
 359 373 359 373 340.5 389 c 128,-1,26
 322 405 322 405 296.5 405 c 128,-1,27
 271 405 271 405 250.5 391.5 c 128,-1,28
 230 378 230 378 230 358 c 2,29,-1
 230 354 l 1,30,-1
 40 354 l 1,31,32
 39 357 39 357 39 368 c 0,33,34
 39 433 39 433 105 477 c 128,-1,35
 171 521 171 521 279 521 c 2,0,-1
359 181 m 2,36,-1
 359 225 l 1,37,38
 231 225 231 225 231 159 c 0,39,40
 231 111 231 111 291 111 c 0,41,42
 319 111 319 111 339 130.5 c 128,-1,43
 359 150 359 150 359 181 c 2,36,-1
EndSplineSet
Substitution2: "Single Substitution lookup 5 subtable" ordfeminine
Substitution2: "'aalt' Access All Alternates lookup 0 subtable" ordfeminine
EndChar

StartChar: aacute
Encoding: 225 225 103
Width: 624
GlyphClass: 2
Flags: MW
HStem: -10 121<162.5 309> 225 91<313 359> 354 167<40 312> 405 116<279.5 312> 575 145<336 363 245 487>
VStem: 24 207<139.5 178.5 139.5 214> 39 191<354 410.5> 359 192<181 225 225 225 316 345 345 359>
LayerCount: 2
Fore
SplineSet
489 717 m 1,0,-1
 363 575 l 1,1,-1
 245 575 l 1,2,-1
 336 720 l 1,3,-1
 487 720 l 1,4,-1
 489 717 l 1,0,-1
279 521 m 2,5,-1
 312 521 l 2,6,7
 428 521 428 521 489.5 476 c 128,-1,8
 551 431 551 431 551 359 c 2,9,-1
 551 148 l 2,10,11
 551 129 551 129 560 120 c 128,-1,12
 569 111 569 111 584.5 111 c 128,-1,13
 600 111 600 111 617 120 c 1,14,-1
 617 13 l 1,15,16
 585 -10 585 -10 516 -10 c 0,17,18
 388 -10 388 -10 369 71 c 1,19,20
 298 -10 298 -10 204 -10 c 0,21,22
 74.0769230769 -10 74.0769230769 -10 39.5 62.5 c 0,23,24
 24 95 24 95 24 143 c 0,25,26
 24 243 24 243 106.5 279.5 c 128,-1,27
 189 316 189 316 359 316 c 1,28,-1
 359 345 l 2,29,30
 359 373 359 373 340.5 389 c 128,-1,31
 322 405 322 405 296.5 405 c 128,-1,32
 271 405 271 405 250.5 391.5 c 128,-1,33
 230 378 230 378 230 358 c 2,34,-1
 230 354 l 1,35,-1
 40 354 l 1,36,37
 39 357 39 357 39 368 c 0,38,39
 39 433 39 433 105 477 c 128,-1,40
 171 521 171 521 279 521 c 2,5,-1
359 181 m 2,41,-1
 359 225 l 1,42,43
 231 225 231 225 231 159 c 0,44,45
 231 111 231 111 291 111 c 0,46,47
 319 111 319 111 339 130.5 c 128,-1,48
 359 150 359 150 359 181 c 2,41,-1
EndSplineSet
EndChar

StartChar: abreve
Encoding: 259 259 104
Width: 624
GlyphClass: 2
Flags: MW
HStem: -10 121<162.5 309> 225 91<313 359> 354 167<40 312> 354 383<120 216 120 230 40 216> 405 116<279.5 312> 613 86<285.5 339 285.5 365.5>
VStem: 24 207<139.5 178.5 139.5 214> 39 191<354 410.5> 120 96<731.5 737 731.5 737> 359 192<181 225 225 225 316 345 345 359> 410 95<731.5 737>
LayerCount: 2
Fore
SplineSet
410 737 m 1,0,-1
 505 737 l 1,1,2
 505 693 505 693 447 653 c 128,-1,3
 389 613 389 613 312 613 c 128,-1,4
 235 613 235 613 177.5 653 c 128,-1,5
 120 693 120 693 120 737 c 1,6,-1
 216 737 l 1,7,8
 216 731 216 731 228.5 722.5 c 128,-1,9
 241 714 241 714 264 706.5 c 128,-1,10
 287 699 287 699 312 699 c 128,-1,11
 337 699 337 699 360.5 706.5 c 128,-1,12
 384 714 384 714 397 722.5 c 128,-1,13
 410 731 410 731 410 737 c 1,0,-1
279 521 m 2,14,-1
 312 521 l 2,15,16
 428 521 428 521 489.5 476 c 128,-1,17
 551 431 551 431 551 359 c 2,18,-1
 551 148 l 2,19,20
 551 129 551 129 560 120 c 128,-1,21
 569 111 569 111 584.5 111 c 128,-1,22
 600 111 600 111 617 120 c 1,23,-1
 617 13 l 1,24,25
 585 -10 585 -10 516 -10 c 0,26,27
 388 -10 388 -10 369 71 c 1,28,29
 298 -10 298 -10 204 -10 c 0,30,31
 74.0769230769 -10 74.0769230769 -10 39.5 62.5 c 0,32,33
 24 95 24 95 24 143 c 0,34,35
 24 243 24 243 106.5 279.5 c 128,-1,36
 189 316 189 316 359 316 c 1,37,-1
 359 345 l 2,38,39
 359 373 359 373 340.5 389 c 128,-1,40
 322 405 322 405 296.5 405 c 128,-1,41
 271 405 271 405 250.5 391.5 c 128,-1,42
 230 378 230 378 230 358 c 2,43,-1
 230 354 l 1,44,-1
 40 354 l 1,45,46
 39 357 39 357 39 368 c 0,47,48
 39 433 39 433 105 477 c 128,-1,49
 171 521 171 521 279 521 c 2,14,-1
359 181 m 2,50,-1
 359 225 l 1,51,52
 231 225 231 225 231 159 c 0,53,54
 231 111 231 111 291 111 c 0,55,56
 319 111 319 111 339 130.5 c 128,-1,57
 359 150 359 150 359 181 c 2,50,-1
EndSplineSet
EndChar

StartChar: acircumflex
Encoding: 226 226 105
Width: 624
GlyphClass: 2
Flags: MW
HStem: -10 121<162.5 309> 225 91<313 359> 354 167<40 312> 405 116<279.5 312> 575 145<98 365 98 365 237 504 237 374> 652 68<300 300>
VStem: 24 207<139.5 178.5 139.5 214> 39 191<354 410.5> 359 192<181 225 225 225 316 345 345 359>
LayerCount: 2
Fore
SplineSet
504 575 m 1,0,-1
 374 575 l 1,1,-1
 300 652 l 1,2,-1
 226 575 l 1,3,-1
 98 575 l 1,4,-1
 237 720 l 1,5,-1
 365 720 l 1,6,-1
 504 575 l 1,0,-1
279 521 m 2,7,-1
 312 521 l 2,8,9
 428 521 428 521 489.5 476 c 128,-1,10
 551 431 551 431 551 359 c 2,11,-1
 551 148 l 2,12,13
 551 129 551 129 560 120 c 128,-1,14
 569 111 569 111 584.5 111 c 128,-1,15
 600 111 600 111 617 120 c 1,16,-1
 617 13 l 1,17,18
 585 -10 585 -10 516 -10 c 0,19,20
 388 -10 388 -10 369 71 c 1,21,22
 298 -10 298 -10 204 -10 c 0,23,24
 74.0769230769 -10 74.0769230769 -10 39.5 62.5 c 0,25,26
 24 95 24 95 24 143 c 0,27,28
 24 243 24 243 106.5 279.5 c 128,-1,29
 189 316 189 316 359 316 c 1,30,-1
 359 345 l 2,31,32
 359 373 359 373 340.5 389 c 128,-1,33
 322 405 322 405 296.5 405 c 128,-1,34
 271 405 271 405 250.5 391.5 c 128,-1,35
 230 378 230 378 230 358 c 2,36,-1
 230 354 l 1,37,-1
 40 354 l 1,38,39
 39 357 39 357 39 368 c 0,40,41
 39 433 39 433 105 477 c 128,-1,42
 171 521 171 521 279 521 c 2,7,-1
359 181 m 2,43,-1
 359 225 l 1,44,45
 231 225 231 225 231 159 c 0,46,47
 231 111 231 111 291 111 c 0,48,49
 319 111 319 111 339 130.5 c 128,-1,50
 359 150 359 150 359 181 c 2,43,-1
EndSplineSet
EndChar

StartChar: adieresis
Encoding: 228 228 106
Width: 624
GlyphClass: 2
Flags: MW
HStem: -10 121<162.5 309> 225 91<313 359> 354 167<40 312> 405 116<279.5 312> 573 147<111 263 111 263 111 331 331 483>
VStem: 24 207<139.5 178.5 139.5 214> 39 191<354 410.5> 111 152<573 720 573 720> 331 152<573 720 573 720> 359 192<181 225 225 225 316 345 345 359>
LayerCount: 2
Fore
SplineSet
263 573 m 1,0,-1
 111 573 l 1,1,-1
 111 720 l 1,2,-1
 263 720 l 1,3,-1
 263 573 l 1,0,-1
483 573 m 1,4,-1
 331 573 l 1,5,-1
 331 720 l 1,6,-1
 483 720 l 1,7,-1
 483 573 l 1,4,-1
279 521 m 2,8,-1
 312 521 l 2,9,10
 428 521 428 521 489.5 476 c 128,-1,11
 551 431 551 431 551 359 c 2,12,-1
 551 148 l 2,13,14
 551 129 551 129 560 120 c 128,-1,15
 569 111 569 111 584.5 111 c 128,-1,16
 600 111 600 111 617 120 c 1,17,-1
 617 13 l 1,18,19
 585 -10 585 -10 516 -10 c 0,20,21
 388 -10 388 -10 369 71 c 1,22,23
 298 -10 298 -10 204 -10 c 0,24,25
 74.0769230769 -10 74.0769230769 -10 39.5 62.5 c 0,26,27
 24 95 24 95 24 143 c 0,28,29
 24 243 24 243 106.5 279.5 c 128,-1,30
 189 316 189 316 359 316 c 1,31,-1
 359 345 l 2,32,33
 359 373 359 373 340.5 389 c 128,-1,34
 322 405 322 405 296.5 405 c 128,-1,35
 271 405 271 405 250.5 391.5 c 128,-1,36
 230 378 230 378 230 358 c 2,37,-1
 230 354 l 1,38,-1
 40 354 l 1,39,40
 39 357 39 357 39 368 c 0,41,42
 39 433 39 433 105 477 c 128,-1,43
 171 521 171 521 279 521 c 2,8,-1
359 181 m 2,44,-1
 359 225 l 1,45,46
 231 225 231 225 231 159 c 0,47,48
 231 111 231 111 291 111 c 0,49,50
 319 111 319 111 339 130.5 c 128,-1,51
 359 150 359 150 359 181 c 2,44,-1
EndSplineSet
EndChar

StartChar: agrave
Encoding: 224 224 107
Width: 624
GlyphClass: 2
Flags: MW
HStem: -10 121<162.5 309> 225 91<313 359> 354 167<40 312> 405 116<279.5 312> 575 145<240 267 116 358 240 240>
VStem: 24 207<139.5 178.5 139.5 214> 39 191<354 410.5> 359 192<181 225 225 225 316 345 345 359>
LayerCount: 2
Fore
SplineSet
358 575 m 1,0,-1
 240 575 l 1,1,-1
 114 717 l 1,2,-1
 116 720 l 1,3,-1
 267 720 l 1,4,-1
 358 575 l 1,0,-1
279 521 m 2,5,-1
 312 521 l 2,6,7
 428 521 428 521 489.5 476 c 128,-1,8
 551 431 551 431 551 359 c 2,9,-1
 551 148 l 2,10,11
 551 129 551 129 560 120 c 128,-1,12
 569 111 569 111 584.5 111 c 128,-1,13
 600 111 600 111 617 120 c 1,14,-1
 617 13 l 1,15,16
 585 -10 585 -10 516 -10 c 0,17,18
 388 -10 388 -10 369 71 c 1,19,20
 298 -10 298 -10 204 -10 c 0,21,22
 74.0769230769 -10 74.0769230769 -10 39.5 62.5 c 0,23,24
 24 95 24 95 24 143 c 0,25,26
 24 243 24 243 106.5 279.5 c 128,-1,27
 189 316 189 316 359 316 c 1,28,-1
 359 345 l 2,29,30
 359 373 359 373 340.5 389 c 128,-1,31
 322 405 322 405 296.5 405 c 128,-1,32
 271 405 271 405 250.5 391.5 c 128,-1,33
 230 378 230 378 230 358 c 2,34,-1
 230 354 l 1,35,-1
 40 354 l 1,36,37
 39 357 39 357 39 368 c 0,38,39
 39 433 39 433 105 477 c 128,-1,40
 171 521 171 521 279 521 c 2,5,-1
359 181 m 2,41,-1
 359 225 l 1,42,43
 231 225 231 225 231 159 c 0,44,45
 231 111 231 111 291 111 c 0,46,47
 319 111 319 111 339 130.5 c 128,-1,48
 359 150 359 150 359 181 c 2,41,-1
EndSplineSet
EndChar

StartChar: amacron
Encoding: 257 257 108
Width: 624
GlyphClass: 2
Flags: MW
HStem: -10 121<162.5 309> 225 91<313 359> 354 167<40 312> 405 116<279.5 312> 662 74<153 471 153 471>
VStem: 24 207<139.5 178.5 139.5 214> 39 191<354 410.5> 153 318<662 736 662 736> 359 192<181 225 225 225 316 345 345 359>
LayerCount: 2
Fore
SplineSet
471 662 m 1,0,-1
 153 662 l 1,1,-1
 153 736 l 1,2,-1
 471 736 l 1,3,-1
 471 662 l 1,0,-1
279 521 m 2,4,-1
 312 521 l 2,5,6
 428 521 428 521 489.5 476 c 128,-1,7
 551 431 551 431 551 359 c 2,8,-1
 551 148 l 2,9,10
 551 129 551 129 560 120 c 128,-1,11
 569 111 569 111 584.5 111 c 128,-1,12
 600 111 600 111 617 120 c 1,13,-1
 617 13 l 1,14,15
 585 -10 585 -10 516 -10 c 0,16,17
 388 -10 388 -10 369 71 c 1,18,19
 298 -10 298 -10 204 -10 c 0,20,21
 74.0769230769 -10 74.0769230769 -10 39.5 62.5 c 0,22,23
 24 95 24 95 24 143 c 0,24,25
 24 243 24 243 106.5 279.5 c 128,-1,26
 189 316 189 316 359 316 c 1,27,-1
 359 345 l 2,28,29
 359 373 359 373 340.5 389 c 128,-1,30
 322 405 322 405 296.5 405 c 128,-1,31
 271 405 271 405 250.5 391.5 c 128,-1,32
 230 378 230 378 230 358 c 2,33,-1
 230 354 l 1,34,-1
 40 354 l 1,35,36
 39 357 39 357 39 368 c 0,37,38
 39 433 39 433 105 477 c 128,-1,39
 171 521 171 521 279 521 c 2,4,-1
359 181 m 2,40,-1
 359 225 l 1,41,42
 231 225 231 225 231 159 c 0,43,44
 231 111 231 111 291 111 c 0,45,46
 319 111 319 111 339 130.5 c 128,-1,47
 359 150 359 150 359 181 c 2,40,-1
EndSplineSet
EndChar

StartChar: aogonek
Encoding: 261 261 109
Width: 624
GlyphClass: 2
Flags: MW
HStem: -143 53<549.5 554.5> -10 121<162.5 309> 225 91<313 359> 354 167<40 312> 405 116<279.5 312>
VStem: 24 207<139.5 178.5 139.5 214> 39 191<354 410.5> 359 192<181 225 225 225 316 345 345 359> 439 77<-69.5 -57.5>
LayerCount: 2
Fore
SplineSet
627 -76 m 1,0,-1
 640 -119 l 1,1,2
 592 -143 592 -143 544 -143 c 0,3,4
 439 -143 439 -143 439 -71 c 0,5,6
 439 -40 439 -40 481 -8 c 1,7,8
 384 2 384 2 369 71 c 1,9,10
 298 -10 298 -10 204 -10 c 0,11,12
 74.0769230769 -10 74.0769230769 -10 39.5 62.5 c 0,13,14
 24 95 24 95 24 143 c 0,15,16
 24 243 24 243 106.5 279.5 c 128,-1,17
 189 316 189 316 359 316 c 1,18,-1
 359 345 l 2,19,20
 359 373 359 373 340.5 389 c 128,-1,21
 322 405 322 405 296.5 405 c 128,-1,22
 271 405 271 405 250.5 391.5 c 128,-1,23
 230 378 230 378 230 358 c 2,24,-1
 230 354 l 1,25,-1
 40 354 l 1,26,27
 39 357 39 357 39 368 c 0,28,29
 39 433 39 433 105 477 c 128,-1,30
 171 521 171 521 279 521 c 2,31,-1
 312 521 l 2,32,33
 428 521 428 521 489.5 476 c 128,-1,34
 551 431 551 431 551 359 c 2,35,-1
 551 148 l 2,36,37
 551 129 551 129 560 120 c 128,-1,38
 569 111 569 111 584.5 111 c 128,-1,39
 600 111 600 111 617 120 c 1,40,-1
 617 13 l 1,41,42
 593 -4 593 -4 550 -8 c 1,43,44
 516 -32 516 -32 516 -56 c 0,45,46
 516 -90 516 -90 560 -90 c 0,47,48
 590 -90 590 -90 627 -76 c 1,0,-1
359 181 m 2,49,-1
 359 225 l 1,50,51
 231 225 231 225 231 159 c 0,52,53
 231 111 231 111 291 111 c 0,54,55
 319 111 319 111 339 130.5 c 128,-1,56
 359 150 359 150 359 181 c 2,49,-1
EndSplineSet
EndChar

StartChar: aring
Encoding: 229 229 110
Width: 624
GlyphClass: 2
Flags: MW
HStem: -10 121<162.5 309> 225 91<313 359> 354 167<40 312> 405 116<279.5 312> 559 65<286.5 306 286.5 324> 694 66<286 305.5>
VStem: 24 207<139.5 178.5 139.5 214> 39 191<354 410.5> 195 66<648.5 668 648.5 687> 331 66<650 669.5> 359 192<181 225 225 225 316 345 345 359>
LayerCount: 2
Fore
SplineSet
224.5 730.5 m 128,-1,1
 254 760 254 760 295.5 760 c 128,-1,2
 337 760 337 760 367 730.5 c 128,-1,3
 397 701 397 701 397 659.5 c 128,-1,4
 397 618 397 618 367.5 588.5 c 128,-1,5
 338 559 338 559 296 559 c 128,-1,6
 254 559 254 559 224.5 588 c 128,-1,7
 195 617 195 617 195 659 c 128,-1,0
 195 701 195 701 224.5 730.5 c 128,-1,1
320.5 684 m 128,-1,9
 310 694 310 694 295.5 694 c 128,-1,10
 281 694 281 694 271 683.5 c 128,-1,11
 261 673 261 673 261 658.5 c 128,-1,12
 261 644 261 644 271.5 634 c 128,-1,13
 282 624 282 624 296.5 624 c 128,-1,14
 311 624 311 624 321 634.5 c 128,-1,15
 331 645 331 645 331 659.5 c 128,-1,8
 331 674 331 674 320.5 684 c 128,-1,9
279 521 m 2,16,-1
 312 521 l 2,17,18
 428 521 428 521 489.5 476 c 128,-1,19
 551 431 551 431 551 359 c 2,20,-1
 551 148 l 2,21,22
 551 129 551 129 560 120 c 128,-1,23
 569 111 569 111 584.5 111 c 128,-1,24
 600 111 600 111 617 120 c 1,25,-1
 617 13 l 1,26,27
 585 -10 585 -10 516 -10 c 0,28,29
 388 -10 388 -10 369 71 c 1,30,31
 298 -10 298 -10 204 -10 c 0,32,33
 74.0769230769 -10 74.0769230769 -10 39.5 62.5 c 0,34,35
 24 95 24 95 24 143 c 0,36,37
 24 243 24 243 106.5 279.5 c 128,-1,38
 189 316 189 316 359 316 c 1,39,-1
 359 345 l 2,40,41
 359 373 359 373 340.5 389 c 128,-1,42
 322 405 322 405 296.5 405 c 128,-1,43
 271 405 271 405 250.5 391.5 c 128,-1,44
 230 378 230 378 230 358 c 2,45,-1
 230 354 l 1,46,-1
 40 354 l 1,47,48
 39 357 39 357 39 368 c 0,49,50
 39 433 39 433 105 477 c 128,-1,51
 171 521 171 521 279 521 c 2,16,-1
359 181 m 2,52,-1
 359 225 l 1,53,54
 231 225 231 225 231 159 c 0,55,56
 231 111 231 111 291 111 c 0,57,58
 319 111 319 111 339 130.5 c 128,-1,59
 359 150 359 150 359 181 c 2,52,-1
EndSplineSet
EndChar

StartChar: atilde
Encoding: 227 227 111
Width: 624
GlyphClass: 2
Flags: MW
HStem: -10 121<162.5 309> 225 91<313 359> 354 167<40 312> 405 116<279.5 312> 577 103<367 404.5 365.5 421.5> 577 143<79 251 79 251 180.5 421.5> 617 103<197.5 216.5>
VStem: 24 207<139.5 178.5 139.5 214> 39 191<354 410.5> 359 192<181 225 225 225 316 345 345 359>
LayerCount: 2
Fore
SplineSet
442 720 m 1,0,-1
 523 720 l 1,1,2
 523 665 523 665 481.5 621 c 128,-1,3
 440 577 440 577 383 577 c 0,4,5
 345 577 345 577 292 596 c 1,6,-1
 250 610 l 2,7,8
 227 617 227 617 210 617 c 0,9,10
 172 617 172 617 160 577 c 1,11,-1
 79 577 l 1,12,13
 79 632 79 632 120.5 676 c 128,-1,14
 162 720 162 720 219 720 c 0,15,16
 252 720 252 720 309.5 700 c 128,-1,17
 367 680 367 680 392 680 c 0,18,19
 430 680 430 680 442 720 c 1,0,-1
279 521 m 2,20,-1
 312 521 l 2,21,22
 428 521 428 521 489.5 476 c 128,-1,23
 551 431 551 431 551 359 c 2,24,-1
 551 148 l 2,25,26
 551 129 551 129 560 120 c 128,-1,27
 569 111 569 111 584.5 111 c 128,-1,28
 600 111 600 111 617 120 c 1,29,-1
 617 13 l 1,30,31
 585 -10 585 -10 516 -10 c 0,32,33
 388 -10 388 -10 369 71 c 1,34,35
 298 -10 298 -10 204 -10 c 0,36,37
 74.0769230769 -10 74.0769230769 -10 39.5 62.5 c 0,38,39
 24 95 24 95 24 143 c 0,40,41
 24 243 24 243 106.5 279.5 c 128,-1,42
 189 316 189 316 359 316 c 1,43,-1
 359 345 l 2,44,45
 359 373 359 373 340.5 389 c 128,-1,46
 322 405 322 405 296.5 405 c 128,-1,47
 271 405 271 405 250.5 391.5 c 128,-1,48
 230 378 230 378 230 358 c 2,49,-1
 230 354 l 1,50,-1
 40 354 l 1,51,52
 39 357 39 357 39 368 c 0,53,54
 39 433 39 433 105 477 c 128,-1,55
 171 521 171 521 279 521 c 2,20,-1
359 181 m 2,56,-1
 359 225 l 1,57,58
 231 225 231 225 231 159 c 0,59,60
 231 111 231 111 291 111 c 0,61,62
 319 111 319 111 339 130.5 c 128,-1,63
 359 150 359 150 359 181 c 2,56,-1
EndSplineSet
EndChar

StartChar: ae
Encoding: 230 230 112
Width: 924
GlyphClass: 2
Flags: MW
HStem: -10 121<176 308 617.5 630 630 645> 229 87<562 700> 354 167<39 311> 400 121<623 648 648 650.5> 405 116<278.5 311>
VStem: 23 207<139.5 178.5 139.5 214> 38 191<354 410.5> 358 204<181 225 225 225 316 330 157.5 345 157.5 364.5> 700 195<229 330 229 349.5> 711 183<167.5 192>
LayerCount: 2
Fore
SplineSet
623 521 m 2,0,-1
 648 521 l 2,1,2
 763 521 763 521 829 457 c 128,-1,3
 895 393 895 393 895 291 c 2,4,-1
 895 229 l 1,5,-1
 562 229 l 1,6,-1
 562 181 l 2,7,8
 562 147 562 147 583.5 129 c 128,-1,9
 605 111 605 111 639.5 111 c 0,10,11
 674 111 674 111 692.5 132.5 c 128,-1,12
 711 154 711 154 711 192 c 1,13,-1
 894 192 l 1,14,15
 894 104 894 104 827 47 c 128,-1,16
 760 -10 760 -10 645 -10 c 2,17,-1
 630 -10 l 2,18,19
 506 -10 506 -10 427 58 c 1,20,21
 350 -10 350 -10 217 -10 c 0,22,23
 23 -10 23 -10 23 143 c 0,24,25
 23 243 23 243 105.5 279.5 c 128,-1,26
 188 316 188 316 358 316 c 1,27,-1
 358 345 l 2,28,29
 358 373 358 373 339.5 389 c 128,-1,30
 321 405 321 405 295.5 405 c 0,31,32
 270 405 270 405 249.5 391.5 c 128,-1,33
 229 378 229 378 229 358 c 2,34,-1
 229 354 l 1,35,-1
 39 354 l 1,36,37
 38 357 38 357 38 368 c 0,38,39
 38 433 38 433 104 477 c 128,-1,40
 170 521 170 521 278 521 c 2,41,-1
 311 521 l 2,42,43
 409 521 409 521 472 487 c 1,44,45
 536 521 536 521 623 521 c 2,0,-1
631 400 m 128,-1,47
 602 400 602 400 582 379.5 c 128,-1,48
 562 359 562 359 562 330 c 2,49,-1
 562 316 l 1,50,-1
 700 316 l 1,51,-1
 700 330 l 2,52,53
 700 359 700 359 680 379.5 c 128,-1,46
 660 400 660 400 631 400 c 128,-1,47
358 181 m 2,54,-1
 358 225 l 1,55,56
 230 225 230 225 230 159 c 0,57,58
 230 111 230 111 290 111 c 0,59,60
 318 111 318 111 338 130.5 c 128,-1,61
 358 150 358 150 358 181 c 2,54,-1
EndSplineSet
EndChar

StartChar: b
Encoding: 98 98 113
Width: 601
GlyphClass: 2
Flags: MW
HStem: -10 121<320 327.5 292.5 416> 0 720<50 120 50 248> 396 125<292.5 433.5> 700 20G<50 248 248 248>
VStem: 50 198<161.5 181 181 326 458 720> 372 201<181 250 250 261 162.5 326 162.5 345.5>
LayerCount: 2
Fore
SplineSet
248 720 m 1,0,-1
 248 458 l 1,1,2
 298 521 298 521 381.5 521 c 0,3,4
 465 521 465 521 519 454 c 128,-1,5
 573 387 573 387 573 261 c 2,6,-1
 573 250 l 2,7,8
 573 124 573 124 512 57 c 128,-1,9
 451 -10 451 -10 349.5 -10 c 0,10,11
 248 -10 248 -10 188 75 c 1,12,-1
 120 0 l 1,13,-1
 50 0 l 1,14,-1
 50 720 l 1,15,-1
 248 720 l 1,0,-1
310 396 m 128,-1,17
 284 396 284 396 266 375.5 c 128,-1,18
 248 355 248 355 248 326 c 2,19,-1
 248 181 l 2,20,21
 248 152 248 152 266 131.5 c 128,-1,22
 284 111 284 111 310 111 c 128,-1,23
 336 111 336 111 354 131.5 c 128,-1,24
 372 152 372 152 372 181 c 2,25,-1
 372 326 l 2,26,27
 372 355 372 355 354 375.5 c 128,-1,16
 336 396 336 396 310 396 c 128,-1,17
EndSplineSet
EndChar

StartChar: c
Encoding: 99 99 114
Width: 569
GlyphClass: 2
Flags: MW
HStem: -10 121<210.5 320 278 320> 304 217<376 382 276 545 376 376> 400 121<287.5 306 306 326.5>
VStem: 26 212<235 276 276 330 161.5 343.5> 387 158<181 207 137.5 207>
AnchorPoint: "Bottom" 285 0 basechar 0
LayerCount: 2
Fore
SplineSet
276 521 m 2,0,-1
 306 521 l 2,1,2
 417 521 417 521 481 460.5 c 128,-1,3
 545 400 545 400 545 304 c 1,4,-1
 376 304 l 1,5,-1
 376 330 l 2,6,7
 376 359 376 359 356 379.5 c 128,-1,8
 336 400 336 400 307 400 c 128,-1,9
 278 400 278 400 258 379.5 c 128,-1,10
 238 359 238 359 238 330 c 2,11,-1
 238 181 l 2,12,13
 238 152 238 152 258.5 131.5 c 128,-1,14
 279 111 279 111 308 111 c 2,15,-1
 320 111 l 2,16,17
 349 111 349 111 368 131 c 128,-1,18
 387 151 387 151 387 181 c 2,19,-1
 387 207 l 1,20,-1
 545 207 l 1,21,22
 545 104 545 104 481 47 c 128,-1,23
 417 -10 417 -10 307 -10 c 2,24,-1
 278 -10 l 2,25,26
 176 -10 176 -10 101 62 c 128,-1,27
 26 134 26 134 26 235 c 2,28,-1
 26 276 l 2,29,30
 26 377 26 377 100 449 c 128,-1,31
 174 521 174 521 276 521 c 2,0,-1
EndSplineSet
EndChar

StartChar: cacute
Encoding: 263 263 115
Width: 569
GlyphClass: 2
Flags: MW
HStem: -10 121<210.5 320 278 320> 304 217<376 382 276 545 376 376> 400 121<287.5 306 306 326.5> 575 145<304 331 213 455>
VStem: 26 212<235 276 276 330 161.5 343.5> 387 158<181 207 137.5 207>
AnchorPoint: "Bottom" 285 0 basechar 0
LayerCount: 2
Fore
SplineSet
457 717 m 1,0,-1
 331 575 l 1,1,-1
 213 575 l 1,2,-1
 304 720 l 1,3,-1
 455 720 l 1,4,-1
 457 717 l 1,0,-1
276 521 m 2,5,-1
 306 521 l 2,6,7
 417 521 417 521 481 460.5 c 128,-1,8
 545 400 545 400 545 304 c 1,9,-1
 376 304 l 1,10,-1
 376 330 l 2,11,12
 376 359 376 359 356 379.5 c 128,-1,13
 336 400 336 400 307 400 c 128,-1,14
 278 400 278 400 258 379.5 c 128,-1,15
 238 359 238 359 238 330 c 2,16,-1
 238 181 l 2,17,18
 238 152 238 152 258.5 131.5 c 128,-1,19
 279 111 279 111 308 111 c 2,20,-1
 320 111 l 2,21,22
 349 111 349 111 368 131 c 128,-1,23
 387 151 387 151 387 181 c 2,24,-1
 387 207 l 1,25,-1
 545 207 l 1,26,27
 545 104 545 104 481 47 c 128,-1,28
 417 -10 417 -10 307 -10 c 2,29,-1
 278 -10 l 2,30,31
 176 -10 176 -10 101 62 c 128,-1,32
 26 134 26 134 26 235 c 2,33,-1
 26 276 l 2,34,35
 26 377 26 377 100 449 c 128,-1,36
 174 521 174 521 276 521 c 2,5,-1
EndSplineSet
EndChar

StartChar: ccaron
Encoding: 269 269 116
Width: 569
GlyphClass: 2
Flags: MW
HStem: -10 121<210.5 320 278 320> 304 217<376 382 276 545 376 376> 400 121<287.5 306 306 326.5> 575 145<82 349 82 221>
VStem: 26 212<235 276 276 330 161.5 343.5> 387 158<181 207 137.5 207>
AnchorPoint: "Bottom" 285 0 basechar 0
LayerCount: 2
Fore
SplineSet
349 575 m 1,0,-1
 221 575 l 1,1,-1
 82 720 l 1,2,-1
 212 720 l 1,3,-1
 286 643 l 1,4,-1
 360 720 l 1,5,-1
 488 720 l 1,6,-1
 349 575 l 1,0,-1
276 521 m 2,7,-1
 306 521 l 2,8,9
 417 521 417 521 481 460.5 c 128,-1,10
 545 400 545 400 545 304 c 1,11,-1
 376 304 l 1,12,-1
 376 330 l 2,13,14
 376 359 376 359 356 379.5 c 128,-1,15
 336 400 336 400 307 400 c 128,-1,16
 278 400 278 400 258 379.5 c 128,-1,17
 238 359 238 359 238 330 c 2,18,-1
 238 181 l 2,19,20
 238 152 238 152 258.5 131.5 c 128,-1,21
 279 111 279 111 308 111 c 2,22,-1
 320 111 l 2,23,24
 349 111 349 111 368 131 c 128,-1,25
 387 151 387 151 387 181 c 2,26,-1
 387 207 l 1,27,-1
 545 207 l 1,28,29
 545 104 545 104 481 47 c 128,-1,30
 417 -10 417 -10 307 -10 c 2,31,-1
 278 -10 l 2,32,33
 176 -10 176 -10 101 62 c 128,-1,34
 26 134 26 134 26 235 c 2,35,-1
 26 276 l 2,36,37
 26 377 26 377 100 449 c 128,-1,38
 174 521 174 521 276 521 c 2,7,-1
EndSplineSet
EndChar

StartChar: ccedilla
Encoding: 231 231 117
Width: 569
GlyphClass: 2
Flags: MW
HStem: -197 58<279.5 306 272.5 325.5> -76 59<278 296 278 299> -10 121<210.5 320 278 320> 304 217<376 382 276 545 376 376> 400 121<287.5 306 306 326.5>
VStem: 26 212<235 276 276 330 161.5 343.5> 334 87<-119.5 -98> 387 158<181 207 137.5 207>
LayerCount: 2
Fore
SplineSet
276 521 m 2,0,-1
 306 521 l 2,1,2
 417 521 417 521 481 460.5 c 128,-1,3
 545 400 545 400 545 304 c 1,4,-1
 376 304 l 1,5,-1
 376 330 l 2,6,7
 376 359 376 359 356 379.5 c 128,-1,8
 336 400 336 400 307 400 c 128,-1,9
 278 400 278 400 258 379.5 c 128,-1,10
 238 359 238 359 238 330 c 2,11,-1
 238 181 l 2,12,13
 238 152 238 152 258.5 131.5 c 128,-1,14
 279 111 279 111 308 111 c 2,15,-1
 320 111 l 2,16,17
 349 111 349 111 368 131 c 128,-1,18
 387 151 387 151 387 181 c 2,19,-1
 387 207 l 1,20,-1
 545 207 l 1,21,22
 545 104 545 104 481 47 c 128,-1,23
 417 -10 417 -10 307 -10 c 2,24,-1
 278 -10 l 2,25,26
 176 -10 176 -10 101 62 c 128,-1,27
 26 134 26 134 26 235 c 2,28,-1
 26 276 l 2,29,30
 26 377 26 377 100 449 c 128,-1,31
 174 521 174 521 276 521 c 2,0,-1
278 -17 m 1,32,-1
 299 -17 l 2,33,34
 421 -17 421 -17 421 -108 c 0,35,36
 421 -142 421 -142 400 -163 c 0,37,38
 366 -197 366 -197 293 -197 c 128,-1,39
 220 -197 220 -197 177 -161 c 1,40,-1
 209 -107 l 1,41,42
 246 -139 246 -139 290 -139 c 128,-1,43
 334 -139 334 -139 334 -107.5 c 128,-1,44
 334 -76 334 -76 296 -76 c 2,45,-1
 278 -76 l 1,46,-1
 278 -17 l 1,32,-1
EndSplineSet
EndChar

StartChar: d
Encoding: 100 100 118
Width: 601
GlyphClass: 2
Flags: MW
HStem: -10 121<273.5 276.5> 396 125<167.5 308.5> 700 20G<353 551 551 551>
VStem: 28 201<250 261 261 326 161.5 348.5> 353 198<181 326 326 345.5 458 720>
LayerCount: 2
Fore
SplineSet
551 0 m 1,0,-1
 393 0 l 1,1,-1
 375 59 l 1,2,3
 320 -10 320 -10 246 -10 c 0,4,5
 150 -10 150 -10 89 57 c 128,-1,6
 28 124 28 124 28 250 c 2,7,-1
 28 261 l 2,8,9
 28 387 28 387 82 454 c 128,-1,10
 136 521 136 521 225.5 521 c 0,11,12
 315 521 315 521 353 458 c 1,13,-1
 353 720 l 1,14,-1
 551 720 l 1,15,-1
 551 0 l 1,0,-1
291 396 m 128,-1,17
 265 396 265 396 247 375.5 c 128,-1,18
 229 355 229 355 229 326 c 2,19,-1
 229 181 l 2,20,21
 229 152 229 152 247 131.5 c 128,-1,22
 265 111 265 111 291 111 c 128,-1,23
 317 111 317 111 335 131.5 c 128,-1,24
 353 152 353 152 353 181 c 2,25,-1
 353 326 l 2,26,27
 353 355 353 355 335 375.5 c 128,-1,16
 317 396 317 396 291 396 c 128,-1,17
EndSplineSet
EndChar

StartChar: eth
Encoding: 240 240 119
Width: 615
GlyphClass: 2
Flags: MW
HStem: -10 121<287.5 291 291 323> 490 20G 665 20G<94 94> 675 20G<303 303> 708 20G<374 374>
VStem: 26 212<245 266 266 330 161.5 335> 376 212<181 245 245 266 169 330 169 349.5>
LayerCount: 2
Fore
SplineSet
96 689 m 1,0,-1
 209 739 l 1,1,2
 254 724 254 724 303 695 c 1,3,-1
 374 728 l 1,4,-1
 429 677 l 1,5,-1
 370 649 l 1,6,7
 466 574 466 574 527 470.5 c 128,-1,8
 588 367 588 367 588 266 c 2,9,-1
 588 245 l 2,10,11
 588 132 588 132 513 61 c 128,-1,12
 438 -10 438 -10 323 -10 c 2,13,-1
 291 -10 l 2,14,15
 176 -10 176 -10 101 61.5 c 128,-1,16
 26 133 26 133 26 245 c 2,17,-1
 26 266 l 2,18,19
 26 366 26 366 93 432 c 128,-1,20
 160 498 160 498 263 510 c 1,21,22
 257 538 257 538 226 580 c 1,23,-1
 160 549 l 1,24,-1
 101 600 l 1,25,-1
 176 635 l 1,26,27
 139 669 139 669 94 685 c 1,28,-1
 96 689 l 1,0,-1
307 400 m 128,-1,30
 278 400 278 400 258 379.5 c 128,-1,31
 238 359 238 359 238 330 c 2,32,-1
 238 181 l 2,33,34
 238 152 238 152 258 131.5 c 128,-1,35
 278 111 278 111 307 111 c 128,-1,36
 336 111 336 111 356 131.5 c 128,-1,37
 376 152 376 152 376 181 c 2,38,-1
 376 330 l 2,39,40
 376 359 376 359 356 379.5 c 128,-1,29
 336 400 336 400 307 400 c 128,-1,30
EndSplineSet
EndChar

StartChar: dcaron
Encoding: 271 271 120
Width: 601
GlyphClass: 2
Flags: MW
HStem: -10 121<273.5 276.5> 338 348<653 747 653 653> 396 125<167.5 308.5> 503 183<606 690 606 797> 503 217<353 690 353 606>
VStem: 28 201<250 261 261 326 161.5 348.5> 353 198<181 326 326 345.5 458 720> 606 191<525 525 525 686 525 686>
LayerCount: 2
Fore
SplineSet
551 0 m 1,0,-1
 393 0 l 1,1,-1
 375 59 l 1,2,3
 320 -10 320 -10 246 -10 c 0,4,5
 150 -10 150 -10 89 57 c 128,-1,6
 28 124 28 124 28 250 c 2,7,-1
 28 261 l 2,8,9
 28 387 28 387 82 454 c 128,-1,10
 136 521 136 521 225.5 521 c 0,11,12
 315 521 315 521 353 458 c 1,13,-1
 353 720 l 1,14,-1
 551 720 l 1,15,-1
 551 0 l 1,0,-1
797 525 m 1,16,-1
 747 338 l 1,17,-1
 653 338 l 1,18,-1
 690 503 l 1,19,-1
 606 503 l 1,20,-1
 606 686 l 1,21,-1
 797 686 l 1,22,-1
 797 525 l 1,16,-1
291 396 m 128,-1,24
 265 396 265 396 247 375.5 c 128,-1,25
 229 355 229 355 229 326 c 2,26,-1
 229 181 l 2,27,28
 229 152 229 152 247 131.5 c 128,-1,29
 265 111 265 111 291 111 c 128,-1,30
 317 111 317 111 335 131.5 c 128,-1,31
 353 152 353 152 353 181 c 2,32,-1
 353 326 l 2,33,34
 353 355 353 355 335 375.5 c 128,-1,23
 317 396 317 396 291 396 c 128,-1,24
EndSplineSet
EndChar

StartChar: dcroat
Encoding: 273 273 121
Width: 601
GlyphClass: 2
Flags: MW
HStem: -10 121<273.5 276.5> 396 125<167.5 308.5> 602 74<219 353 219 353 551 601> 602 118<219 551 353 601 353 551>
VStem: 28 201<250 261 261 326 161.5 348.5> 353 198<181 326 326 345.5 458 602 0 602 676 720 0 720>
LayerCount: 2
Fore
SplineSet
601 602 m 1,0,-1
 551 602 l 1,1,-1
 551 0 l 1,2,-1
 393 0 l 1,3,-1
 375 59 l 1,4,5
 320 -10 320 -10 246 -10 c 0,6,7
 150 -10 150 -10 89 57 c 128,-1,8
 28 124 28 124 28 250 c 2,9,-1
 28 261 l 2,10,11
 28 387 28 387 82 454 c 128,-1,12
 136 521 136 521 225.5 521 c 0,13,14
 315 521 315 521 353 458 c 1,15,-1
 353 602 l 1,16,-1
 219 602 l 1,17,-1
 219 676 l 1,18,-1
 353 676 l 1,19,-1
 353 720 l 1,20,-1
 551 720 l 1,21,-1
 551 676 l 1,22,-1
 601 676 l 1,23,-1
 601 602 l 1,0,-1
353 181 m 2,24,-1
 353 326 l 2,25,26
 353 355 353 355 335 375.5 c 128,-1,27
 317 396 317 396 291 396 c 128,-1,28
 265 396 265 396 247 375.5 c 128,-1,29
 229 355 229 355 229 326 c 2,30,-1
 229 181 l 2,31,32
 229 152 229 152 247 131.5 c 128,-1,33
 265 111 265 111 291 111 c 128,-1,34
 317 111 317 111 335 131.5 c 128,-1,35
 353 152 353 152 353 181 c 2,24,-1
EndSplineSet
EndChar

StartChar: e
Encoding: 101 101 122
Width: 601
GlyphClass: 2
Flags: MW
HStem: -10 121<294.5 307 307 322> 229 87<239 377 239 572 239 377> 229 292<300 325 325 403.5 300 572 239 325> 400 121<300 325 325 327.5>
VStem: 27 212<157.5 271 157.5 316 316 330 157.5 351> 377 195<229 330 229 349.5> 388 183<167.5 192>
AnchorPoint: "Bottom" 301 0 basechar 0
LayerCount: 2
Fore
SplineSet
300 521 m 2,0,-1
 325 521 l 2,1,2
 440 521 440 521 506 457 c 128,-1,3
 572 393 572 393 572 291 c 2,4,-1
 572 229 l 1,5,-1
 239 229 l 1,6,-1
 239 181 l 2,7,8
 239 147 239 147 260.5 129 c 128,-1,9
 282 111 282 111 316.5 111 c 0,10,11
 351 111 351 111 369.5 132.5 c 128,-1,12
 388 154 388 154 388 192 c 1,13,-1
 571 192 l 1,14,15
 571 104 571 104 504 47 c 128,-1,16
 437 -10 437 -10 322 -10 c 2,17,-1
 307 -10 l 2,18,19
 184 -10 184 -10 105.5 56.5 c 128,-1,20
 27 123 27 123 27 240 c 2,21,-1
 27 271 l 2,22,23
 27 388 27 388 102.5 454.5 c 128,-1,24
 178 521 178 521 300 521 c 2,0,-1
308 400 m 128,-1,26
 279 400 279 400 259 379.5 c 128,-1,27
 239 359 239 359 239 330 c 2,28,-1
 239 316 l 1,29,-1
 377 316 l 1,30,-1
 377 330 l 2,31,32
 377 359 377 359 357 379.5 c 128,-1,25
 337 400 337 400 308 400 c 128,-1,26
EndSplineSet
EndChar

StartChar: eacute
Encoding: 233 233 123
Width: 601
GlyphClass: 2
Flags: MW
HStem: -10 121<294.5 307 307 322> 229 87<239 377 239 572 239 377> 229 292<300 325 325 403.5 300 572 239 325> 400 121<300 325 325 327.5> 575 145<336 363 245 487>
VStem: 27 212<157.5 271 157.5 316 316 330 157.5 351> 377 195<229 330 229 349.5> 388 183<167.5 192>
LayerCount: 2
Fore
SplineSet
489 717 m 1,0,-1
 363 575 l 1,1,-1
 245 575 l 1,2,-1
 336 720 l 1,3,-1
 487 720 l 1,4,-1
 489 717 l 1,0,-1
300 521 m 2,5,-1
 325 521 l 2,6,7
 440 521 440 521 506 457 c 128,-1,8
 572 393 572 393 572 291 c 2,9,-1
 572 229 l 1,10,-1
 239 229 l 1,11,-1
 239 181 l 2,12,13
 239 147 239 147 260.5 129 c 128,-1,14
 282 111 282 111 316.5 111 c 0,15,16
 351 111 351 111 369.5 132.5 c 128,-1,17
 388 154 388 154 388 192 c 1,18,-1
 571 192 l 1,19,20
 571 104 571 104 504 47 c 128,-1,21
 437 -10 437 -10 322 -10 c 2,22,-1
 307 -10 l 2,23,24
 184 -10 184 -10 105.5 56.5 c 128,-1,25
 27 123 27 123 27 240 c 2,26,-1
 27 271 l 2,27,28
 27 388 27 388 102.5 454.5 c 128,-1,29
 178 521 178 521 300 521 c 2,5,-1
308 400 m 128,-1,31
 279 400 279 400 259 379.5 c 128,-1,32
 239 359 239 359 239 330 c 2,33,-1
 239 316 l 1,34,-1
 377 316 l 1,35,-1
 377 330 l 2,36,37
 377 359 377 359 357 379.5 c 128,-1,30
 337 400 337 400 308 400 c 128,-1,31
EndSplineSet
EndChar

StartChar: ecaron
Encoding: 283 283 124
Width: 601
GlyphClass: 2
Flags: MW
HStem: -10 121<294.5 307 307 322> 229 87<239 377 239 572 239 377> 229 292<300 325 325 403.5 300 572 239 325> 400 121<300 325 325 327.5> 575 145<98 365 98 237>
VStem: 27 212<157.5 271 157.5 316 316 330 157.5 351> 377 195<229 330 229 349.5> 388 183<167.5 192>
AnchorPoint: "Bottom" 301 0 basechar 0
LayerCount: 2
Fore
SplineSet
365 575 m 1,0,-1
 237 575 l 1,1,-1
 98 720 l 1,2,-1
 228 720 l 1,3,-1
 302 643 l 1,4,-1
 376 720 l 1,5,-1
 504 720 l 1,6,-1
 365 575 l 1,0,-1
300 521 m 2,7,-1
 325 521 l 2,8,9
 440 521 440 521 506 457 c 128,-1,10
 572 393 572 393 572 291 c 2,11,-1
 572 229 l 1,12,-1
 239 229 l 1,13,-1
 239 181 l 2,14,15
 239 147 239 147 260.5 129 c 128,-1,16
 282 111 282 111 316.5 111 c 0,17,18
 351 111 351 111 369.5 132.5 c 128,-1,19
 388 154 388 154 388 192 c 1,20,-1
 571 192 l 1,21,22
 571 104 571 104 504 47 c 128,-1,23
 437 -10 437 -10 322 -10 c 2,24,-1
 307 -10 l 2,25,26
 184 -10 184 -10 105.5 56.5 c 128,-1,27
 27 123 27 123 27 240 c 2,28,-1
 27 271 l 2,29,30
 27 388 27 388 102.5 454.5 c 128,-1,31
 178 521 178 521 300 521 c 2,7,-1
308 400 m 128,-1,33
 279 400 279 400 259 379.5 c 128,-1,34
 239 359 239 359 239 330 c 2,35,-1
 239 316 l 1,36,-1
 377 316 l 1,37,-1
 377 330 l 2,38,39
 377 359 377 359 357 379.5 c 128,-1,32
 337 400 337 400 308 400 c 128,-1,33
EndSplineSet
EndChar

StartChar: ecircumflex
Encoding: 234 234 125
Width: 601
GlyphClass: 2
Flags: MW
HStem: -10 121<294.5 307 307 322> 229 87<239 377 239 572 239 377> 229 292<300 325 325 403.5 300 572 239 325> 400 121<300 325 325 327.5> 575 145<105 372 105 372 244 511 244 381> 652 68<307 307>
VStem: 27 212<157.5 271 157.5 316 316 330 157.5 351> 377 195<229 330 229 349.5> 388 183<167.5 192>
LayerCount: 2
Fore
SplineSet
511 575 m 1,0,-1
 381 575 l 1,1,-1
 307 652 l 1,2,-1
 233 575 l 1,3,-1
 105 575 l 1,4,-1
 244 720 l 1,5,-1
 372 720 l 1,6,-1
 511 575 l 1,0,-1
300 521 m 2,7,-1
 325 521 l 2,8,9
 440 521 440 521 506 457 c 128,-1,10
 572 393 572 393 572 291 c 2,11,-1
 572 229 l 1,12,-1
 239 229 l 1,13,-1
 239 181 l 2,14,15
 239 147 239 147 260.5 129 c 128,-1,16
 282 111 282 111 316.5 111 c 0,17,18
 351 111 351 111 369.5 132.5 c 128,-1,19
 388 154 388 154 388 192 c 1,20,-1
 571 192 l 1,21,22
 571 104 571 104 504 47 c 128,-1,23
 437 -10 437 -10 322 -10 c 2,24,-1
 307 -10 l 2,25,26
 184 -10 184 -10 105.5 56.5 c 128,-1,27
 27 123 27 123 27 240 c 2,28,-1
 27 271 l 2,29,30
 27 388 27 388 102.5 454.5 c 128,-1,31
 178 521 178 521 300 521 c 2,7,-1
308 400 m 128,-1,33
 279 400 279 400 259 379.5 c 128,-1,34
 239 359 239 359 239 330 c 2,35,-1
 239 316 l 1,36,-1
 377 316 l 1,37,-1
 377 330 l 2,38,39
 377 359 377 359 357 379.5 c 128,-1,32
 337 400 337 400 308 400 c 128,-1,33
EndSplineSet
EndChar

StartChar: edieresis
Encoding: 235 235 126
Width: 601
GlyphClass: 2
Flags: MW
HStem: -10 121<294.5 307 307 322> 229 87<239 377 239 572 239 377> 229 292<300 325 325 403.5 300 572 239 325> 400 121<300 325 325 327.5> 573 147<122 274 122 274 122 342 342 494>
VStem: 27 212<157.5 271 157.5 316 316 330 157.5 351> 122 152<573 720 573 720> 342 152<573 720 573 720> 377 195<229 330 229 349.5> 388 183<167.5 192>
LayerCount: 2
Fore
SplineSet
274 573 m 1,0,-1
 122 573 l 1,1,-1
 122 720 l 1,2,-1
 274 720 l 1,3,-1
 274 573 l 1,0,-1
494 573 m 1,4,-1
 342 573 l 1,5,-1
 342 720 l 1,6,-1
 494 720 l 1,7,-1
 494 573 l 1,4,-1
300 521 m 2,8,-1
 325 521 l 2,9,10
 440 521 440 521 506 457 c 128,-1,11
 572 393 572 393 572 291 c 2,12,-1
 572 229 l 1,13,-1
 239 229 l 1,14,-1
 239 181 l 2,15,16
 239 147 239 147 260.5 129 c 128,-1,17
 282 111 282 111 316.5 111 c 0,18,19
 351 111 351 111 369.5 132.5 c 128,-1,20
 388 154 388 154 388 192 c 1,21,-1
 571 192 l 1,22,23
 571 104 571 104 504 47 c 128,-1,24
 437 -10 437 -10 322 -10 c 2,25,-1
 307 -10 l 2,26,27
 184 -10 184 -10 105.5 56.5 c 128,-1,28
 27 123 27 123 27 240 c 2,29,-1
 27 271 l 2,30,31
 27 388 27 388 102.5 454.5 c 128,-1,32
 178 521 178 521 300 521 c 2,8,-1
308 400 m 128,-1,34
 279 400 279 400 259 379.5 c 128,-1,35
 239 359 239 359 239 330 c 2,36,-1
 239 316 l 1,37,-1
 377 316 l 1,38,-1
 377 330 l 2,39,40
 377 359 377 359 357 379.5 c 128,-1,33
 337 400 337 400 308 400 c 128,-1,34
EndSplineSet
EndChar

StartChar: edotaccent
Encoding: 279 279 127
Width: 601
GlyphClass: 2
Flags: MW
HStem: -10 121<294.5 307 307 322> 229 87<239 377 239 572 239 377> 229 292<300 325 325 403.5 300 572 239 325> 400 121<300 325 325 327.5> 604 132<282.5 318.5>
VStem: 27 212<157.5 271 157.5 316 316 330 157.5 351> 235 132<652 688 650.5 688.5> 377 195<229 330 229 349.5> 388 183<167.5 192>
AnchorPoint: "Bottom" 301 0 basechar 0
LayerCount: 2
Fore
SplineSet
301 736 m 128,-1,1
 329 736 329 736 348 716.5 c 128,-1,2
 367 697 367 697 367 669 c 0,3,4
 367 641 367 641 347.5 622.5 c 128,-1,5
 328 604 328 604 301 604 c 0,6,7
 274 604 274 604 254.5 623.5 c 128,-1,8
 235 643 235 643 235 670.5 c 0,9,10
 235 698 235 698 254 717 c 128,-1,0
 273 736 273 736 301 736 c 128,-1,1
300 521 m 2,11,-1
 325 521 l 2,12,13
 440 521 440 521 506 457 c 128,-1,14
 572 393 572 393 572 291 c 2,15,-1
 572 229 l 1,16,-1
 239 229 l 1,17,-1
 239 181 l 2,18,19
 239 147 239 147 260.5 129 c 128,-1,20
 282 111 282 111 316.5 111 c 0,21,22
 351 111 351 111 369.5 132.5 c 128,-1,23
 388 154 388 154 388 192 c 1,24,-1
 571 192 l 1,25,26
 571 104 571 104 504 47 c 128,-1,27
 437 -10 437 -10 322 -10 c 2,28,-1
 307 -10 l 2,29,30
 184 -10 184 -10 105.5 56.5 c 128,-1,31
 27 123 27 123 27 240 c 2,32,-1
 27 271 l 2,33,34
 27 388 27 388 102.5 454.5 c 128,-1,35
 178 521 178 521 300 521 c 2,11,-1
308 400 m 128,-1,37
 279 400 279 400 259 379.5 c 128,-1,38
 239 359 239 359 239 330 c 2,39,-1
 239 316 l 1,40,-1
 377 316 l 1,41,-1
 377 330 l 2,42,43
 377 359 377 359 357 379.5 c 128,-1,36
 337 400 337 400 308 400 c 128,-1,37
EndSplineSet
EndChar

StartChar: egrave
Encoding: 232 232 128
Width: 601
GlyphClass: 2
Flags: MW
HStem: -10 121<294.5 307 307 322> 229 87<239 377 239 572 239 377> 229 292<300 325 325 403.5 300 572 239 325> 400 121<300 325 325 327.5> 575 145<247 274 123 365 247 247>
VStem: 27 212<157.5 271 157.5 316 316 330 157.5 351> 377 195<229 330 229 349.5> 388 183<167.5 192>
LayerCount: 2
Fore
SplineSet
365 575 m 1,0,-1
 247 575 l 1,1,-1
 121 717 l 1,2,-1
 123 720 l 1,3,-1
 274 720 l 1,4,-1
 365 575 l 1,0,-1
300 521 m 2,5,-1
 325 521 l 2,6,7
 440 521 440 521 506 457 c 128,-1,8
 572 393 572 393 572 291 c 2,9,-1
 572 229 l 1,10,-1
 239 229 l 1,11,-1
 239 181 l 2,12,13
 239 147 239 147 260.5 129 c 128,-1,14
 282 111 282 111 316.5 111 c 0,15,16
 351 111 351 111 369.5 132.5 c 128,-1,17
 388 154 388 154 388 192 c 1,18,-1
 571 192 l 1,19,20
 571 104 571 104 504 47 c 128,-1,21
 437 -10 437 -10 322 -10 c 2,22,-1
 307 -10 l 2,23,24
 184 -10 184 -10 105.5 56.5 c 128,-1,25
 27 123 27 123 27 240 c 2,26,-1
 27 271 l 2,27,28
 27 388 27 388 102.5 454.5 c 128,-1,29
 178 521 178 521 300 521 c 2,5,-1
308 400 m 128,-1,31
 279 400 279 400 259 379.5 c 128,-1,32
 239 359 239 359 239 330 c 2,33,-1
 239 316 l 1,34,-1
 377 316 l 1,35,-1
 377 330 l 2,36,37
 377 359 377 359 357 379.5 c 128,-1,30
 337 400 337 400 308 400 c 128,-1,31
EndSplineSet
EndChar

StartChar: emacron
Encoding: 275 275 129
Width: 601
GlyphClass: 2
Flags: MW
HStem: -10 121<294.5 307 307 322> 229 87<239 377 239 572 239 377> 229 292<300 325 325 403.5 300 572 239 325> 400 121<300 325 325 327.5> 662 74<142 460 142 460>
VStem: 27 212<157.5 271 157.5 316 316 330 157.5 351> 142 318<662 736 662 736> 377 195<229 330 229 349.5> 388 183<167.5 192>
AnchorPoint: "Bottom" 301 0 basechar 0
LayerCount: 2
Fore
SplineSet
460 662 m 1,0,-1
 142 662 l 1,1,-1
 142 736 l 1,2,-1
 460 736 l 1,3,-1
 460 662 l 1,0,-1
300 521 m 2,4,-1
 325 521 l 2,5,6
 440 521 440 521 506 457 c 128,-1,7
 572 393 572 393 572 291 c 2,8,-1
 572 229 l 1,9,-1
 239 229 l 1,10,-1
 239 181 l 2,11,12
 239 147 239 147 260.5 129 c 128,-1,13
 282 111 282 111 316.5 111 c 0,14,15
 351 111 351 111 369.5 132.5 c 128,-1,16
 388 154 388 154 388 192 c 1,17,-1
 571 192 l 1,18,19
 571 104 571 104 504 47 c 128,-1,20
 437 -10 437 -10 322 -10 c 2,21,-1
 307 -10 l 2,22,23
 184 -10 184 -10 105.5 56.5 c 128,-1,24
 27 123 27 123 27 240 c 2,25,-1
 27 271 l 2,26,27
 27 388 27 388 102.5 454.5 c 128,-1,28
 178 521 178 521 300 521 c 2,4,-1
308 400 m 128,-1,30
 279 400 279 400 259 379.5 c 128,-1,31
 239 359 239 359 239 330 c 2,32,-1
 239 316 l 1,33,-1
 377 316 l 1,34,-1
 377 330 l 2,35,36
 377 359 377 359 357 379.5 c 128,-1,29
 337 400 337 400 308 400 c 128,-1,30
EndSplineSet
EndChar

StartChar: eogonek
Encoding: 281 281 130
Width: 601
GlyphClass: 2
Flags: MW
HStem: -143 53<398.5 403.5> -20 20G<408 412 412 412> -10 121<294.5 307 307 322 322 328> 229 87<239 377 239 377 239 572> 229 292<239 325 300 325 325 403.5 300 572> 400 121<300 325 325 327.5>
VStem: 27 212<157.5 271 316 330 157.5 351> 288 77<-69.5 -58> 377 195<229 330 229 349.5> 388 183<167.5 192>
AnchorPoint: "Bottom" 301 0 basechar 0
LayerCount: 2
Fore
SplineSet
239 229 m 1,0,-1
 239 181 l 2,1,2
 239 147 239 147 260.5 129 c 128,-1,3
 282 111 282 111 316.5 111 c 128,-1,4
 351 111 351 111 369.5 132.5 c 128,-1,5
 388 154 388 154 388 192 c 1,6,-1
 571 192 l 1,7,8
 571 123 571 123 528 71 c 128,-1,9
 485 19 485 19 408 0 c 1,10,-1
 412 0 l 1,11,12
 398 -9 398 -9 390.5 -14.5 c 128,-1,13
 383 -20 383 -20 374 -32 c 128,-1,14
 365 -44 365 -44 365 -56 c 0,15,16
 365 -90 365 -90 409 -90 c 0,17,18
 439 -90 439 -90 476 -76 c 1,19,-1
 489 -119 l 1,20,21
 441 -143 441 -143 393 -143 c 0,22,23
 288 -143 288 -143 288 -71 c 0,24,25
 288 -40 288 -40 328 -10 c 1,26,-1
 307 -10 l 2,27,28
 184 -10 184 -10 105.5 56.5 c 128,-1,29
 27 123 27 123 27 240 c 2,30,-1
 27 271 l 2,31,32
 27 388 27 388 102.5 454.5 c 128,-1,33
 178 521 178 521 300 521 c 2,34,-1
 325 521 l 2,35,36
 440 521 440 521 506 457 c 128,-1,37
 572 393 572 393 572 291 c 2,38,-1
 572 229 l 1,39,-1
 239 229 l 1,0,-1
239 316 m 1,40,-1
 377 316 l 1,41,-1
 377 330 l 2,42,43
 377 359 377 359 357 379.5 c 128,-1,44
 337 400 337 400 308 400 c 128,-1,45
 279 400 279 400 259 379.5 c 128,-1,46
 239 359 239 359 239 330 c 2,47,-1
 239 316 l 1,40,-1
EndSplineSet
EndChar

StartChar: f
Encoding: 102 102 131
Width: 419
GlyphClass: 2
Flags: MW
HStem: 369 142<25 89 25 89 287 407> 606 122<218 351.5>
VStem: 89 198<0 369 0 369 511 548 0 577>
LayerCount: 2
Fore
SplineSet
138 691.5 m 128,-1,1
 187 728 187 728 270.5 728 c 128,-1,2
 354 728 354 728 406 706 c 1,3,-1
 406 596 l 1,4,5
 376 606 376 606 354 606 c 128,-1,6
 332 606 332 606 324 604.5 c 128,-1,7
 316 603 316 603 306.5 598 c 0,8,9
 287 587.736842105 287 587.736842105 287 548 c 2,10,-1
 287 511 l 1,11,-1
 407 511 l 1,12,-1
 407 369 l 1,13,-1
 287 369 l 1,14,-1
 287 0 l 1,15,-1
 89 0 l 1,16,-1
 89 369 l 1,17,-1
 25 369 l 1,18,-1
 25 511 l 1,19,-1
 89 511 l 1,20,-1
 89 577 l 2,21,0
 89 655 89 655 138 691.5 c 128,-1,1
EndSplineSet
EndChar

StartChar: g
Encoding: 103 103 132
Width: 590
GlyphClass: 2
Flags: MW
HStem: -188 105<91 361 218 361 361 375 218 389> 0 139<204 429 266 361> 200 97<245.5 312.5 277.5 312.5 277.5 335> 423 98<277.5 305 305 312.5> 495 20G
VStem: 4 164<-68 -29.5 -52.5 -38.5> 47 187<342.5 377.5 342.5 404.5> 356 179<342.5 377.5> 411 178<-53.5 -30.5> 441 148<594.5 603>
LayerCount: 2
Fore
SplineSet
441 603 m 1,0,-1
 589 603 l 1,1,2
 589 545 589 545 561.5 514 c 128,-1,3
 534 483 534 483 479 468 c 1,4,5
 535 423 535 423 535 358.5 c 0,6,7
 535 294 535 294 476 247 c 128,-1,8
 417 200 417 200 335 200 c 2,9,-1
 266 200 l 2,10,11
 209 200 209 200 209 169.5 c 0,12,13
 209 139 209 139 266 139 c 2,14,-1
 429 139 l 2,15,16
 509 139 509 139 549 96.5 c 128,-1,17
 589 54 589 54 589 -16 c 0,18,19
 589 -86 589 -86 529.5 -137 c 128,-1,20
 470 -188 470 -188 389 -188 c 2,21,-1
 124 -188 l 2,22,23
 74 -188 74 -188 39 -153 c 128,-1,24
 4 -118 4 -118 4 -68 c 2,25,-1
 4 -63 l 2,26,27
 4 -28 4 -28 26 1.5 c 128,-1,28
 48 31 48 31 80 46 c 1,29,30
 32 79 32 79 32 133 c 0,31,32
 32 170 32 170 58.5 200 c 128,-1,33
 85 230 85 230 124 240 c 1,34,35
 47 292 47 292 47 361.5 c 0,36,37
 47 431 47 431 106 476 c 128,-1,38
 165 521 165 521 277 521 c 2,39,-1
 305 521 l 2,40,41
 341 521 341 521 371 515 c 1,42,43
 441 561 441 561 441 603 c 1,0,-1
295 423 m 128,-1,45
 269 423 269 423 251.5 404.5 c 128,-1,46
 234 386 234 386 234 360 c 128,-1,47
 234 334 234 334 251.5 315.5 c 128,-1,48
 269 297 269 297 295 297 c 128,-1,49
 321 297 321 297 338.5 315.5 c 128,-1,50
 356 334 356 334 356 360 c 128,-1,51
 356 386 356 386 338.5 404.5 c 128,-1,44
 321 423 321 423 295 423 c 128,-1,45
361 0 m 2,52,-1
 218 0 l 2,53,54
 197 0 197 0 182.5 -12 c 128,-1,55
 168 -24 168 -24 168 -41 c 128,-1,56
 168 -58 168 -58 182.5 -70.5 c 128,-1,57
 197 -83 197 -83 218 -83 c 2,58,-1
 361 -83 l 2,59,60
 382 -83 382 -83 396.5 -71 c 128,-1,61
 411 -59 411 -59 411 -42 c 128,-1,62
 411 -25 411 -25 396.5 -12.5 c 128,-1,63
 382 0 382 0 361 0 c 2,52,-1
EndSplineSet
EndChar

StartChar: gbreve
Encoding: 287 287 133
Width: 590
GlyphClass: 2
Flags: MW
HStem: -188 105<91 361 218 361 361 375 218 389> 0 139<204 429 266 361> 200 97<245.5 312.5 277.5 312.5 277.5 335> 423 98<277.5 305 305 312.5> 495 20G 613 86<268.5 322 268.5 348.5>
VStem: 4 164<-68 -29.5 -52.5 -38.5> 47 187<342.5 377.5 342.5 404.5> 103 96<731.5 737 731.5 737> 356 179<342.5 377.5> 393 95<731.5 737> 411 178<-53.5 -30.5>
LayerCount: 2
Fore
SplineSet
393 737 m 1,0,-1
 488 737 l 1,1,2
 488 693 488 693 430 653 c 128,-1,3
 372 613 372 613 295 613 c 128,-1,4
 218 613 218 613 160.5 653 c 128,-1,5
 103 693 103 693 103 737 c 1,6,-1
 199 737 l 1,7,8
 199 731 199 731 211.5 722.5 c 128,-1,9
 224 714 224 714 247 706.5 c 128,-1,10
 270 699 270 699 295 699 c 128,-1,11
 320 699 320 699 343.5 706.5 c 128,-1,12
 367 714 367 714 380 722.5 c 128,-1,13
 393 731 393 731 393 737 c 1,0,-1
441 603 m 1,14,-1
 589 603 l 1,15,16
 589 545 589 545 561.5 514 c 128,-1,17
 534 483 534 483 479 468 c 1,18,19
 535 423 535 423 535 358.5 c 0,20,21
 535 294 535 294 476 247 c 128,-1,22
 417 200 417 200 335 200 c 2,23,-1
 266 200 l 2,24,25
 209 200 209 200 209 169.5 c 0,26,27
 209 139 209 139 266 139 c 2,28,-1
 429 139 l 2,29,30
 509 139 509 139 549 96.5 c 128,-1,31
 589 54 589 54 589 -16 c 0,32,33
 589 -86 589 -86 529.5 -137 c 128,-1,34
 470 -188 470 -188 389 -188 c 2,35,-1
 124 -188 l 2,36,37
 74 -188 74 -188 39 -153 c 128,-1,38
 4 -118 4 -118 4 -68 c 2,39,-1
 4 -63 l 2,40,41
 4 -28 4 -28 26 1.5 c 128,-1,42
 48 31 48 31 80 46 c 1,43,44
 32 79 32 79 32 133 c 0,45,46
 32 170 32 170 58.5 200 c 128,-1,47
 85 230 85 230 124 240 c 1,48,49
 47 292 47 292 47 361.5 c 0,50,51
 47 431 47 431 106 476 c 128,-1,52
 165 521 165 521 277 521 c 2,53,-1
 305 521 l 2,54,55
 341 521 341 521 371 515 c 1,56,57
 441 561 441 561 441 603 c 1,14,-1
295 423 m 128,-1,59
 269 423 269 423 251.5 404.5 c 128,-1,60
 234 386 234 386 234 360 c 128,-1,61
 234 334 234 334 251.5 315.5 c 128,-1,62
 269 297 269 297 295 297 c 128,-1,63
 321 297 321 297 338.5 315.5 c 128,-1,64
 356 334 356 334 356 360 c 128,-1,65
 356 386 356 386 338.5 404.5 c 128,-1,58
 321 423 321 423 295 423 c 128,-1,59
361 0 m 2,66,-1
 218 0 l 2,67,68
 197 0 197 0 182.5 -12 c 128,-1,69
 168 -24 168 -24 168 -41 c 128,-1,70
 168 -58 168 -58 182.5 -70.5 c 128,-1,71
 197 -83 197 -83 218 -83 c 2,72,-1
 361 -83 l 2,73,74
 382 -83 382 -83 396.5 -71 c 128,-1,75
 411 -59 411 -59 411 -42 c 128,-1,76
 411 -25 411 -25 396.5 -12.5 c 128,-1,77
 382 0 382 0 361 0 c 2,66,-1
EndSplineSet
EndChar

StartChar: gcommaaccent
Encoding: 291 291 134
Width: 590
GlyphClass: 2
Flags: MW
HStem: -188 105<91 361 218 361 361 375 218 389> 0 139<204 429 266 361> 200 97<245.5 312.5 277.5 312.5 277.5 335> 423 98<277.5 305 305 312.5> 495 20G 601 151<296 381 296 381 190 381>
VStem: 4 164<-68 -29.5 -52.5 -38.5> 47 187<342.5 377.5 342.5 404.5> 190 191<601 720 720 720> 356 179<342.5 377.5> 411 178<-53.5 -30.5>
LayerCount: 2
Fore
SplineSet
190 720 m 1,0,-1
 218 831 l 1,1,-1
 312 831 l 1,2,-1
 296 752 l 1,3,-1
 381 752 l 1,4,-1
 381 601 l 1,5,-1
 190 601 l 1,6,-1
 190 720 l 1,0,-1
441 603 m 1,7,-1
 589 603 l 1,8,9
 589 545 589 545 561.5 514 c 128,-1,10
 534 483 534 483 479 468 c 1,11,12
 535 423 535 423 535 358.5 c 0,13,14
 535 294 535 294 476 247 c 128,-1,15
 417 200 417 200 335 200 c 2,16,-1
 266 200 l 2,17,18
 209 200 209 200 209 169.5 c 0,19,20
 209 139 209 139 266 139 c 2,21,-1
 429 139 l 2,22,23
 509 139 509 139 549 96.5 c 128,-1,24
 589 54 589 54 589 -16 c 0,25,26
 589 -86 589 -86 529.5 -137 c 128,-1,27
 470 -188 470 -188 389 -188 c 2,28,-1
 124 -188 l 2,29,30
 74 -188 74 -188 39 -153 c 128,-1,31
 4 -118 4 -118 4 -68 c 2,32,-1
 4 -63 l 2,33,34
 4 -28 4 -28 26 1.5 c 128,-1,35
 48 31 48 31 80 46 c 1,36,37
 32 79 32 79 32 133 c 0,38,39
 32 170 32 170 58.5 200 c 128,-1,40
 85 230 85 230 124 240 c 1,41,42
 47 292 47 292 47 361.5 c 0,43,44
 47 431 47 431 106 476 c 128,-1,45
 165 521 165 521 277 521 c 2,46,-1
 305 521 l 2,47,48
 341 521 341 521 371 515 c 1,49,50
 441 561 441 561 441 603 c 1,7,-1
295 423 m 128,-1,52
 269 423 269 423 251.5 404.5 c 128,-1,53
 234 386 234 386 234 360 c 128,-1,54
 234 334 234 334 251.5 315.5 c 128,-1,55
 269 297 269 297 295 297 c 128,-1,56
 321 297 321 297 338.5 315.5 c 128,-1,57
 356 334 356 334 356 360 c 128,-1,58
 356 386 356 386 338.5 404.5 c 128,-1,51
 321 423 321 423 295 423 c 128,-1,52
361 0 m 2,59,-1
 218 0 l 2,60,61
 197 0 197 0 182.5 -12 c 128,-1,62
 168 -24 168 -24 168 -41 c 128,-1,63
 168 -58 168 -58 182.5 -70.5 c 128,-1,64
 197 -83 197 -83 218 -83 c 2,65,-1
 361 -83 l 2,66,67
 382 -83 382 -83 396.5 -71 c 128,-1,68
 411 -59 411 -59 411 -42 c 128,-1,69
 411 -25 411 -25 396.5 -12.5 c 128,-1,70
 382 0 382 0 361 0 c 2,59,-1
EndSplineSet
EndChar

StartChar: h
Encoding: 104 104 135
Width: 599
GlyphClass: 2
Flags: MW
HStem: 0 521<50 402 50 402 374 402 402 443.5 374 552 354 402> 0 720<50 248 50 248 50 552 50 354> 380 141<286.5 402>
VStem: 50 198<0 320 451 720> 354 198<0 320 320 336.5>
LayerCount: 2
Fore
SplineSet
248 720 m 1,0,-1
 248 451 l 1,1,2
 296 521 296 521 374 521 c 2,3,-1
 402 521 l 2,4,5
 464 521 464 521 508 477 c 128,-1,6
 552 433 552 433 552 371 c 2,7,-1
 552 0 l 1,8,-1
 354 0 l 1,9,-1
 354 320 l 2,10,11
 354 345 354 345 338.5 362.5 c 128,-1,12
 323 380 323 380 301 380 c 128,-1,13
 279 380 279 380 263.5 362.5 c 128,-1,14
 248 345 248 345 248 320 c 2,15,-1
 248 0 l 1,16,-1
 50 0 l 1,17,-1
 50 720 l 1,18,-1
 248 720 l 1,0,-1
EndSplineSet
EndChar

StartChar: i
Encoding: 105 105 136
Width: 297
GlyphClass: 2
Flags: MW
HStem: 0 510<50 247 50 247> 577 143<50 247 50 247>
VStem: 50 197<0 510 577 720>
LayerCount: 2
Fore
SplineSet
247 577 m 1,0,-1
 50 577 l 1,1,-1
 50 720 l 1,2,-1
 247 720 l 1,3,-1
 247 577 l 1,0,-1
247 0 m 1,4,-1
 50 0 l 1,5,-1
 50 510 l 1,6,-1
 247 510 l 1,7,-1
 247 0 l 1,4,-1
EndSplineSet
EndChar

StartChar: dotlessi
Encoding: 305 305 137
Width: 297
GlyphClass: 2
Flags: MW
HStem: 0 510<50 247 50 247>
VStem: 50 197<0 510>
LayerCount: 2
Fore
SplineSet
247 0 m 1,0,-1
 50 0 l 1,1,-1
 50 510 l 1,2,-1
 247 510 l 1,3,-1
 247 0 l 1,0,-1
EndSplineSet
EndChar

StartChar: iacute
Encoding: 237 237 138
Width: 297
GlyphClass: 2
Flags: MW
HStem: 0 510<50 247 50 247> 575 145<174 201 83 325>
VStem: 50 197<0 510>
LayerCount: 2
Fore
SplineSet
327 717 m 1,0,-1
 201 575 l 1,1,-1
 83 575 l 1,2,-1
 174 720 l 1,3,-1
 325 720 l 1,4,-1
 327 717 l 1,0,-1
247 0 m 1,5,-1
 50 0 l 1,6,-1
 50 510 l 1,7,-1
 247 510 l 1,8,-1
 247 0 l 1,5,-1
EndSplineSet
EndChar

StartChar: icircumflex
Encoding: 238 238 139
Width: 297
GlyphClass: 2
Flags: MW
HStem: 0 510<50 247 50 247> 575 145<-54 213 -54 213 85 352 85 222> 652 68<148 148>
VStem: 50 197<0 510>
LayerCount: 2
Fore
SplineSet
352 575 m 1,0,-1
 222 575 l 1,1,-1
 148 652 l 1,2,-1
 74 575 l 1,3,-1
 -54 575 l 1,4,-1
 85 720 l 1,5,-1
 213 720 l 1,6,-1
 352 575 l 1,0,-1
247 0 m 1,7,-1
 50 0 l 1,8,-1
 50 510 l 1,9,-1
 247 510 l 1,10,-1
 247 0 l 1,7,-1
EndSplineSet
EndChar

StartChar: idieresis
Encoding: 239 239 140
Width: 297
GlyphClass: 2
Flags: MW
HStem: 0 510<50 247 50 247> 573 147<-37 115 -37 115 -37 183 183 335>
VStem: -37 152<573 720 573 720> 50 197<0 510> 183 152<573 720 573 720>
LayerCount: 2
Fore
SplineSet
115 573 m 1,0,-1
 -37 573 l 1,1,-1
 -37 720 l 1,2,-1
 115 720 l 1,3,-1
 115 573 l 1,0,-1
335 573 m 1,4,-1
 183 573 l 1,5,-1
 183 720 l 1,6,-1
 335 720 l 1,7,-1
 335 573 l 1,4,-1
247 0 m 1,8,-1
 50 0 l 1,9,-1
 50 510 l 1,10,-1
 247 510 l 1,11,-1
 247 0 l 1,8,-1
EndSplineSet
EndChar

StartChar: igrave
Encoding: 236 236 141
Width: 297
GlyphClass: 2
Flags: MW
HStem: 0 510<50 247 50 247> 575 145<92 119 -32 210 92 92>
VStem: 50 197<0 510>
LayerCount: 2
Fore
SplineSet
210 575 m 1,0,-1
 92 575 l 1,1,-1
 -34 717 l 1,2,-1
 -32 720 l 1,3,-1
 119 720 l 1,4,-1
 210 575 l 1,0,-1
247 0 m 1,5,-1
 50 0 l 1,6,-1
 50 510 l 1,7,-1
 247 510 l 1,8,-1
 247 0 l 1,5,-1
EndSplineSet
EndChar

StartChar: imacron
Encoding: 299 299 142
Width: 297
GlyphClass: 2
Flags: MW
HStem: 0 510<50 247 50 247> 662 74<-10 308 -10 308>
VStem: 50 197<0 510>
LayerCount: 2
Fore
SplineSet
308 662 m 1,0,-1
 -10 662 l 1,1,-1
 -10 736 l 1,2,-1
 308 736 l 1,3,-1
 308 662 l 1,0,-1
247 0 m 1,4,-1
 50 0 l 1,5,-1
 50 510 l 1,6,-1
 247 510 l 1,7,-1
 247 0 l 1,4,-1
EndSplineSet
EndChar

StartChar: iogonek
Encoding: 303 303 143
Width: 297
GlyphClass: 2
Flags: MW
HStem: -143 53<224.5 229.5> 0 510<50 168 50 247 238 238 238 247> 577 143<50 247 50 247>
VStem: 50 197<0 510 0 510 577 720>
LayerCount: 2
Fore
SplineSet
247 577 m 1,0,-1
 50 577 l 1,1,-1
 50 720 l 1,2,-1
 247 720 l 1,3,-1
 247 577 l 1,0,-1
302 -76 m 1,4,-1
 315 -119 l 1,5,6
 267 -143 267 -143 219 -143 c 0,7,8
 114 -143 114 -143 114 -71 c 0,9,10
 114 -36 114 -36 168 0 c 1,11,-1
 50 0 l 1,12,-1
 50 510 l 1,13,-1
 247 510 l 1,14,-1
 247 0 l 1,15,-1
 238 0 l 1,16,17
 224 -9 224 -9 216.5 -14.5 c 128,-1,18
 209 -20 209 -20 200 -32 c 128,-1,19
 191 -44 191 -44 191 -56 c 0,20,21
 191 -90 191 -90 235 -90 c 0,22,23
 265 -90 265 -90 302 -76 c 1,4,-1
EndSplineSet
EndChar

StartChar: j
Encoding: 106 106 144
Width: 299
GlyphClass: 2
Flags: MW
HStem: -187 122<-13.5 120.5> 490 20G<50 249 249 249> 577 143<50 249 50 249>
VStem: 50 199<4 510 577 720>
LayerCount: 2
Fore
SplineSet
249 577 m 1,0,-1
 50 577 l 1,1,-1
 50 720 l 1,2,-1
 249 720 l 1,3,-1
 249 577 l 1,0,-1
249 510 m 1,4,-1
 249 -26 l 2,5,6
 249 -105 249 -105 199.5 -146 c 128,-1,7
 150 -187 150 -187 66 -187 c 0,8,9
 38 -187 38 -187 -3.5 -180.5 c 128,-1,10
 -45 -174 -45 -174 -68 -165 c 1,11,-1
 -68 -53 l 1,12,13
 -42 -65 -42 -65 -6 -65 c 0,14,15
 50 -65 50 -65 50 4 c 2,16,-1
 50 510 l 1,17,-1
 249 510 l 1,4,-1
EndSplineSet
EndChar

StartChar: k
Encoding: 107 107 145
Width: 603
GlyphClass: 2
Flags: MW
HStem: 0 511<50 604 50 604 378 604 378 607 374 604> 0 720<50 248 50 248 50 607 50 374>
VStem: 50 198<0 114 321 720>
AnchorPoint: "Bottom" 302 0 basechar 0
LayerCount: 2
Fore
SplineSet
248 321 m 1,0,-1
 378 511 l 1,1,-1
 604 511 l 1,2,-1
 425 280 l 1,3,-1
 607 0 l 1,4,-1
 374 0 l 1,5,-1
 284 145 l 1,6,-1
 248 114 l 1,7,-1
 248 0 l 1,8,-1
 50 0 l 1,9,-1
 50 720 l 1,10,-1
 248 720 l 1,11,-1
 248 321 l 1,0,-1
EndSplineSet
EndChar

StartChar: kcommaaccent
Encoding: 311 311 146
Width: 603
GlyphClass: 2
Flags: MW
HStem: -171 151<206 291 206 397> 0 511<50 604 50 604 378 604 378 607 374 604> 0 720<50 248 50 248 50 607 50 374>
VStem: 50 198<0 114 321 720> 206 191<-139 -139 -139 -20 -139 -20>
AnchorPoint: "Bottom" 302 0 basechar 0
LayerCount: 2
Fore
SplineSet
248 321 m 1,0,-1
 378 511 l 1,1,-1
 604 511 l 1,2,-1
 425 280 l 1,3,-1
 607 0 l 1,4,-1
 374 0 l 1,5,-1
 284 145 l 1,6,-1
 248 114 l 1,7,-1
 248 0 l 1,8,-1
 50 0 l 1,9,-1
 50 720 l 1,10,-1
 248 720 l 1,11,-1
 248 321 l 1,0,-1
397 -139 m 1,12,-1
 369 -250 l 1,13,-1
 275 -250 l 1,14,-1
 291 -171 l 1,15,-1
 206 -171 l 1,16,-1
 206 -20 l 1,17,-1
 397 -20 l 1,18,-1
 397 -139 l 1,12,-1
EndSplineSet
EndChar

StartChar: l
Encoding: 108 108 147
Width: 298
GlyphClass: 2
Flags: MW
HStem: 0 720<50 248 50 248>
VStem: 50 198<0 720>
AnchorPoint: "Bottom" 149 0 basechar 0
LayerCount: 2
Fore
SplineSet
248 0 m 1,0,-1
 50 0 l 1,1,-1
 50 720 l 1,2,-1
 248 720 l 1,3,-1
 248 0 l 1,0,-1
EndSplineSet
EndChar

StartChar: lacute
Encoding: 314 314 148
Width: 298
GlyphClass: 2
Flags: MW
HStem: 0 720<50 248 50 248> 700 20G<50 248 248 248> 750 145<168 195 77 319>
VStem: 50 198<0 720>
AnchorPoint: "Bottom" 149 0 basechar 0
LayerCount: 2
Fore
SplineSet
321 892 m 1,0,-1
 195 750 l 1,1,-1
 77 750 l 1,2,-1
 168 895 l 1,3,-1
 319 895 l 1,4,-1
 321 892 l 1,0,-1
248 0 m 1,5,-1
 50 0 l 1,6,-1
 50 720 l 1,7,-1
 248 720 l 1,8,-1
 248 0 l 1,5,-1
EndSplineSet
EndChar

StartChar: lcaron
Encoding: 318 318 149
Width: 298
GlyphClass: 2
Flags: MW
HStem: 338 348<328 422 328 328> 503 183<281 365 281 472> 503 217<50 365 50 281>
VStem: 50 198<0 720> 281 191<525 525 525 686 525 686>
AnchorPoint: "Bottom" 149 0 basechar 0
LayerCount: 2
Fore
SplineSet
248 0 m 1,0,-1
 50 0 l 1,1,-1
 50 720 l 1,2,-1
 248 720 l 1,3,-1
 248 0 l 1,0,-1
472 525 m 1,4,-1
 422 338 l 1,5,-1
 328 338 l 1,6,-1
 365 503 l 1,7,-1
 281 503 l 1,8,-1
 281 686 l 1,9,-1
 472 686 l 1,10,-1
 472 525 l 1,4,-1
EndSplineSet
EndChar

StartChar: lcommaaccent
Encoding: 316 316 150
Width: 298
GlyphClass: 2
Flags: MW
HStem: -171 151<53 138 53 244> 0 720<50 248 50 248> 700 20G<50 248 248 248>
VStem: 50 198<0 720>
AnchorPoint: "Bottom" 149 0 basechar 0
LayerCount: 2
Fore
SplineSet
248 0 m 1,0,-1
 50 0 l 1,1,-1
 50 720 l 1,2,-1
 248 720 l 1,3,-1
 248 0 l 1,0,-1
244 -139 m 1,4,-1
 216 -250 l 1,5,-1
 122 -250 l 1,6,-1
 138 -171 l 1,7,-1
 53 -171 l 1,8,-1
 53 -20 l 1,9,-1
 244 -20 l 1,10,-1
 244 -139 l 1,4,-1
EndSplineSet
EndChar

StartChar: lslash
Encoding: 322 322 151
Width: 349
GlyphClass: 2
Flags: MW
HStem: 0 720<76 274 76 274> 499 20G<335 335> 700 20G<76 274 274 274>
VStem: 76 198<0 285 285 285 488 720>
LayerCount: 2
Fore
SplineSet
274 488 m 1,0,-1
 335 519 l 1,1,-1
 335 414 l 1,2,-1
 274 384 l 1,3,-1
 274 0 l 1,4,-1
 76 0 l 1,5,-1
 76 285 l 1,6,-1
 17 255 l 1,7,-1
 17 360 l 1,8,-1
 76 389 l 1,9,-1
 76 720 l 1,10,-1
 274 720 l 1,11,-1
 274 488 l 1,0,-1
EndSplineSet
EndChar

StartChar: m
Encoding: 109 109 152
Width: 871
GlyphClass: 2
Flags: MW
HStem: 0 511<50 198 50 244 50 198 50 534 50 340 50 824 50 630> 0 521<50 384 50 384 357 384 384 412.5 357 534 340 384 647 674 674 715.5 357 824 357 630> 379 142<278.5 384>
VStem: 50 194<0 324 0 511 0 511> 340 194<0 324 0 340.5> 630 194<0 324 324 340.5>
LayerCount: 2
Fore
SplineSet
647 521 m 2,0,-1
 674 521 l 2,1,2
 736 521 736 521 780 477 c 128,-1,3
 824 433 824 433 824 371 c 2,4,-1
 824 0 l 1,5,-1
 630 0 l 1,6,-1
 630 324 l 2,7,8
 630 348 630 348 616.5 363.5 c 128,-1,9
 603 379 603 379 582 379 c 128,-1,10
 561 379 561 379 547.5 363.5 c 128,-1,11
 534 348 534 348 534 324 c 2,12,-1
 534 0 l 1,13,-1
 340 0 l 1,14,-1
 340 324 l 2,15,16
 340 348 340 348 326.5 363.5 c 128,-1,17
 313 379 313 379 292 379 c 128,-1,18
 271 379 271 379 257.5 363.5 c 128,-1,19
 244 348 244 348 244 324 c 2,20,-1
 244 0 l 1,21,-1
 50 0 l 1,22,-1
 50 511 l 1,23,-1
 198 511 l 1,24,-1
 219 437 l 1,25,26
 284 521 284 521 357 521 c 2,27,-1
 384 521 l 2,28,29
 426 521 426 521 461 500 c 128,-1,30
 496 479 496 479 515 443 c 1,31,32
 560 521 560 521 647 521 c 2,0,-1
EndSplineSet
EndChar

StartChar: n
Encoding: 110 110 153
Width: 599
GlyphClass: 2
Flags: MW
HStem: 0 511<50 199 50 248 50 199 50 552 50 354> 380 141<286.5 402>
VStem: 50 198<0 320 0 511 0 511> 354 198<0 320 320 336.5>
AnchorPoint: "Bottom" 300 0 basechar 0
LayerCount: 2
Fore
SplineSet
374 521 m 2,0,-1
 402 521 l 2,1,2
 464 521 464 521 508 477 c 128,-1,3
 552 433 552 433 552 371 c 2,4,-1
 552 0 l 1,5,-1
 354 0 l 1,6,-1
 354 320 l 2,7,8
 354 345 354 345 338.5 362.5 c 128,-1,9
 323 380 323 380 301 380 c 128,-1,10
 279 380 279 380 263.5 362.5 c 128,-1,11
 248 345 248 345 248 320 c 2,12,-1
 248 0 l 1,13,-1
 50 0 l 1,14,-1
 50 511 l 1,15,-1
 199 511 l 1,16,-1
 219 437 l 1,17,18
 274 521 274 521 374 521 c 2,0,-1
EndSplineSet
EndChar

StartChar: nacute
Encoding: 324 324 154
Width: 599
GlyphClass: 2
Flags: MW
HStem: 0 511<50 199 50 248 50 199 50 552 50 354> 380 141<286.5 402> 575 145<319 346 228 470>
VStem: 50 198<0 320 0 511 0 511> 354 198<0 320 320 336.5>
AnchorPoint: "Bottom" 300 0 basechar 0
LayerCount: 2
Fore
SplineSet
472 717 m 1,0,-1
 346 575 l 1,1,-1
 228 575 l 1,2,-1
 319 720 l 1,3,-1
 470 720 l 1,4,-1
 472 717 l 1,0,-1
374 521 m 2,5,-1
 402 521 l 2,6,7
 464 521 464 521 508 477 c 128,-1,8
 552 433 552 433 552 371 c 2,9,-1
 552 0 l 1,10,-1
 354 0 l 1,11,-1
 354 320 l 2,12,13
 354 345 354 345 338.5 362.5 c 128,-1,14
 323 380 323 380 301 380 c 128,-1,15
 279 380 279 380 263.5 362.5 c 128,-1,16
 248 345 248 345 248 320 c 2,17,-1
 248 0 l 1,18,-1
 50 0 l 1,19,-1
 50 511 l 1,20,-1
 199 511 l 1,21,-1
 219 437 l 1,22,23
 274 521 274 521 374 521 c 2,5,-1
EndSplineSet
EndChar

StartChar: ncaron
Encoding: 328 328 155
Width: 599
GlyphClass: 2
Flags: MW
HStem: 0 511<50 199 50 248 50 199 50 552 50 354> 380 141<286.5 402> 575 145<97 364 97 236>
VStem: 50 198<0 320 0 511 0 511> 354 198<0 320 320 336.5>
AnchorPoint: "Bottom" 300 0 basechar 0
LayerCount: 2
Fore
SplineSet
364 575 m 1,0,-1
 236 575 l 1,1,-1
 97 720 l 1,2,-1
 227 720 l 1,3,-1
 301 643 l 1,4,-1
 375 720 l 1,5,-1
 503 720 l 1,6,-1
 364 575 l 1,0,-1
374 521 m 2,7,-1
 402 521 l 2,8,9
 464 521 464 521 508 477 c 128,-1,10
 552 433 552 433 552 371 c 2,11,-1
 552 0 l 1,12,-1
 354 0 l 1,13,-1
 354 320 l 2,14,15
 354 345 354 345 338.5 362.5 c 128,-1,16
 323 380 323 380 301 380 c 128,-1,17
 279 380 279 380 263.5 362.5 c 128,-1,18
 248 345 248 345 248 320 c 2,19,-1
 248 0 l 1,20,-1
 50 0 l 1,21,-1
 50 511 l 1,22,-1
 199 511 l 1,23,-1
 219 437 l 1,24,25
 274 521 274 521 374 521 c 2,7,-1
EndSplineSet
EndChar

StartChar: ncommaaccent
Encoding: 326 326 156
Width: 599
GlyphClass: 2
Flags: MW
HStem: -171 151<204 289 204 395> 0 511<50 199 50 248 50 199 50 552 50 354> 380 141<286.5 402>
VStem: 50 198<0 320 0 511 0 511> 354 198<0 320 320 336.5>
AnchorPoint: "Bottom" 300 0 basechar 0
LayerCount: 2
Fore
SplineSet
374 521 m 2,0,-1
 402 521 l 2,1,2
 464 521 464 521 508 477 c 128,-1,3
 552 433 552 433 552 371 c 2,4,-1
 552 0 l 1,5,-1
 354 0 l 1,6,-1
 354 320 l 2,7,8
 354 345 354 345 338.5 362.5 c 128,-1,9
 323 380 323 380 301 380 c 128,-1,10
 279 380 279 380 263.5 362.5 c 128,-1,11
 248 345 248 345 248 320 c 2,12,-1
 248 0 l 1,13,-1
 50 0 l 1,14,-1
 50 511 l 1,15,-1
 199 511 l 1,16,-1
 219 437 l 1,17,18
 274 521 274 521 374 521 c 2,0,-1
395 -139 m 1,19,-1
 367 -250 l 1,20,-1
 273 -250 l 1,21,-1
 289 -171 l 1,22,-1
 204 -171 l 1,23,-1
 204 -20 l 1,24,-1
 395 -20 l 1,25,-1
 395 -139 l 1,19,-1
EndSplineSet
EndChar

StartChar: ntilde
Encoding: 241 241 157
Width: 599
GlyphClass: 2
Flags: MW
HStem: 0 511<50 199 50 248 50 199 50 552 50 354> 380 141<286.5 402> 577 103<379 416.5 377.5 433.5> 577 143<91 263 91 263 192.5 433.5> 617 103<209.5 228.5>
VStem: 50 198<0 320 0 511 0 511> 354 198<0 320 320 336.5>
LayerCount: 2
Fore
SplineSet
454 720 m 1,0,-1
 535 720 l 1,1,2
 535 665 535 665 493.5 621 c 128,-1,3
 452 577 452 577 395 577 c 0,4,5
 357 577 357 577 304 596 c 1,6,-1
 262 610 l 2,7,8
 239 617 239 617 222 617 c 0,9,10
 184 617 184 617 172 577 c 1,11,-1
 91 577 l 1,12,13
 91 632 91 632 132.5 676 c 128,-1,14
 174 720 174 720 231 720 c 0,15,16
 264 720 264 720 321.5 700 c 128,-1,17
 379 680 379 680 404 680 c 0,18,19
 442 680 442 680 454 720 c 1,0,-1
374 521 m 2,20,-1
 402 521 l 2,21,22
 464 521 464 521 508 477 c 128,-1,23
 552 433 552 433 552 371 c 2,24,-1
 552 0 l 1,25,-1
 354 0 l 1,26,-1
 354 320 l 2,27,28
 354 345 354 345 338.5 362.5 c 128,-1,29
 323 380 323 380 301 380 c 128,-1,30
 279 380 279 380 263.5 362.5 c 128,-1,31
 248 345 248 345 248 320 c 2,32,-1
 248 0 l 1,33,-1
 50 0 l 1,34,-1
 50 511 l 1,35,-1
 199 511 l 1,36,-1
 219 437 l 1,37,38
 274 521 274 521 374 521 c 2,20,-1
EndSplineSet
EndChar

StartChar: o
Encoding: 111 111 158
Width: 614
GlyphClass: 2
Flags: MW
HStem: -10 121<287.5 291 291 323> 400 121<291 323 323 326.5>
VStem: 26 212<245 266 266 330 161.5 341.5> 376 212<181 245 245 266 169 330 169 349.5>
LayerCount: 2
Fore
SplineSet
291 521 m 2,0,-1
 323 521 l 2,1,2
 438 521 438 521 513 449.5 c 128,-1,3
 588 378 588 378 588 266 c 2,4,-1
 588 245 l 2,5,6
 588 132 588 132 513 61 c 128,-1,7
 438 -10 438 -10 323 -10 c 2,8,-1
 291 -10 l 2,9,10
 176 -10 176 -10 101 61.5 c 128,-1,11
 26 133 26 133 26 245 c 2,12,-1
 26 266 l 2,13,14
 26 378 26 378 101 449.5 c 128,-1,15
 176 521 176 521 291 521 c 2,0,-1
307 400 m 128,-1,17
 278 400 278 400 258 379.5 c 128,-1,18
 238 359 238 359 238 330 c 2,19,-1
 238 181 l 2,20,21
 238 152 238 152 258 131.5 c 128,-1,22
 278 111 278 111 307 111 c 128,-1,23
 336 111 336 111 356 131.5 c 128,-1,24
 376 152 376 152 376 181 c 2,25,-1
 376 330 l 2,26,27
 376 359 376 359 356 379.5 c 128,-1,16
 336 400 336 400 307 400 c 128,-1,17
EndSplineSet
Substitution2: "Single Substitution lookup 5 subtable" ordmasculine
Substitution2: "'aalt' Access All Alternates lookup 0 subtable" ordmasculine
EndChar

StartChar: oacute
Encoding: 243 243 159
Width: 614
GlyphClass: 2
Flags: MW
HStem: -10 121<287.5 291 291 323> 400 121<291 323 323 326.5> 575 145<340 367 249 491>
VStem: 26 212<245 266 266 330 161.5 341.5> 376 212<181 245 245 266 169 330 169 349.5>
LayerCount: 2
Fore
SplineSet
493 717 m 1,0,-1
 367 575 l 1,1,-1
 249 575 l 1,2,-1
 340 720 l 1,3,-1
 491 720 l 1,4,-1
 493 717 l 1,0,-1
291 521 m 2,5,-1
 323 521 l 2,6,7
 438 521 438 521 513 449.5 c 128,-1,8
 588 378 588 378 588 266 c 2,9,-1
 588 245 l 2,10,11
 588 132 588 132 513 61 c 128,-1,12
 438 -10 438 -10 323 -10 c 2,13,-1
 291 -10 l 2,14,15
 176 -10 176 -10 101 61.5 c 128,-1,16
 26 133 26 133 26 245 c 2,17,-1
 26 266 l 2,18,19
 26 378 26 378 101 449.5 c 128,-1,20
 176 521 176 521 291 521 c 2,5,-1
307 400 m 128,-1,22
 278 400 278 400 258 379.5 c 128,-1,23
 238 359 238 359 238 330 c 2,24,-1
 238 181 l 2,25,26
 238 152 238 152 258 131.5 c 128,-1,27
 278 111 278 111 307 111 c 128,-1,28
 336 111 336 111 356 131.5 c 128,-1,29
 376 152 376 152 376 181 c 2,30,-1
 376 330 l 2,31,32
 376 359 376 359 356 379.5 c 128,-1,21
 336 400 336 400 307 400 c 128,-1,22
EndSplineSet
EndChar

StartChar: ocircumflex
Encoding: 244 244 160
Width: 614
GlyphClass: 2
Flags: MW
HStem: -10 121<287.5 291 291 323> 400 121<291 323 323 326.5> 575 145<103 370 103 370 242 509 242 379> 652 68<305 305>
VStem: 26 212<245 266 266 330 161.5 341.5> 376 212<181 245 245 266 169 330 169 349.5>
LayerCount: 2
Fore
SplineSet
509 575 m 1,0,-1
 379 575 l 1,1,-1
 305 652 l 1,2,-1
 231 575 l 1,3,-1
 103 575 l 1,4,-1
 242 720 l 1,5,-1
 370 720 l 1,6,-1
 509 575 l 1,0,-1
291 521 m 2,7,-1
 323 521 l 2,8,9
 438 521 438 521 513 449.5 c 128,-1,10
 588 378 588 378 588 266 c 2,11,-1
 588 245 l 2,12,13
 588 132 588 132 513 61 c 128,-1,14
 438 -10 438 -10 323 -10 c 2,15,-1
 291 -10 l 2,16,17
 176 -10 176 -10 101 61.5 c 128,-1,18
 26 133 26 133 26 245 c 2,19,-1
 26 266 l 2,20,21
 26 378 26 378 101 449.5 c 128,-1,22
 176 521 176 521 291 521 c 2,7,-1
307 400 m 128,-1,24
 278 400 278 400 258 379.5 c 128,-1,25
 238 359 238 359 238 330 c 2,26,-1
 238 181 l 2,27,28
 238 152 238 152 258 131.5 c 128,-1,29
 278 111 278 111 307 111 c 128,-1,30
 336 111 336 111 356 131.5 c 128,-1,31
 376 152 376 152 376 181 c 2,32,-1
 376 330 l 2,33,34
 376 359 376 359 356 379.5 c 128,-1,23
 336 400 336 400 307 400 c 128,-1,24
EndSplineSet
EndChar

StartChar: odieresis
Encoding: 246 246 161
Width: 614
GlyphClass: 2
Flags: MW
HStem: -10 121<287.5 291 291 323> 400 121<291 323 323 326.5> 573 147<120 272 120 272 120 340 340 492>
VStem: 26 212<245 266 266 330 161.5 341.5> 120 152<573 720 573 720> 340 152<573 720 573 720> 376 212<181 245 245 266 169 330 169 349.5>
LayerCount: 2
Fore
SplineSet
272 573 m 1,0,-1
 120 573 l 1,1,-1
 120 720 l 1,2,-1
 272 720 l 1,3,-1
 272 573 l 1,0,-1
492 573 m 1,4,-1
 340 573 l 1,5,-1
 340 720 l 1,6,-1
 492 720 l 1,7,-1
 492 573 l 1,4,-1
291 521 m 2,8,-1
 323 521 l 2,9,10
 438 521 438 521 513 449.5 c 128,-1,11
 588 378 588 378 588 266 c 2,12,-1
 588 245 l 2,13,14
 588 132 588 132 513 61 c 128,-1,15
 438 -10 438 -10 323 -10 c 2,16,-1
 291 -10 l 2,17,18
 176 -10 176 -10 101 61.5 c 128,-1,19
 26 133 26 133 26 245 c 2,20,-1
 26 266 l 2,21,22
 26 378 26 378 101 449.5 c 128,-1,23
 176 521 176 521 291 521 c 2,8,-1
307 400 m 128,-1,25
 278 400 278 400 258 379.5 c 128,-1,26
 238 359 238 359 238 330 c 2,27,-1
 238 181 l 2,28,29
 238 152 238 152 258 131.5 c 128,-1,30
 278 111 278 111 307 111 c 128,-1,31
 336 111 336 111 356 131.5 c 128,-1,32
 376 152 376 152 376 181 c 2,33,-1
 376 330 l 2,34,35
 376 359 376 359 356 379.5 c 128,-1,24
 336 400 336 400 307 400 c 128,-1,25
EndSplineSet
EndChar

StartChar: ograve
Encoding: 242 242 162
Width: 614
GlyphClass: 2
Flags: MW
HStem: -10 121<287.5 291 291 323> 400 121<291 323 323 326.5> 575 145<246 273 122 364 246 246>
VStem: 26 212<245 266 266 330 161.5 341.5> 376 212<181 245 245 266 169 330 169 349.5>
LayerCount: 2
Fore
SplineSet
364 575 m 1,0,-1
 246 575 l 1,1,-1
 120 717 l 1,2,-1
 122 720 l 1,3,-1
 273 720 l 1,4,-1
 364 575 l 1,0,-1
291 521 m 2,5,-1
 323 521 l 2,6,7
 438 521 438 521 513 449.5 c 128,-1,8
 588 378 588 378 588 266 c 2,9,-1
 588 245 l 2,10,11
 588 132 588 132 513 61 c 128,-1,12
 438 -10 438 -10 323 -10 c 2,13,-1
 291 -10 l 2,14,15
 176 -10 176 -10 101 61.5 c 128,-1,16
 26 133 26 133 26 245 c 2,17,-1
 26 266 l 2,18,19
 26 378 26 378 101 449.5 c 128,-1,20
 176 521 176 521 291 521 c 2,5,-1
307 400 m 128,-1,22
 278 400 278 400 258 379.5 c 128,-1,23
 238 359 238 359 238 330 c 2,24,-1
 238 181 l 2,25,26
 238 152 238 152 258 131.5 c 128,-1,27
 278 111 278 111 307 111 c 128,-1,28
 336 111 336 111 356 131.5 c 128,-1,29
 376 152 376 152 376 181 c 2,30,-1
 376 330 l 2,31,32
 376 359 376 359 356 379.5 c 128,-1,21
 336 400 336 400 307 400 c 128,-1,22
EndSplineSet
EndChar

StartChar: ohungarumlaut
Encoding: 337 337 163
Width: 614
GlyphClass: 2
Flags: MW
HStem: -10 121<287.5 291 291 323> 400 121<291 323 323 326.5> 575 145<192 219 101 343 328 328 328 343 419 446>
VStem: 26 212<245 266 266 330 161.5 341.5> 376 212<181 245 245 266 169 330 169 349.5>
LayerCount: 2
Fore
SplineSet
345 717 m 1,0,-1
 219 575 l 1,1,-1
 101 575 l 1,2,-1
 192 720 l 1,3,-1
 343 720 l 1,4,-1
 345 717 l 1,0,-1
572 717 m 1,5,-1
 446 575 l 1,6,-1
 328 575 l 1,7,-1
 419 720 l 1,8,-1
 570 720 l 1,9,-1
 572 717 l 1,5,-1
291 521 m 2,10,-1
 323 521 l 2,11,12
 438 521 438 521 513 449.5 c 128,-1,13
 588 378 588 378 588 266 c 2,14,-1
 588 245 l 2,15,16
 588 132 588 132 513 61 c 128,-1,17
 438 -10 438 -10 323 -10 c 2,18,-1
 291 -10 l 2,19,20
 176 -10 176 -10 101 61.5 c 128,-1,21
 26 133 26 133 26 245 c 2,22,-1
 26 266 l 2,23,24
 26 378 26 378 101 449.5 c 128,-1,25
 176 521 176 521 291 521 c 2,10,-1
307 400 m 128,-1,27
 278 400 278 400 258 379.5 c 128,-1,28
 238 359 238 359 238 330 c 2,29,-1
 238 181 l 2,30,31
 238 152 238 152 258 131.5 c 128,-1,32
 278 111 278 111 307 111 c 128,-1,33
 336 111 336 111 356 131.5 c 128,-1,34
 376 152 376 152 376 181 c 2,35,-1
 376 330 l 2,36,37
 376 359 376 359 356 379.5 c 128,-1,26
 336 400 336 400 307 400 c 128,-1,27
EndSplineSet
EndChar

StartChar: omacron
Encoding: 333 333 164
Width: 614
GlyphClass: 2
Flags: MW
HStem: -10 121<287.5 291 291 323> 400 121<291 323 323 326.5> 662 74<148 466 148 466>
VStem: 26 212<245 266 266 330 161.5 341.5> 148 318<662 736 662 736> 376 212<181 245 245 266 169 330 169 349.5>
LayerCount: 2
Fore
SplineSet
466 662 m 1,0,-1
 148 662 l 1,1,-1
 148 736 l 1,2,-1
 466 736 l 1,3,-1
 466 662 l 1,0,-1
291 521 m 2,4,-1
 323 521 l 2,5,6
 438 521 438 521 513 449.5 c 128,-1,7
 588 378 588 378 588 266 c 2,8,-1
 588 245 l 2,9,10
 588 132 588 132 513 61 c 128,-1,11
 438 -10 438 -10 323 -10 c 2,12,-1
 291 -10 l 2,13,14
 176 -10 176 -10 101 61.5 c 128,-1,15
 26 133 26 133 26 245 c 2,16,-1
 26 266 l 2,17,18
 26 378 26 378 101 449.5 c 128,-1,19
 176 521 176 521 291 521 c 2,4,-1
307 400 m 128,-1,21
 278 400 278 400 258 379.5 c 128,-1,22
 238 359 238 359 238 330 c 2,23,-1
 238 181 l 2,24,25
 238 152 238 152 258 131.5 c 128,-1,26
 278 111 278 111 307 111 c 128,-1,27
 336 111 336 111 356 131.5 c 128,-1,28
 376 152 376 152 376 181 c 2,29,-1
 376 330 l 2,30,31
 376 359 376 359 356 379.5 c 128,-1,20
 336 400 336 400 307 400 c 128,-1,21
EndSplineSet
EndChar

StartChar: oslash
Encoding: 248 248 165
Width: 614
GlyphClass: 2
Flags: MW
HStem: -10 121<272.5 326.5 299.5 323> 400 121<291 314>
VStem: 26 212<245 266 266 330 220 341.5> 376 212<181 245 245 266 169 292 169 292>
LayerCount: 2
Fore
SplineSet
552 569 m 1,0,-1
 489 470 l 1,1,2
 588 397 588 397 588 266 c 2,3,-1
 588 245 l 2,4,5
 588 132 588 132 513 61 c 128,-1,6
 438 -10 438 -10 323 -10 c 2,7,-1
 291 -10 l 2,8,9
 235 -10 235 -10 194 6 c 1,10,-1
 155 -55 l 1,11,-1
 63 -55 l 1,12,-1
 125 42 l 1,13,14
 26 115 26 115 26 245 c 2,15,-1
 26 266 l 2,16,17
 26 378 26 378 101 449.5 c 128,-1,18
 176 521 176 521 291 521 c 2,19,-1
 323 521 l 2,20,21
 378 521 378 521 420 505 c 1,22,-1
 460 569 l 1,23,-1
 552 569 l 1,0,-1
345 388 m 1,24,25
 328 400 328 400 303 400 c 128,-1,26
 278 400 278 400 258 379.5 c 128,-1,27
 238 359 238 359 238 330 c 2,28,-1
 238 220 l 1,29,-1
 345 388 l 1,24,25
376 292 m 1,30,-1
 268 123 l 1,31,32
 284.5 111 284.5 111 310.25 111 c 128,-1,33
 336 111 336 111 356 131.5 c 128,-1,34
 376 152 376 152 376 181 c 2,35,-1
 376 292 l 1,30,-1
EndSplineSet
EndChar

StartChar: otilde
Encoding: 245 245 166
Width: 614
GlyphClass: 2
Flags: MW
HStem: -10 121<287.5 291 291 323> 400 121<291 323 323 326.5> 577 103<374 411.5 372.5 428.5> 577 143<86 258 86 258 187.5 428.5> 617 103<204.5 223.5>
VStem: 26 212<245 266 266 330 161.5 341.5> 376 212<181 245 245 266 169 330 169 349.5>
LayerCount: 2
Fore
SplineSet
449 720 m 1,0,-1
 530 720 l 1,1,2
 530 665 530 665 488.5 621 c 128,-1,3
 447 577 447 577 390 577 c 0,4,5
 359 577 359 577 300 596 c 2,6,-1
 258 610 l 2,7,8
 238 617 238 617 217 617 c 0,9,10
 179 617 179 617 167 577 c 1,11,-1
 86 577 l 1,12,13
 86 632 86 632 127.5 676 c 128,-1,14
 169 720 169 720 226 720 c 0,15,16
 259 720 259 720 316.5 700 c 128,-1,17
 374 680 374 680 399 680 c 0,18,19
 437 680 437 680 449 720 c 1,0,-1
291 521 m 2,20,-1
 323 521 l 2,21,22
 438 521 438 521 513 449.5 c 128,-1,23
 588 378 588 378 588 266 c 2,24,-1
 588 245 l 2,25,26
 588 132 588 132 513 61 c 128,-1,27
 438 -10 438 -10 323 -10 c 2,28,-1
 291 -10 l 2,29,30
 176 -10 176 -10 101 61.5 c 128,-1,31
 26 133 26 133 26 245 c 2,32,-1
 26 266 l 2,33,34
 26 378 26 378 101 449.5 c 128,-1,35
 176 521 176 521 291 521 c 2,20,-1
307 400 m 128,-1,37
 278 400 278 400 258 379.5 c 128,-1,38
 238 359 238 359 238 330 c 2,39,-1
 238 181 l 2,40,41
 238 152 238 152 258 131.5 c 128,-1,42
 278 111 278 111 307 111 c 128,-1,43
 336 111 336 111 356 131.5 c 128,-1,44
 376 152 376 152 376 181 c 2,45,-1
 376 330 l 2,46,47
 376 359 376 359 356 379.5 c 128,-1,36
 336 400 336 400 307 400 c 128,-1,37
EndSplineSet
EndChar

StartChar: oe
Encoding: 339 339 167
Width: 944
GlyphClass: 2
Flags: MW
HStem: -10 121<287.5 291 291 323 637.5 650 650 665> 229 87<582 720 582 915 582 720> 400 121<291 323 323 326.5 643 668 668 670.5>
VStem: 26 212<245 266 266 330 161.5 341.5> 376 206<181 229 157.5 316 316 330 157.5 349.5> 720 195<229 330 229 349.5> 731 183<167.5 192>
LayerCount: 2
Fore
SplineSet
643 521 m 2,0,-1
 668 521 l 2,1,2
 783 521 783 521 849 457 c 128,-1,3
 915 393 915 393 915 291 c 2,4,-1
 915 229 l 1,5,-1
 582 229 l 1,6,-1
 582 181 l 2,7,8
 582 147 582 147 603.5 129 c 128,-1,9
 625 111 625 111 659.5 111 c 0,10,11
 694 111 694 111 712.5 132.5 c 128,-1,12
 731 154 731 154 731 192 c 1,13,-1
 914 192 l 1,14,15
 914 104 914 104 847 47 c 128,-1,16
 780 -10 780 -10 665 -10 c 2,17,-1
 650 -10 l 2,18,19
 550 -10 550 -10 479 34 c 1,20,21
 411 -10 411 -10 323 -10 c 2,22,-1
 291 -10 l 2,23,24
 176 -10 176 -10 101 61.5 c 128,-1,25
 26 133 26 133 26 245 c 2,26,-1
 26 266 l 2,27,28
 26 378 26 378 101 449.5 c 128,-1,29
 176 521 176 521 291 521 c 2,30,-1
 323 521 l 2,31,32
 412 521 412 521 477 478 c 1,33,34
 545 521 545 521 643 521 c 2,0,-1
307 400 m 128,-1,36
 278 400 278 400 258 379.5 c 128,-1,37
 238 359 238 359 238 330 c 2,38,-1
 238 181 l 2,39,40
 238 152 238 152 258 131.5 c 128,-1,41
 278 111 278 111 307 111 c 128,-1,42
 336 111 336 111 356 131.5 c 128,-1,43
 376 152 376 152 376 181 c 2,44,-1
 376 330 l 2,45,46
 376 359 376 359 356 379.5 c 128,-1,35
 336 400 336 400 307 400 c 128,-1,36
651 400 m 128,-1,48
 622 400 622 400 602 379.5 c 128,-1,49
 582 359 582 359 582 330 c 2,50,-1
 582 316 l 1,51,-1
 720 316 l 1,52,-1
 720 330 l 2,53,54
 720 359 720 359 700 379.5 c 128,-1,47
 680 400 680 400 651 400 c 128,-1,48
EndSplineSet
EndChar

StartChar: p
Encoding: 112 112 168
Width: 601
GlyphClass: 2
Flags: MW
HStem: -10 125<292.5 433.5> 400 121<324.5 327.5> 491 20G<50 208 208 208>
VStem: 50 198<-181 53 165.5 185 185 330> 372 201<185 250 250 261 162.5 330 162.5 349.5>
LayerCount: 2
Fore
SplineSet
355 521 m 0,0,1
 451 521 451 521 512 454 c 128,-1,2
 573 387 573 387 573 261 c 2,3,-1
 573 250 l 2,4,5
 573 124 573 124 519 57 c 128,-1,6
 465 -10 465 -10 375.5 -10 c 0,7,8
 286 -10 286 -10 248 53 c 1,9,-1
 248 -181 l 1,10,-1
 50 -181 l 1,11,-1
 50 511 l 1,12,-1
 208 511 l 1,13,-1
 226 452 l 1,14,15
 279 521 279 521 355 521 c 0,0,1
310 400 m 128,-1,17
 284 400 284 400 266 379.5 c 128,-1,18
 248 359 248 359 248 330 c 2,19,-1
 248 185 l 2,20,21
 248 156 248 156 266 135.5 c 128,-1,22
 284 115 284 115 310 115 c 128,-1,23
 336 115 336 115 354 135.5 c 128,-1,24
 372 156 372 156 372 185 c 2,25,-1
 372 330 l 2,26,27
 372 359 372 359 354 379.5 c 128,-1,16
 336 400 336 400 310 400 c 128,-1,17
EndSplineSet
EndChar

StartChar: thorn
Encoding: 254 254 169
Width: 601
GlyphClass: 2
Flags: MW
HStem: -10 125<292.5 433.5> 400 121<292.5 433.5> 700 20G<50 248 248 248>
VStem: 50 198<-181 53 165.5 185 185 330 458 720> 372 201<185 250 250 261 162.5 330 162.5 349.5>
LayerCount: 2
Fore
SplineSet
248 720 m 1,0,-1
 248 458 l 1,1,2
 286 521 286 521 375.5 521 c 0,3,4
 465 521 465 521 519 454 c 128,-1,5
 573 387 573 387 573 261 c 2,6,-1
 573 250 l 2,7,8
 573 124 573 124 519 57 c 128,-1,9
 465 -10 465 -10 375.5 -10 c 0,10,11
 286 -10 286 -10 248 53 c 1,12,-1
 248 -181 l 1,13,-1
 50 -181 l 1,14,-1
 50 720 l 1,15,-1
 248 720 l 1,0,-1
310 400 m 128,-1,17
 284 400 284 400 266 379.5 c 128,-1,18
 248 359 248 359 248 330 c 2,19,-1
 248 185 l 2,20,21
 248 156 248 156 266 135.5 c 128,-1,22
 284 115 284 115 310 115 c 128,-1,23
 336 115 336 115 354 135.5 c 128,-1,24
 372 156 372 156 372 185 c 2,25,-1
 372 330 l 2,26,27
 372 359 372 359 354 379.5 c 128,-1,16
 336 400 336 400 310 400 c 128,-1,17
EndSplineSet
EndChar

StartChar: q
Encoding: 113 113 170
Width: 600
GlyphClass: 2
Flags: MW
HStem: -180 691<480 550 480 550 352 550> -11 125<166.5 307.5> 399 121<272.5 280 183.5 307.5>
VStem: 27 201<249 260 260 329 164.5 347.5> 352 198<-180 52 52 52 184 329 329 348.5>
LayerCount: 2
Fore
SplineSet
88 453 m 128,-1,1
 149 520 149 520 249 520 c 128,-1,2
 349 520 349 520 404 443 c 1,3,-1
 480 511 l 1,4,-1
 550 511 l 1,5,-1
 550 -180 l 1,6,-1
 352 -180 l 1,7,-1
 352 52 l 1,8,9
 297 -11 297 -11 216 -11 c 128,-1,10
 135 -11 135 -11 81 56 c 128,-1,11
 27 123 27 123 27 249 c 2,12,-1
 27 260 l 2,13,0
 27 386 27 386 88 453 c 128,-1,1
290 399 m 128,-1,15
 264 399 264 399 246 378.5 c 128,-1,16
 228 358 228 358 228 329 c 2,17,-1
 228 184 l 2,18,19
 228 155 228 155 246 134.5 c 128,-1,20
 264 114 264 114 290 114 c 128,-1,21
 316 114 316 114 334 134.5 c 128,-1,22
 352 155 352 155 352 184 c 2,23,-1
 352 329 l 2,24,25
 352 358 352 358 334 378.5 c 128,-1,14
 316 399 316 399 290 399 c 128,-1,15
EndSplineSet
EndChar

StartChar: r
Encoding: 114 114 171
Width: 506
GlyphClass: 2
Flags: MW
HStem: 0 511<50 198 50 243 50 198> 304 217<328 399.5 313.5 490 328 328> 378 143<274 399.5>
VStem: 50 193<0 328 0 511 0 511> 328 166<304 367 328 367>
AnchorPoint: "Bottom" 147 0 basechar 0
LayerCount: 2
Fore
SplineSet
355 521 m 0,0,1
 421 521 421 521 457.5 484.5 c 128,-1,2
 494 448 494 448 494 384 c 2,3,-1
 494 367 l 2,4,5
 494 359 494 359 492 329 c 2,6,-1
 490 304 l 1,7,-1
 328 304 l 1,8,-1
 328 328 l 2,9,10
 328 349 328 349 315.5 363.5 c 128,-1,11
 303 378 303 378 285.5 378 c 128,-1,12
 268 378 268 378 255.5 363.5 c 128,-1,13
 243 349 243 349 243 328 c 2,14,-1
 243 0 l 1,15,-1
 50 0 l 1,16,-1
 50 511 l 1,17,-1
 198 511 l 1,18,-1
 220 437 l 1,19,20
 238.869565217 474.739130435 238.869565217 474.739130435 278.434782609 497.869565217 c 128,-1,21
 318 521 318 521 355 521 c 0,0,1
EndSplineSet
EndChar

StartChar: racute
Encoding: 341 341 172
Width: 506
GlyphClass: 2
Flags: MW
HStem: 0 511<50 198 50 243 50 198> 304 217<328 399.5 313.5 490 328 328> 378 143<274 399.5> 575 145<168 195 77 319>
VStem: 50 193<0 328 0 511 0 511> 328 166<304 367 328 367>
AnchorPoint: "Bottom" 147 0 basechar 0
LayerCount: 2
Fore
SplineSet
321 717 m 1,0,-1
 195 575 l 1,1,-1
 77 575 l 1,2,-1
 168 720 l 1,3,-1
 319 720 l 1,4,-1
 321 717 l 1,0,-1
355 521 m 0,5,6
 421 521 421 521 457.5 484.5 c 128,-1,7
 494 448 494 448 494 384 c 2,8,-1
 494 367 l 2,9,10
 494 359 494 359 492 329 c 2,11,-1
 490 304 l 1,12,-1
 328 304 l 1,13,-1
 328 328 l 2,14,15
 328 349 328 349 315.5 363.5 c 128,-1,16
 303 378 303 378 285.5 378 c 128,-1,17
 268 378 268 378 255.5 363.5 c 128,-1,18
 243 349 243 349 243 328 c 2,19,-1
 243 0 l 1,20,-1
 50 0 l 1,21,-1
 50 511 l 1,22,-1
 198 511 l 1,23,-1
 220 437 l 1,24,25
 238.869565217 474.739130435 238.869565217 474.739130435 278.434782609 497.869565217 c 128,-1,26
 318 521 318 521 355 521 c 0,5,6
EndSplineSet
EndChar

StartChar: rcaron
Encoding: 345 345 173
Width: 506
GlyphClass: 2
Flags: MW
HStem: 0 511<50 198 50 243 50 198> 304 217<328 399.5 313.5 490 328 328> 378 143<274 399.5> 575 145<-54 213 -54 85>
VStem: 50 193<0 328 0 511 0 511> 328 166<304 367 328 367>
AnchorPoint: "Bottom" 147 0 basechar 0
LayerCount: 2
Fore
SplineSet
213 575 m 1,0,-1
 85 575 l 1,1,-1
 -54 720 l 1,2,-1
 76 720 l 1,3,-1
 150 643 l 1,4,-1
 224 720 l 1,5,-1
 352 720 l 1,6,-1
 213 575 l 1,0,-1
355 521 m 0,7,8
 421 521 421 521 457.5 484.5 c 128,-1,9
 494 448 494 448 494 384 c 2,10,-1
 494 367 l 2,11,12
 494 359 494 359 492 329 c 2,13,-1
 490 304 l 1,14,-1
 328 304 l 1,15,-1
 328 328 l 2,16,17
 328 349 328 349 315.5 363.5 c 128,-1,18
 303 378 303 378 285.5 378 c 128,-1,19
 268 378 268 378 255.5 363.5 c 128,-1,20
 243 349 243 349 243 328 c 2,21,-1
 243 0 l 1,22,-1
 50 0 l 1,23,-1
 50 511 l 1,24,-1
 198 511 l 1,25,-1
 220 437 l 1,26,27
 238.869565217 474.739130435 238.869565217 474.739130435 278.434782609 497.869565217 c 128,-1,28
 318 521 318 521 355 521 c 0,7,8
EndSplineSet
EndChar

StartChar: rcommaaccent
Encoding: 343 343 174
Width: 506
GlyphClass: 2
Flags: MW
HStem: -171 151<51 136 51 242> 0 511<50 198 50 243 50 198> 304 217<328 399.5 313.5 490 328 328> 378 143<274 399.5>
VStem: 50 193<0 328 0 511 0 511> 328 166<304 367 328 367>
AnchorPoint: "Bottom" 147 0 basechar 0
LayerCount: 2
Fore
SplineSet
355 521 m 0,0,1
 421 521 421 521 457.5 484.5 c 128,-1,2
 494 448 494 448 494 384 c 2,3,-1
 494 367 l 2,4,5
 494 359 494 359 492 329 c 2,6,-1
 490 304 l 1,7,-1
 328 304 l 1,8,-1
 328 328 l 2,9,10
 328 349 328 349 315.5 363.5 c 128,-1,11
 303 378 303 378 285.5 378 c 128,-1,12
 268 378 268 378 255.5 363.5 c 128,-1,13
 243 349 243 349 243 328 c 2,14,-1
 243 0 l 1,15,-1
 50 0 l 1,16,-1
 50 511 l 1,17,-1
 198 511 l 1,18,-1
 220 437 l 1,19,20
 238.869565217 474.739130435 238.869565217 474.739130435 278.434782609 497.869565217 c 128,-1,21
 318 521 318 521 355 521 c 0,0,1
242 -139 m 1,22,-1
 214 -250 l 1,23,-1
 120 -250 l 1,24,-1
 136 -171 l 1,25,-1
 51 -171 l 1,26,-1
 51 -20 l 1,27,-1
 242 -20 l 1,28,-1
 242 -139 l 1,22,-1
EndSplineSet
EndChar

StartChar: s
Encoding: 115 115 175
Width: 559
GlyphClass: 2
Flags: MW
HStem: -10 121<189.5 280.5 253.5 280.5 253.5 295> 187.76 146.84 358 163<273 519 273 355> 403 118<275.5 299>
VStem: 22 163<149 158 158 159.5> 38 173<337.5 388.5 337.5 410.5> 355 166<358 431> 356 176<127 179.5>
AnchorPoint: "Bottom" 280 0 basechar 0
LayerCount: 2
Fore
SplineSet
521 384 m 1,0,-1
 519 358 l 1,1,-1
 355 358 l 1,2,3
 355 382 355 382 333.5 392.5 c 128,-1,4
 312 403 312 403 285 403 c 0,5,6
 211 403 211 403 211 374 c 0,7,8
 211 355 211 355 244 347 c 128,-1,9
 277 339 277 339 324 334 c 128,-1,10
 371 329 371 329 418.5 317.5 c 128,-1,11
 466 306 466 306 499 269 c 128,-1,12
 532 232 532 232 532 170 c 0,13,14
 532 76 532 76 463.5 33 c 128,-1,15
 395 -10 395 -10 295 -10 c 2,16,-1
 243 -10 l 2,17,18
 154 -10 154 -10 88 31.5 c 128,-1,19
 22 73 22 73 22 149 c 2,20,-1
 22 158 l 2,21,22
 22 164 22 164 23 167 c 1,23,-1
 185 167 l 1,24,-1
 185 163 l 2,25,26
 185 111 185 111 270.5 111 c 128,-1,27
 356 111 356 111 356 142 c 0,28,29
 356 162 356 162 323 171 c 128,-1,30
 290 180 290 180 243.5 186 c 128,-1,31
 197 192 197 192 150.5 204 c 128,-1,32
 104 216 104 216 71 252.5 c 128,-1,33
 38 289 38 289 38 348 c 128,-1,34
 38 407 38 407 76 447.5 c 0,35,36
 144.962962963 521 144.962962963 521 273 521 c 2,37,-1
 304 521 l 2,38,39
 382 521 382 521 451.5 484.5 c 128,-1,40
 521 448 521 448 521 384 c 1,0,-1
EndSplineSet
EndChar

StartChar: sacute
Encoding: 347 347 176
Width: 559
GlyphClass: 2
Flags: MW
HStem: -10 121<189.5 280.5 253.5 280.5 253.5 295> 187.76 146.84 358 163<273 519 273 355> 403 118<275.5 299> 575 145<299 326 208 450>
VStem: 22 163<149 158 158 159.5> 38 173<337.5 388.5 337.5 410.5> 355 166<358 431> 356 176<127 179.5>
AnchorPoint: "Bottom" 280 0 basechar 0
LayerCount: 2
Fore
SplineSet
452 717 m 1,0,-1
 326 575 l 1,1,-1
 208 575 l 1,2,-1
 299 720 l 1,3,-1
 450 720 l 1,4,-1
 452 717 l 1,0,-1
521 384 m 1,5,-1
 519 358 l 1,6,-1
 355 358 l 1,7,8
 355 382 355 382 333.5 392.5 c 128,-1,9
 312 403 312 403 285 403 c 0,10,11
 211 403 211 403 211 374 c 0,12,13
 211 355 211 355 244 347 c 128,-1,14
 277 339 277 339 324 334 c 128,-1,15
 371 329 371 329 418.5 317.5 c 128,-1,16
 466 306 466 306 499 269 c 128,-1,17
 532 232 532 232 532 170 c 0,18,19
 532 76 532 76 463.5 33 c 128,-1,20
 395 -10 395 -10 295 -10 c 2,21,-1
 243 -10 l 2,22,23
 154 -10 154 -10 88 31.5 c 128,-1,24
 22 73 22 73 22 149 c 2,25,-1
 22 158 l 2,26,27
 22 164 22 164 23 167 c 1,28,-1
 185 167 l 1,29,-1
 185 163 l 2,30,31
 185 111 185 111 270.5 111 c 128,-1,32
 356 111 356 111 356 142 c 0,33,34
 356 162 356 162 323 171 c 128,-1,35
 290 180 290 180 243.5 186 c 128,-1,36
 197 192 197 192 150.5 204 c 128,-1,37
 104 216 104 216 71 252.5 c 128,-1,38
 38 289 38 289 38 348 c 128,-1,39
 38 407 38 407 76 447.5 c 0,40,41
 144.962962963 521 144.962962963 521 273 521 c 2,42,-1
 304 521 l 2,43,44
 382 521 382 521 451.5 484.5 c 128,-1,45
 521 448 521 448 521 384 c 1,5,-1
EndSplineSet
EndChar

StartChar: scaron
Encoding: 353 353 177
Width: 559
GlyphClass: 2
Flags: MW
HStem: -10 121<189.5 280.5 253.5 280.5 253.5 295> 187.76 146.84 358 163<273 519 273 355> 403 118<275.5 299> 575 145<79 346 79 218>
VStem: 22 163<149 158 158 159.5> 38 173<337.5 388.5 337.5 410.5> 355 166<358 431> 356 176<127 179.5>
LayerCount: 2
Fore
SplineSet
346 575 m 1,0,-1
 218 575 l 1,1,-1
 79 720 l 1,2,-1
 209 720 l 1,3,-1
 283 643 l 1,4,-1
 357 720 l 1,5,-1
 485 720 l 1,6,-1
 346 575 l 1,0,-1
521 384 m 1,7,-1
 519 358 l 1,8,-1
 355 358 l 1,9,10
 355 382 355 382 333.5 392.5 c 128,-1,11
 312 403 312 403 285 403 c 0,12,13
 211 403 211 403 211 374 c 0,14,15
 211 355 211 355 244 347 c 128,-1,16
 277 339 277 339 324 334 c 128,-1,17
 371 329 371 329 418.5 317.5 c 128,-1,18
 466 306 466 306 499 269 c 128,-1,19
 532 232 532 232 532 170 c 0,20,21
 532 76 532 76 463.5 33 c 128,-1,22
 395 -10 395 -10 295 -10 c 2,23,-1
 243 -10 l 2,24,25
 154 -10 154 -10 88 31.5 c 128,-1,26
 22 73 22 73 22 149 c 2,27,-1
 22 158 l 2,28,29
 22 164 22 164 23 167 c 1,30,-1
 185 167 l 1,31,-1
 185 163 l 2,32,33
 185 111 185 111 270.5 111 c 128,-1,34
 356 111 356 111 356 142 c 0,35,36
 356 162 356 162 323 171 c 128,-1,37
 290 180 290 180 243.5 186 c 128,-1,38
 197 192 197 192 150.5 204 c 128,-1,39
 104 216 104 216 71 252.5 c 128,-1,40
 38 289 38 289 38 348 c 128,-1,41
 38 407 38 407 76 447.5 c 0,42,43
 144.962962963 521 144.962962963 521 273 521 c 2,44,-1
 304 521 l 2,45,46
 382 521 382 521 451.5 484.5 c 128,-1,47
 521 448 521 448 521 384 c 1,7,-1
EndSplineSet
EndChar

StartChar: scedilla
Encoding: 351 351 178
Width: 559
GlyphClass: 2
Flags: MW
HStem: -197 58<260.5 287 253.5 306.5> -76 59<259 277 259 280> -10 121<189.5 280.5 253.5 280.5 253.5 295> 187.76 146.84 358 163<273 519 273 355> 403 118<275.5 299>
VStem: 22 163<149 158 158 159.5> 38 173<337.5 388.5 337.5 410.5> 315 87<-119.5 -98> 355 166<358 431> 356 176<127 179.5>
AnchorPoint: "Bottom" 280 0 basechar 0
LayerCount: 2
Fore
SplineSet
521 384 m 1,0,-1
 519 358 l 1,1,-1
 355 358 l 1,2,3
 355 382 355 382 333.5 392.5 c 128,-1,4
 312 403 312 403 285 403 c 0,5,6
 211 403 211 403 211 374 c 0,7,8
 211 355 211 355 244 347 c 128,-1,9
 277 339 277 339 324 334 c 128,-1,10
 371 329 371 329 418.5 317.5 c 128,-1,11
 466 306 466 306 499 269 c 128,-1,12
 532 232 532 232 532 170 c 0,13,14
 532 76 532 76 463.5 33 c 128,-1,15
 395 -10 395 -10 295 -10 c 2,16,-1
 243 -10 l 2,17,18
 154 -10 154 -10 88 31.5 c 128,-1,19
 22 73 22 73 22 149 c 2,20,-1
 22 158 l 2,21,22
 22 164 22 164 23 167 c 1,23,-1
 185 167 l 1,24,-1
 185 163 l 2,25,26
 185 111 185 111 270.5 111 c 128,-1,27
 356 111 356 111 356 142 c 0,28,29
 356 162 356 162 323 171 c 128,-1,30
 290 180 290 180 243.5 186 c 128,-1,31
 197 192 197 192 150.5 204 c 128,-1,32
 104 216 104 216 71 252.5 c 128,-1,33
 38 289 38 289 38 348 c 128,-1,34
 38 407 38 407 76 447.5 c 0,35,36
 144.962962963 521 144.962962963 521 273 521 c 2,37,-1
 304 521 l 2,38,39
 382 521 382 521 451.5 484.5 c 128,-1,40
 521 448 521 448 521 384 c 1,0,-1
259 -17 m 1,41,-1
 280 -17 l 2,42,43
 402 -17 402 -17 402 -108 c 0,44,45
 402 -142 402 -142 381 -163 c 0,46,47
 347 -197 347 -197 274.5 -197 c 128,-1,48
 202 -197 202 -197 158 -161 c 1,49,-1
 190 -107 l 1,50,51
 227 -139 227 -139 271 -139 c 128,-1,52
 315 -139 315 -139 315 -107.5 c 128,-1,53
 315 -76 315 -76 277 -76 c 2,54,-1
 259 -76 l 1,55,-1
 259 -17 l 1,41,-1
EndSplineSet
EndChar

StartChar: scommaaccent
Encoding: 537 537 179
Width: 559
GlyphClass: 2
Flags: MW
HStem: -171 151<184 269 184 375> -10 121<189.5 280.5 253.5 280.5 253.5 295> 187.76 146.84 358 163<273 519 273 355> 403 118<275.5 299>
VStem: 22 163<149 158 158 159.5> 38 173<337.5 388.5 337.5 410.5> 184 191<-139 -139 -139 -20 -139 -20> 355 166<358 431> 356 176<127 179.5>
AnchorPoint: "Bottom" 280 0 basechar 0
LayerCount: 2
Fore
SplineSet
521 384 m 1,0,-1
 519 358 l 1,1,-1
 355 358 l 1,2,3
 355 382 355 382 333.5 392.5 c 128,-1,4
 312 403 312 403 285 403 c 0,5,6
 211 403 211 403 211 374 c 0,7,8
 211 355 211 355 244 347 c 128,-1,9
 277 339 277 339 324 334 c 128,-1,10
 371 329 371 329 418.5 317.5 c 128,-1,11
 466 306 466 306 499 269 c 128,-1,12
 532 232 532 232 532 170 c 0,13,14
 532 76 532 76 463.5 33 c 128,-1,15
 395 -10 395 -10 295 -10 c 2,16,-1
 243 -10 l 2,17,18
 154 -10 154 -10 88 31.5 c 128,-1,19
 22 73 22 73 22 149 c 2,20,-1
 22 158 l 2,21,22
 22 164 22 164 23 167 c 1,23,-1
 185 167 l 1,24,-1
 185 163 l 2,25,26
 185 111 185 111 270.5 111 c 128,-1,27
 356 111 356 111 356 142 c 0,28,29
 356 162 356 162 323 171 c 128,-1,30
 290 180 290 180 243.5 186 c 128,-1,31
 197 192 197 192 150.5 204 c 128,-1,32
 104 216 104 216 71 252.5 c 128,-1,33
 38 289 38 289 38 348 c 128,-1,34
 38 407 38 407 76 447.5 c 0,35,36
 144.962962963 521 144.962962963 521 273 521 c 2,37,-1
 304 521 l 2,38,39
 382 521 382 521 451.5 484.5 c 128,-1,40
 521 448 521 448 521 384 c 1,0,-1
375 -139 m 1,41,-1
 347 -250 l 1,42,-1
 253 -250 l 1,43,-1
 269 -171 l 1,44,-1
 184 -171 l 1,45,-1
 184 -20 l 1,46,-1
 375 -20 l 1,47,-1
 375 -139 l 1,41,-1
EndSplineSet
EndChar

StartChar: germandbls
Encoding: 223 223 180
Width: 652
GlyphClass: 2
Flags: MW
HStem: 0 148<321 349 349 371 321 384 321 349> 321 122<321 348 348 349 321 348> 369 142<25 87 25 87> 579 149<331 366.5>
VStem: 87 198<-66 369 369 369 -66 511> 321 186<390 395 390 443 390 443> 412 189<509 530.5> 430 197<210.5 257 145 258>
LayerCount: 2
Fore
SplineSet
349 728 m 0,0,1
 413 728 413 728 467 711.5 c 128,-1,2
 521 695 521 695 561 651 c 128,-1,3
 601 607 601 607 601 549.5 c 0,4,5
 601 492 601 492 576 452.5 c 128,-1,6
 551 413 551 413 507 395 c 1,7,-1
 507 390 l 1,8,9
 561 371 561 371 594 323.5 c 128,-1,10
 627 276 627 276 627 219 c 0,11,12
 627 112 627 112 560.5 56 c 128,-1,13
 494 0 494 0 384 0 c 2,14,-1
 321 0 l 1,15,-1
 321 148 l 1,16,-1
 349 148 l 2,17,18
 382 148 382 148 406 173.5 c 128,-1,19
 430 199 430 199 430 234.5 c 0,20,21
 430 270 430 270 406.5 295.5 c 128,-1,22
 383 321 383 321 349 321 c 2,23,-1
 321 321 l 1,24,-1
 321 443 l 1,25,-1
 348 443 l 2,26,27
 375 443 375 443 393.5 462.5 c 128,-1,28
 412 482 412 482 412 511 c 128,-1,29
 412 540 412 540 393.5 559.5 c 128,-1,30
 375 579 375 579 348.5 579 c 0,31,32
 322 579 322 579 303.5 559.5 c 128,-1,33
 285 540 285 540 285 511 c 2,34,-1
 285 -66 l 1,35,-1
 87 -66 l 1,36,-1
 87 369 l 1,37,-1
 25 369 l 1,38,-1
 25 511 l 1,39,-1
 87 511 l 1,40,41
 93 611 93 611 170 669.5 c 128,-1,42
 247 728 247 728 349 728 c 0,0,1
EndSplineSet
EndChar

StartChar: t
Encoding: 116 116 181
Width: 419
GlyphClass: 2
Flags: MW
HStem: -11 122<208 341.5> 369 142<23 79 23 87 277 397>
VStem: 79 198<150.5 180 180 369 150.5 369>
AnchorPoint: "Bottom" 210 0 basechar 0
LayerCount: 2
Fore
SplineSet
277 511 m 1,0,-1
 397 511 l 1,1,-1
 397 369 l 1,2,-1
 277 369 l 1,3,-1
 277 180 l 2,4,5
 277 111 277 111 334 111 c 0,6,7
 369 111 369 111 396 123 c 1,8,-1
 396 11 l 1,9,10
 344 -11 344 -11 259 -11 c 0,11,12
 174 -11 174 -11 126.5 21 c 128,-1,13
 79 53 79 53 79 130 c 2,14,-1
 79 369 l 1,15,-1
 23 369 l 1,16,-1
 23 511 l 1,17,-1
 87 511 l 1,18,-1
 156 674 l 1,19,-1
 277 674 l 1,20,-1
 277 511 l 1,0,-1
EndSplineSet
EndChar

StartChar: tcaron
Encoding: 357 357 182
Width: 419
GlyphClass: 2
Flags: MW
HStem: -11 122<208 341.5> 338 348<479 573 479 479> 369 142<23 79 23 87 277 397> 503 183<432 516 432 623>
VStem: 79 198<150.5 180 180 369 150.5 369> 432 191<525 525 525 686 525 686>
AnchorPoint: "Bottom" 210 0 basechar 0
LayerCount: 2
Fore
SplineSet
623 525 m 1,0,-1
 573 338 l 1,1,-1
 479 338 l 1,2,-1
 516 503 l 1,3,-1
 432 503 l 1,4,-1
 432 686 l 1,5,-1
 623 686 l 1,6,-1
 623 525 l 1,0,-1
277 511 m 1,7,-1
 397 511 l 1,8,-1
 397 369 l 1,9,-1
 277 369 l 1,10,-1
 277 180 l 2,11,12
 277 111 277 111 334 111 c 0,13,14
 369 111 369 111 396 123 c 1,15,-1
 396 11 l 1,16,17
 344 -11 344 -11 259 -11 c 0,18,19
 174 -11 174 -11 126.5 21 c 128,-1,20
 79 53 79 53 79 130 c 2,21,-1
 79 369 l 1,22,-1
 23 369 l 1,23,-1
 23 511 l 1,24,-1
 87 511 l 1,25,-1
 156 674 l 1,26,-1
 277 674 l 1,27,-1
 277 511 l 1,7,-1
EndSplineSet
EndChar

StartChar: tcedilla
Encoding: 355 355 183
Width: 419
GlyphClass: 2
Flags: MW
HStem: -197 58<190.5 217 183.5 236.5> -76 59<189 207 189 210> -11 122<208 341.5> 369 142<23 79 23 87 277 397>
VStem: 79 198<150.5 180 180 369 150.5 369> 189 207<-76 123 -17 123> 245 87<-119.5 -98>
AnchorPoint: "Bottom" 210 0 basechar 0
LayerCount: 2
Fore
SplineSet
277 511 m 1,0,-1
 397 511 l 1,1,-1
 397 369 l 1,2,-1
 277 369 l 1,3,-1
 277 180 l 2,4,5
 277 111 277 111 334 111 c 0,6,7
 369 111 369 111 396 123 c 1,8,-1
 396 11 l 1,9,10
 344 -11 344 -11 259 -11 c 128,-1,11
 174 -11 174 -11 126.5 21 c 128,-1,12
 79 53 79 53 79 130 c 2,13,-1
 79 369 l 1,14,-1
 23 369 l 1,15,-1
 23 511 l 1,16,-1
 87 511 l 1,17,-1
 156 674 l 1,18,-1
 277 674 l 1,19,-1
 277 511 l 1,0,-1
189 -17 m 1,20,-1
 210 -17 l 2,21,22
 332 -17 332 -17 332 -108 c 0,23,24
 332 -142 332 -142 311 -163 c 0,25,26
 277 -197 277 -197 204.5 -197 c 128,-1,27
 132 -197 132 -197 88 -161 c 1,28,-1
 120 -107 l 1,29,30
 157 -139 157 -139 201 -139 c 128,-1,31
 245 -139 245 -139 245 -107.5 c 128,-1,32
 245 -76 245 -76 207 -76 c 2,33,-1
 189 -76 l 1,34,-1
 189 -17 l 1,20,-1
EndSplineSet
EndChar

StartChar: tcommaaccent
Encoding: 539 539 184
Width: 419
GlyphClass: 2
Flags: MW
HStem: -171 151<114 199 114 305> -11 122<208 341.5> 369 142<23 79 23 87 277 397>
VStem: 79 198<150.5 180 180 369> 114 191<-139 -139 -139 -20 -139 -20>
AnchorPoint: "Bottom" 210 0 basechar 0
LayerCount: 2
Fore
SplineSet
277 511 m 1,0,-1
 397 511 l 1,1,-1
 397 369 l 1,2,-1
 277 369 l 1,3,-1
 277 180 l 2,4,5
 277 111 277 111 334 111 c 0,6,7
 369 111 369 111 396 123 c 1,8,-1
 396 11 l 1,9,10
 344 -11 344 -11 259 -11 c 0,11,12
 174 -11 174 -11 126.5 21 c 128,-1,13
 79 53 79 53 79 130 c 2,14,-1
 79 369 l 1,15,-1
 23 369 l 1,16,-1
 23 511 l 1,17,-1
 87 511 l 1,18,-1
 156 674 l 1,19,-1
 277 674 l 1,20,-1
 277 511 l 1,0,-1
305 -139 m 1,21,-1
 277 -250 l 1,22,-1
 183 -250 l 1,23,-1
 199 -171 l 1,24,-1
 114 -171 l 1,25,-1
 114 -20 l 1,26,-1
 305 -20 l 1,27,-1
 305 -139 l 1,21,-1
EndSplineSet
EndChar

StartChar: u
Encoding: 117 117 185
Width: 628
GlyphClass: 2
Flags: MW
HStem: -10 121<468.5 585> -10 141<154.5 311.5 196 311.5> -10 521<154.5 196 196 224 468.5 539>
VStem: 46 198<174.5 191 191 511> 350 198<191 511>
LayerCount: 2
Fore
SplineSet
548 511 m 1,0,-1
 548 148 l 2,1,2
 548 129 548 129 557 120 c 128,-1,3
 566 111 566 111 582 111 c 0,4,5
 598 111 598 111 614 120 c 1,6,-1
 614 13 l 1,7,8
 582 -10 582 -10 515.5 -10 c 0,9,10
 449 -10 449 -10 415 10.5 c 128,-1,11
 381 31 381 31 366 71 c 1,12,13
 349 45 349 45 310 17.5 c 128,-1,14
 271 -10 271 -10 224 -10 c 2,15,-1
 196 -10 l 2,16,17
 134 -10 134 -10 90 34 c 128,-1,18
 46 78 46 78 46 140 c 2,19,-1
 46 511 l 1,20,-1
 244 511 l 1,21,-1
 244 191 l 2,22,23
 244 166 244 166 259.5 148.5 c 128,-1,24
 275 131 275 131 297 131 c 128,-1,25
 319 131 319 131 334.5 148.5 c 128,-1,26
 350 166 350 166 350 191 c 2,27,-1
 350 511 l 1,28,-1
 548 511 l 1,0,-1
EndSplineSet
EndChar

StartChar: uacute
Encoding: 250 250 186
Width: 628
GlyphClass: 2
Flags: MW
HStem: -10 121<468.5 585> -10 141<154.5 311.5 196 311.5> -10 521<154.5 196 196 224 468.5 539> 575 145<321 348 230 472>
VStem: 46 198<174.5 191 191 511> 350 198<191 511>
LayerCount: 2
Fore
SplineSet
474 717 m 1,0,-1
 348 575 l 1,1,-1
 230 575 l 1,2,-1
 321 720 l 1,3,-1
 472 720 l 1,4,-1
 474 717 l 1,0,-1
548 511 m 1,5,-1
 548 148 l 2,6,7
 548 129 548 129 557 120 c 128,-1,8
 566 111 566 111 582 111 c 0,9,10
 598 111 598 111 614 120 c 1,11,-1
 614 13 l 1,12,13
 582 -10 582 -10 515.5 -10 c 0,14,15
 449 -10 449 -10 415 10.5 c 128,-1,16
 381 31 381 31 366 71 c 1,17,18
 349 45 349 45 310 17.5 c 128,-1,19
 271 -10 271 -10 224 -10 c 2,20,-1
 196 -10 l 2,21,22
 134 -10 134 -10 90 34 c 128,-1,23
 46 78 46 78 46 140 c 2,24,-1
 46 511 l 1,25,-1
 244 511 l 1,26,-1
 244 191 l 2,27,28
 244 166 244 166 259.5 148.5 c 128,-1,29
 275 131 275 131 297 131 c 128,-1,30
 319 131 319 131 334.5 148.5 c 128,-1,31
 350 166 350 166 350 191 c 2,32,-1
 350 511 l 1,33,-1
 548 511 l 1,5,-1
EndSplineSet
EndChar

StartChar: ucircumflex
Encoding: 251 251 187
Width: 628
GlyphClass: 2
Flags: MW
HStem: -10 121<468.5 585> -10 141<154.5 311.5 196 311.5> -10 521<154.5 196 196 224 468.5 539> 575 145<94 361 94 361 233 500 233 370> 652 68<296 296>
VStem: 46 198<174.5 191 191 511> 350 198<191 511>
LayerCount: 2
Fore
SplineSet
500 575 m 1,0,-1
 370 575 l 1,1,-1
 296 652 l 1,2,-1
 222 575 l 1,3,-1
 94 575 l 1,4,-1
 233 720 l 1,5,-1
 361 720 l 1,6,-1
 500 575 l 1,0,-1
548 511 m 1,7,-1
 548 148 l 2,8,9
 548 129 548 129 557 120 c 128,-1,10
 566 111 566 111 582 111 c 0,11,12
 598 111 598 111 614 120 c 1,13,-1
 614 13 l 1,14,15
 582 -10 582 -10 515.5 -10 c 0,16,17
 449 -10 449 -10 415 10.5 c 128,-1,18
 381 31 381 31 366 71 c 1,19,20
 349 45 349 45 310 17.5 c 128,-1,21
 271 -10 271 -10 224 -10 c 2,22,-1
 196 -10 l 2,23,24
 134 -10 134 -10 90 34 c 128,-1,25
 46 78 46 78 46 140 c 2,26,-1
 46 511 l 1,27,-1
 244 511 l 1,28,-1
 244 191 l 2,29,30
 244 166 244 166 259.5 148.5 c 128,-1,31
 275 131 275 131 297 131 c 128,-1,32
 319 131 319 131 334.5 148.5 c 128,-1,33
 350 166 350 166 350 191 c 2,34,-1
 350 511 l 1,35,-1
 548 511 l 1,7,-1
EndSplineSet
EndChar

StartChar: udieresis
Encoding: 252 252 188
Width: 628
GlyphClass: 2
Flags: MW
HStem: -10 121<468.5 585> -10 141<154.5 311.5 196 311.5> -10 521<154.5 196 196 224 468.5 539> 573 147<111 263 111 263 111 331 331 483>
VStem: 46 198<174.5 191 191 511> 111 152<573 720 573 720> 331 152<573 720 573 720> 350 198<191 511>
LayerCount: 2
Fore
SplineSet
263 573 m 1,0,-1
 111 573 l 1,1,-1
 111 720 l 1,2,-1
 263 720 l 1,3,-1
 263 573 l 1,0,-1
483 573 m 1,4,-1
 331 573 l 1,5,-1
 331 720 l 1,6,-1
 483 720 l 1,7,-1
 483 573 l 1,4,-1
548 511 m 1,8,-1
 548 148 l 2,9,10
 548 129 548 129 557 120 c 128,-1,11
 566 111 566 111 582 111 c 0,12,13
 598 111 598 111 614 120 c 1,14,-1
 614 13 l 1,15,16
 582 -10 582 -10 515.5 -10 c 0,17,18
 449 -10 449 -10 415 10.5 c 128,-1,19
 381 31 381 31 366 71 c 1,20,21
 349 45 349 45 310 17.5 c 128,-1,22
 271 -10 271 -10 224 -10 c 2,23,-1
 196 -10 l 2,24,25
 134 -10 134 -10 90 34 c 128,-1,26
 46 78 46 78 46 140 c 2,27,-1
 46 511 l 1,28,-1
 244 511 l 1,29,-1
 244 191 l 2,30,31
 244 166 244 166 259.5 148.5 c 128,-1,32
 275 131 275 131 297 131 c 128,-1,33
 319 131 319 131 334.5 148.5 c 128,-1,34
 350 166 350 166 350 191 c 2,35,-1
 350 511 l 1,36,-1
 548 511 l 1,8,-1
EndSplineSet
EndChar

StartChar: ugrave
Encoding: 249 249 189
Width: 628
GlyphClass: 2
Flags: MW
HStem: -10 121<468.5 585> -10 141<154.5 311.5 196 311.5> -10 521<154.5 196 196 224 468.5 539> 575 145<240 267 116 358 240 240>
VStem: 46 198<174.5 191 191 511> 350 198<191 511>
LayerCount: 2
Fore
SplineSet
358 575 m 1,0,-1
 240 575 l 1,1,-1
 114 717 l 1,2,-1
 116 720 l 1,3,-1
 267 720 l 1,4,-1
 358 575 l 1,0,-1
548 511 m 1,5,-1
 548 148 l 2,6,7
 548 129 548 129 557 120 c 128,-1,8
 566 111 566 111 582 111 c 0,9,10
 598 111 598 111 614 120 c 1,11,-1
 614 13 l 1,12,13
 582 -10 582 -10 515.5 -10 c 0,14,15
 449 -10 449 -10 415 10.5 c 128,-1,16
 381 31 381 31 366 71 c 1,17,18
 349 45 349 45 310 17.5 c 128,-1,19
 271 -10 271 -10 224 -10 c 2,20,-1
 196 -10 l 2,21,22
 134 -10 134 -10 90 34 c 128,-1,23
 46 78 46 78 46 140 c 2,24,-1
 46 511 l 1,25,-1
 244 511 l 1,26,-1
 244 191 l 2,27,28
 244 166 244 166 259.5 148.5 c 128,-1,29
 275 131 275 131 297 131 c 128,-1,30
 319 131 319 131 334.5 148.5 c 128,-1,31
 350 166 350 166 350 191 c 2,32,-1
 350 511 l 1,33,-1
 548 511 l 1,5,-1
EndSplineSet
EndChar

StartChar: uhungarumlaut
Encoding: 369 369 190
Width: 628
GlyphClass: 2
Flags: MW
HStem: -10 121<468.5 585> -10 141<154.5 311.5 196 311.5> -10 521<154.5 196 196 224 468.5 539> 575 145<199 226 108 350 335 335 335 350 426 453>
VStem: 46 198<174.5 191 191 511> 350 198<191 511>
LayerCount: 2
Fore
SplineSet
352 717 m 1,0,-1
 226 575 l 1,1,-1
 108 575 l 1,2,-1
 199 720 l 1,3,-1
 350 720 l 1,4,-1
 352 717 l 1,0,-1
579 717 m 1,5,-1
 453 575 l 1,6,-1
 335 575 l 1,7,-1
 426 720 l 1,8,-1
 577 720 l 1,9,-1
 579 717 l 1,5,-1
548 511 m 1,10,-1
 548 148 l 2,11,12
 548 129 548 129 557 120 c 128,-1,13
 566 111 566 111 582 111 c 0,14,15
 598 111 598 111 614 120 c 1,16,-1
 614 13 l 1,17,18
 582 -10 582 -10 515.5 -10 c 0,19,20
 449 -10 449 -10 415 10.5 c 128,-1,21
 381 31 381 31 366 71 c 1,22,23
 349 45 349 45 310 17.5 c 128,-1,24
 271 -10 271 -10 224 -10 c 2,25,-1
 196 -10 l 2,26,27
 134 -10 134 -10 90 34 c 128,-1,28
 46 78 46 78 46 140 c 2,29,-1
 46 511 l 1,30,-1
 244 511 l 1,31,-1
 244 191 l 2,32,33
 244 166 244 166 259.5 148.5 c 128,-1,34
 275 131 275 131 297 131 c 128,-1,35
 319 131 319 131 334.5 148.5 c 128,-1,36
 350 166 350 166 350 191 c 2,37,-1
 350 511 l 1,38,-1
 548 511 l 1,10,-1
EndSplineSet
EndChar

StartChar: umacron
Encoding: 363 363 191
Width: 628
GlyphClass: 2
Flags: MW
HStem: -10 121<468.5 585> -10 141<154.5 311.5 196 311.5> -10 521<154.5 196 196 224 468.5 539> 662 74<155 473 155 473>
VStem: 46 198<174.5 191 191 511> 350 198<191 511>
LayerCount: 2
Fore
SplineSet
473 662 m 1,0,-1
 155 662 l 1,1,-1
 155 736 l 1,2,-1
 473 736 l 1,3,-1
 473 662 l 1,0,-1
548 511 m 1,4,-1
 548 148 l 2,5,6
 548 129 548 129 557 120 c 128,-1,7
 566 111 566 111 582 111 c 0,8,9
 598 111 598 111 614 120 c 1,10,-1
 614 13 l 1,11,12
 582 -10 582 -10 515.5 -10 c 0,13,14
 449 -10 449 -10 415 10.5 c 128,-1,15
 381 31 381 31 366 71 c 1,16,17
 349 45 349 45 310 17.5 c 128,-1,18
 271 -10 271 -10 224 -10 c 2,19,-1
 196 -10 l 2,20,21
 134 -10 134 -10 90 34 c 128,-1,22
 46 78 46 78 46 140 c 2,23,-1
 46 511 l 1,24,-1
 244 511 l 1,25,-1
 244 191 l 2,26,27
 244 166 244 166 259.5 148.5 c 128,-1,28
 275 131 275 131 297 131 c 128,-1,29
 319 131 319 131 334.5 148.5 c 128,-1,30
 350 166 350 166 350 191 c 2,31,-1
 350 511 l 1,32,-1
 548 511 l 1,4,-1
EndSplineSet
EndChar

StartChar: uogonek
Encoding: 371 371 192
Width: 628
GlyphClass: 2
Flags: MW
HStem: -143 53<552.5 557.5> -10 141<154.5 311.5 196 311.5> -10 521<154.5 196 196 224>
VStem: 46 198<174.5 191 191 511> 350 198<191 511> 442 77<-69.5 -57.5>
LayerCount: 2
Fore
SplineSet
630 -76 m 1,0,-1
 643 -119 l 1,1,2
 595 -143 595 -143 547 -143 c 0,3,4
 442 -143 442 -143 442 -71 c 0,5,6
 442 -40 442 -40 483 -9 c 1,7,8
 393 -1 393 -1 366 71 c 1,9,10
 349 45 349 45 310 17.5 c 128,-1,11
 271 -10 271 -10 224 -10 c 2,12,-1
 196 -10 l 2,13,14
 134 -10 134 -10 90 34 c 128,-1,15
 46 78 46 78 46 140 c 2,16,-1
 46 511 l 1,17,-1
 244 511 l 1,18,-1
 244 191 l 2,19,20
 244 166 244 166 259.5 148.5 c 128,-1,21
 275 131 275 131 297 131 c 128,-1,22
 319 131 319 131 334.5 148.5 c 128,-1,23
 350 166 350 166 350 191 c 2,24,-1
 350 511 l 1,25,-1
 548 511 l 1,26,-1
 548 148 l 2,27,28
 548 129 548 129 557 120 c 128,-1,29
 566 111 566 111 582 111 c 128,-1,30
 598 111 598 111 614 120 c 1,31,-1
 614 13 l 1,32,33
 591 -3 591 -3 554 -7 c 1,34,35
 519 -32 519 -32 519 -56 c 0,36,37
 519 -90 519 -90 563 -90 c 0,38,39
 593 -90 593 -90 630 -76 c 1,0,-1
EndSplineSet
EndChar

StartChar: uring
Encoding: 367 367 193
Width: 628
GlyphClass: 2
Flags: MW
HStem: -10 121<468.5 585> -10 141<154.5 311.5 196 311.5> -10 521<154.5 196 196 224 468.5 539> 545 65<304.5 324 304.5 342> 680 66<304 323.5>
VStem: 46 198<174.5 191 191 511> 213 66<634.5 654 634.5 673> 349 66<636 655.5> 350 198<191 511>
LayerCount: 2
Fore
SplineSet
242.5 716.5 m 128,-1,1
 272 746 272 746 313.5 746 c 128,-1,2
 355 746 355 746 385 716.5 c 128,-1,3
 415 687 415 687 415 645.5 c 128,-1,4
 415 604 415 604 385.5 574.5 c 128,-1,5
 356 545 356 545 314 545 c 128,-1,6
 272 545 272 545 242.5 574 c 128,-1,7
 213 603 213 603 213 645 c 128,-1,0
 213 687 213 687 242.5 716.5 c 128,-1,1
338.5 670 m 128,-1,9
 328 680 328 680 313.5 680 c 128,-1,10
 299 680 299 680 289 669.5 c 128,-1,11
 279 659 279 659 279 644.5 c 128,-1,12
 279 630 279 630 289.5 620 c 128,-1,13
 300 610 300 610 314.5 610 c 128,-1,14
 329 610 329 610 339 620.5 c 128,-1,15
 349 631 349 631 349 645.5 c 128,-1,8
 349 660 349 660 338.5 670 c 128,-1,9
548 511 m 1,16,-1
 548 148 l 2,17,18
 548 129 548 129 557 120 c 128,-1,19
 566 111 566 111 582 111 c 128,-1,20
 598 111 598 111 614 120 c 1,21,-1
 614 13 l 1,22,23
 582 -10 582 -10 515.5 -10 c 128,-1,24
 449 -10 449 -10 415 10.5 c 128,-1,25
 381 31 381 31 366 71 c 1,26,27
 349 45 349 45 310 17.5 c 128,-1,28
 271 -10 271 -10 224 -10 c 2,29,-1
 196 -10 l 2,30,31
 134 -10 134 -10 90 34 c 128,-1,32
 46 78 46 78 46 140 c 2,33,-1
 46 511 l 1,34,-1
 244 511 l 1,35,-1
 244 191 l 2,36,37
 244 166 244 166 259.5 148.5 c 128,-1,38
 275 131 275 131 297 131 c 128,-1,39
 319 131 319 131 334.5 148.5 c 128,-1,40
 350 166 350 166 350 191 c 2,41,-1
 350 511 l 1,42,-1
 548 511 l 1,16,-1
EndSplineSet
EndChar

StartChar: v
Encoding: 118 118 194
Width: 559
GlyphClass: 2
Flags: MW
HStem: 0 219<285 292 285 393 164 292> 0 511<164 210 367 393 164 164>
VStem: -1 561<511 511>
LayerCount: 2
Fore
SplineSet
393 0 m 1,0,-1
 164 0 l 1,1,-1
 -1 511 l 1,2,-1
 210 511 l 1,3,-1
 285 219 l 1,4,-1
 292 219 l 1,5,-1
 367 511 l 1,6,-1
 560 511 l 1,7,-1
 393 0 l 1,0,-1
EndSplineSet
EndChar

StartChar: w
Encoding: 119 119 195
Width: 855
GlyphClass: 2
Flags: MW
HStem: 0 253<267 274 267 377 149 274 595 603 267 482> 0 511<149 210 335 377 149 149 482 535 660 706 482 482> 213 298<425 433 425 425>
VStem: 4 848<511 511>
LayerCount: 2
Fore
SplineSet
706 0 m 1,0,-1
 482 0 l 1,1,-1
 433 213 l 1,2,-1
 425 213 l 1,3,-1
 377 0 l 1,4,-1
 149 0 l 1,5,-1
 4 511 l 1,6,-1
 210 511 l 1,7,-1
 267 253 l 1,8,-1
 274 253 l 1,9,-1
 335 511 l 1,10,-1
 535 511 l 1,11,-1
 595 253 l 1,12,-1
 603 253 l 1,13,-1
 660 511 l 1,14,-1
 852 511 l 1,15,-1
 706 0 l 1,0,-1
EndSplineSet
EndChar

